<?xml version="1.0" standalone="no"?>
<!DOCTYPE svg PUBLIC "-//W3C//DTD SVG 1.1//EN" "http://www.w3.org/Graphics/SVG/1.1/DTD/svg11.dtd">
<svg xmlns="http://www.w3.org/2000/svg">
<defs >
<font id="Georama" horiz-adv-x="491" ><font-face
    font-family="Georama ExtraCondensed Thin"
    units-per-em="1000"
    panose-1="2 11 0 0 3 0 0 2 0 4"
    ascent="968"
    descent="-226"
    alphabetic="0" />
<glyph unicode=" " horiz-adv-x="266" />
<glyph unicode="!" horiz-adv-x="248" d="M56 260L123 740H274L185 260H56ZM7 53Q8 85 18 110T50 150T107 166Q146 166 162 151T179 106Q179 82 173 62T154 27T124 2T79 -7Q41 -7 24 8T7 53Z" />
<glyph unicode="&quot;" horiz-adv-x="384" d="M62 427L100 700H236L184 427H62ZM245 427L283 700H419L367 427H245Z" />
<glyph unicode="#" horiz-adv-x="639" d="M117 425L136 543H215L260 700H392L347 543H425L471 700H603L557 543H611L591 425H526L480 271H546L527 154H447L404 0H272L316 154H237L194 0H61L105 154H53L72 271H137L184 425H117ZM315 425L269 271H347L394 425H315Z" />
<glyph unicode="$" horiz-adv-x="640" d="M604 675L557 546Q517 562 473 569T383 576Q365 576 348 573T316 564T290 548T273 527T267 500Q267 482 279 469T313 444T361 421T416 398T471 369T519 331T553 281T566 214Q566 176 555 145T522 88T471 45T406 14T332
-4L317 -105H199L214 -7Q178 -5 143 1T77 16T21 35L68 161Q90 153 116 145T170 131T227 122T284 119Q305 119 323 122T356 131T382 146T400 168T406 196Q406 214 394 227T360 252T311 275T256 299T200 328T152 367T118 419T105 487Q105 524 116 555T148 611T197
654T259 685T332 702L349 804H467L452 707Q485 705 513 700T564 688T604 675Z" />
<glyph unicode="%" horiz-adv-x="930" d="M72 721Q72 773 85 817T123 895T183 948T263 967Q315 967 353 948T411 892T432 799Q432 748 419 704T381 626T321 573T241 554Q188 554 150 572T92 628T72 721ZM270 891Q250 891 234 874T205 828T186 764T180 692Q180
660 193 645T233 629Q253 629 270 646T299 693T317 757T324 828Q324 860 310 875T270 891ZM283 -6L178 -4L682 725L787 722L283 -6ZM524 157Q524 209 537 253T575 331T635 384T715 403Q767 403 805 384T863 328T884 235Q884 184 871 140T833 62T773 9T693 -10Q640
-10 602 8T544 64T524 157ZM722 327Q702 327 686 310T657 264T638 200T632 128Q632 96 645 81T685 65Q705 65 722 82T751 129T769 193T776 264Q776 296 762 311T722 327Z" />
<glyph unicode="&amp;" horiz-adv-x="704" d="M289 -10Q199 -10 139 15T48 86T18 190Q18 251 43 296T113 370T215 409Q184 422 162 440T129 483T117 537Q117 584 144 623T222 686T342 710Q380 710 413 704T477 685T535 654L461 559Q444 571 427 578T393 589T358
593Q331 593 311 583T279 556T267 516Q267 494 278 478T309 452T360 440L377 437L355 348H320Q288 348 262 338T215 310T183 267T172 210Q172 181 187 159T234 124T310 111Q350 111 385 125T447 164T485 223T492 296L608 301Q608 235 585 179T521 80T420 14T289
-10ZM420 223L333 244Q336 278 350 306T390 350T457 367Q471 367 483 365T507 361T532 356T558 353Q591 353 609 366T629 416L720 414Q724 373 711 339T670 284T606 264Q591 264 575 266T541 270T507 275T472 278Q450 278 437 264T420 223Z" />
<glyph unicode="&apos;" horiz-adv-x="201" d="M62 427L100 700H236L184 427H62Z" />
<glyph unicode="(" horiz-adv-x="325" d="M41 74Q41 137 49 209T74 356T118 498T182 622T268 711T377 750L360 631Q328 624 301 592T251 511T213 402T185 283T168 168T162 74Q162 26 171 -10T198 -69T244 -104L222 -220Q174 -212 140 -187T83 -124T51 -35T41 74Z" />
<glyph unicode=")" horiz-adv-x="325" d="M281 456Q281 392 273 320T247 173T202 32T138 -91T52 -180T-55 -220L-38 -101Q-6 -94 21 -62T70 20T109 129T137 248T154 363T160 457Q160 504 151 538T125 596T78 632L99 750Q164 739 204 700T262 598T281 456Z" />
<glyph unicode="*" horiz-adv-x="358" d="M125 367L77 408L147 511L61 558L93 625L188 599L215 716H283L273 599L377 625L387 558L284 511L321 408L260 368L207 457L125 367Z" />
<glyph unicode="+" horiz-adv-x="493" d="M156 114L177 250H46L66 380H198L220 515H350L328 380H460L439 250H308L286 114H156Z" />
<glyph unicode="," horiz-adv-x="226" d="M14 87L152 90Q153 82 154 74T155 56Q155 23 147 -10T122 -74T83 -135T33 -191L-76 -165Q-54 -141 -37 -109T-7 -43T9 22Q11 34 12 51T14 87Z" />
<glyph unicode="-" horiz-adv-x="340" d="M34 234L57 371H315L293 234H34Z" />
<glyph unicode="." horiz-adv-x="229" d="M-2 55Q-1 86 9 111T41 152T98 167Q136 167 152 153T169 108Q169 84 163 64T145 28T115 3T70 -6Q31 -6 15 9T-2 55Z" />
<glyph unicode="/" horiz-adv-x="411" d="M-75 -210L357 740H483L49 -210H-75Z" />
<glyph unicode="0" horiz-adv-x="640" d="M295 -11Q206 -11 151 20T70 110T44 256Q44 314 52 370T78 477T123 570T186 644T268 693T369 711Q458 711 513 680T593 590T619 444Q619 385 611 329T584 222T538 128T475 54T394 6T295 -11ZM298 119Q327 119 350 135T391
177T422 238T443 310T456 385T460 454Q460 495 451 523T421 566T365 581Q336 581 313 566T272 523T241 463T220 391T208 316T204 246Q204 206 213 178T243 134T298 119Z" />
<glyph unicode="1" horiz-adv-x="639" d="M66 0L87 129H250L312 519L150 450L136 589L421 701H498L406 129H551L530 0H66Z" />
<glyph unicode="2" horiz-adv-x="640" d="M50 102Q101 134 150 171T244 249T321 329T373 410T393 486Q393 507 383 523T355 549T309 559Q285 559 259 553T207 537T153 512L122 642Q156 663 196 678T279 701T364 710Q405 710 441 699T503 665T544 611T559 538Q559
488 544 443T503 357T441 276T364 200T282 125H549L528 0H34L50 102Z" />
<glyph unicode="3" horiz-adv-x="640" d="M13 44L72 157Q95 145 124 137T186 125T254 120Q302 120 336 132T388 167T407 224Q407 261 382 280T300 300H181L199 412H301Q335 412 360 419T401 438T424 466T432 502Q432 539 400 558T312 578Q283 578 254 575T199
564T147 546L126 660Q154 678 191 688T272 704T359 710Q475 710 532 669T589 552Q589 507 573 473T527 413T461 372Q491 363 513 345T547 299T560 227Q560 176 542 138T492 71T420 25T335 -1T247 -10Q177 -10 119 3T13 44Z" />
<glyph unicode="4" horiz-adv-x="640" d="M9 118L25 224L442 701L576 699L501 236H597L579 118H481L463 -1H303L322 118H9ZM161 236H344L388 497L161 236Z" />
<glyph unicode="5" horiz-adv-x="640" d="M23 41L73 163Q95 153 122 143T182 127T252 120Q296 120 326 130T375 157T401 194T409 234Q409 257 400 272T367 296T305 304H113L106 314L211 700H603L582 566H296L265 425L375 424Q473 424 519 384T566 261Q566 208
548 159T492 72T394 12T248 -10Q201 -10 162 -5T88 12T23 41Z" />
<glyph unicode="6" horiz-adv-x="640" d="M310 -10Q229 -10 171 19T83 106T52 250Q52 331 69 401T119 528T199 625T308 688T445 710Q507 710 557 698T636 671L584 551Q555 564 523 570T457 577Q400 577 356 557T280 502Q239 458 220 392T201 249Q201 206 215 177T256
132T322 117Q358 117 385 132T429 174T445 239Q445 268 435 288T401 319T338 330Q311 330 285 324T235 304T193 273L199 379Q226 404 257 419T323 440T392 447Q455 447 499 426T567 362T591 260Q591 207 578 164T539 89T480 34T402 1T310 -10Z" />
<glyph unicode="7" horiz-adv-x="640" d="M129 0Q137 51 151 97T186 188T236 281T304 383L434 564H111L132 700H632L615 592L470 376Q428 314 398 264T348 171T314 87T292 0H129Z" />
<glyph unicode="8" horiz-adv-x="640" d="M293 -10Q198 -10 139 13T54 77T27 171Q27 217 48 258T106 328T193 368L288 309Q256 300 233 284T197 244T184 189Q184 151 212 129T305 106Q332 106 353 111T391 127T415 154T424 192Q424 218 411 235T375 264T323 288T264
310T205 337T154 374T118 427T104 502Q104 554 123 593T178 658T263 697T371 710Q455 710 506 688T580 629T603 547Q603 500 585 465T536 403T467 357L373 404Q399 418 418 434T447 471T458 518Q458 549 436 568T362 587Q335 587 315 582T281 568T260 546T253 517Q253
493 267 477T305 447T358 423T419 399T480 371T533 334T571 283T585 212Q585 152 563 110T502 42T409 3T293 -10Z" />
<glyph unicode="9" horiz-adv-x="640" d="M356 710Q479 710 546 645T614 450Q614 369 597 299T547 172T467 75T358 12T221 -10Q159 -10 109 2T30 29L82 149Q111 137 144 129T212 120Q272 120 315 140T389 195Q430 239 447 307T465 451Q465 495 451 524T411 568T344
583Q308 583 281 568T237 526T221 461Q221 433 231 413T265 381T328 370Q355 370 381 376T431 396T473 427L467 321Q440 296 410 281T346 260T278 253Q216 253 170 274T100 339T75 446Q75 532 111 590T212 679T356 710Z" />
<glyph unicode=":" horiz-adv-x="229" d="M-2 55Q-1 86 9 111T41 152T98 167Q136 167 152 153T169 108Q169 84 163 64T145 28T115 3T70 -6Q31 -6 15 9T-2 55ZM59 439Q60 470 70 495T102 536T159 551Q197 551 213 537T230 492Q230 468 224 448T206 412T176 387T131
378Q92 378 76 393T59 439Z" />
<glyph unicode=";" horiz-adv-x="229" d="M14 87L152 90Q153 82 154 74T155 56Q155 23 147 -10T122 -74T83 -135T33 -191L-76 -165Q-54 -141 -37 -109T-7 -43T9 22Q11 34 12 51T14 87ZM59 439Q60 470 70 495T102 536T159 551Q197 551 213 537T230 492Q230 468
224 448T206 412T176 387T131 378Q92 378 76 393T59 439Z" />
<glyph unicode="&lt;" d="M419 76L35 241L56 376L492 539L473 413L177 307L438 201L419 76Z" />
<glyph unicode="=" horiz-adv-x="476" d="M423 260L403 129H28L49 260H423ZM457 486L437 355H63L83 486H457Z" />
<glyph unicode="&gt;" d="M445 241L9 75L29 202L325 307L63 413L83 536L466 371L445 241Z" />
<glyph unicode="?" horiz-adv-x="459" d="M140 260L159 398Q203 413 233 429T282 462T310 500T319 544Q319 564 310 577T285 598T245 605Q210 605 174 593T99 558L74 685Q104 706 141 720T219 742T299 750Q338 750 372 741T432 711T472 658T487 582Q487 517 461
468T389 384T281 325L270 260H140ZM92 52Q92 84 102 110T135 151T193 166Q230 166 246 151T262 105Q262 74 252 49T219 8T163 -7Q125 -7 109 8T92 52Z" />
<glyph unicode="@" horiz-adv-x="805" d="M337 -122Q239 -122 169 -86T61 18T23 181Q23 266 43 345T103 491T199 608T327 687T484 715Q577 715 646 680T754 579T793 416Q793 364 784 312T758 213T715 131T654 74T576 53Q551 53 532 59T499 77T476 105T462 143Q443
118 419 99T366 70T307 59Q251 59 219 92T187 192Q187 239 199 289T234 384T290 466T367 524T462 546Q491 546 520 542T578 529T633 509L568 234Q562 208 562 187T571 153T603 140Q627 140 645 156T678 201T701 263T715 335T720 407Q720 488 692 541T607 621T469
648Q401 648 344 623T241 554T163 452T115 328T98 194Q98 110 128 55T213 -28T341 -55Q383 -55 426 -46T512 -17L526 -76Q498 -91 466 -101T400 -116T337 -122ZM368 172Q384 172 400 180T430 203T452 238L500 439Q487 444 475 446T447 449Q427 449 409 434T374
394T346 339T327 280T319 225Q319 200 332 186T368 172Z" />
<glyph unicode="A" horiz-adv-x="623" d="M-37 0L276 706H477L572 0H401L387 135H190L134 0H-37ZM239 261H380L358 576L239 261Z" />
<glyph unicode="B" horiz-adv-x="614" d="M11 3L122 697Q180 702 226 705T309 709T371 710Q456 710 508 695T584 648T608 571Q608 539 600 510T574 457T534 413T481 382Q516 374 539 355T575 307T588 244Q588 193 572 152T527 81T458 31T371 0T272 -10Q239 -10
209 -9T147 -7T83 -3T11 3ZM234 411H355Q371 411 388 418T420 440T442 476T451 522Q451 545 442 558T410 577T352 582Q335 582 322 582T294 580T260 577L234 411ZM215 295L187 120Q200 119 211 118T234 117T256 116T278 115Q306 115 329 120T370 133T400 156T419
189T426 232Q426 249 420 261T403 280T376 291T340 295H215Z" />
<glyph unicode="C" horiz-adv-x="583" d="M339 -10Q241 -10 174 17T72 100T37 243Q37 350 62 436T134 583T249 677T402 710Q439 710 474 707T543 697T610 675L570 552Q547 559 521 564T468 572T412 576Q361 576 322 553T256 488T215 388T200 265Q200 212 220 182T277
138T369 124Q408 124 444 129T515 142L525 14Q480 2 435 -4T339 -10Z" />
<glyph unicode="D" horiz-adv-x="659" d="M257 -10Q206 -10 165 -9T86 -5T10 1L122 700Q184 706 236 708T339 710Q399 710 447 699T531 665T592 608T629 529T642 427Q642 325 617 244T542 106T421 20T257 -10ZM272 113Q310 113 343 126T401 166T445 229T472 315T482
423Q482 455 475 481T456 526T427 557T388 576T342 583Q326 583 311 583T283 581T260 579L186 117Q202 116 214 115T240 114T272 113Z" />
<glyph unicode="E" horiz-adv-x="561" d="M10 0L121 700H588L567 566H256L232 417H520L498 291H211L187 133H514L492 0H10Z" />
<glyph unicode="F" horiz-adv-x="535" d="M9 0L122 700H585L562 564H257L227 373H491L468 240H206L167 0H9Z" />
<glyph unicode="G" horiz-adv-x="618" d="M316 -10Q250 -10 198 6T110 53T54 132T35 241Q35 315 49 384T93 513T168 616T274 685T411 710Q469 710 522 703T624 679L577 554Q552 561 527 566T475 574T416 578Q363 578 321 553T251 483T207 379T192 252Q192 215
201 189T229 146T273 122T332 114Q359 114 381 118T418 128L441 276H329L347 392H599L542 35Q502 15 445 3T316 -10Z" />
<glyph unicode="H" horiz-adv-x="659" d="M10 0L122 700H279L228 385H467L518 700H672L560 0H406L445 250H207L168 0H10Z" />
<glyph unicode="I" horiz-adv-x="266" d="M10 0L122 700H279L167 0H10Z" />
<glyph unicode="J" horiz-adv-x="485" d="M-29 25L14 157Q39 150 62 145T107 136T151 132Q185 132 210 144T252 183T276 259L325 566H101L122 700H505L428 220Q415 144 383 93T299 16T173 -10Q135 -10 100 -6T33 7T-29 25Z" />
<glyph unicode="K" horiz-adv-x="625" d="M9 0L122 700H279L167 0H9ZM522 -10Q496 -10 471 -1T420 27T368 77L187 286L212 470L451 224Q476 197 496 183T534 163T570 157Q574 157 578 157T587 158L569 -2Q565 -3 557 -5T539 -9T522 -10ZM337 291L252 388Q280 408
309 433T369 488T430 553T487 627T540 709L659 640Q639 597 612 557T554 480T487 410T414 346T337 291Z" />
<glyph unicode="L" horiz-adv-x="520" d="M9 0L122 700H279L189 135H481L458 0H9Z" />
<glyph unicode="M" horiz-adv-x="744" d="M9 0L122 700H279L381 364L589 700H758L645 0H500L574 459L389 165H317L227 458L155 0H9Z" />
<glyph unicode="N" horiz-adv-x="645" d="M10 0L122 701H269L445 250L518 700H659L546 -1H400L220 434L150 0H10Z" />
<glyph unicode="O" horiz-adv-x="667" d="M306 -7Q176 -7 108 68T42 285Q43 347 53 401T83 503T131 587T198 651T282 692T384 707Q515 707 583 632T649 415Q648 354 638 299T608 197T560 113T493 49T409 8T306 -7ZM319 125Q349 125 372 137T415 170T447 220T470
282T483 352T488 424Q488 510 457 542T372 575Q343 575 319 563T276 530T243 480T220 418T207 348T203 275Q203 190 234 158T319 125Z" />
<glyph unicode="P" horiz-adv-x="630" d="M10 0L122 701Q167 703 204 705T271 708T325 709T364 710Q463 710 524 687T612 618T640 501Q640 425 620 367T560 270T459 212T314 192Q294 192 278 192T244 193T199 196L167 0H10ZM260 578L219 324Q240 323 254 323T281
322T307 321Q354 321 387 332T441 365T471 415T481 477Q481 513 470 536T432 570T361 582Q349 582 339 582T317 581T293 580T260 578Z" />
<glyph unicode="Q" horiz-adv-x="667" d="M473 -186Q438 -186 406 -176T347 -142T302 -82T276 10L413 21Q419 -4 433 -21T469 -46T514 -55Q545 -55 568 -46L561 -171Q539 -178 517 -182T473 -186ZM306 -7Q176 -7 108 68T42 285Q43 347 53 401T83 503T131 587T198
651T282 692T384 707Q515 707 583 632T649 415Q648 354 638 299T608 197T560 113T493 49T409 8T306 -7ZM319 125Q349 125 372 137T415 170T447 220T470 282T483 352T488 424Q488 510 457 542T372 575Q343 575 319 563T276 530T243 480T220 418T207 348T203 275Q203
190 234 158T319 125Z" />
<glyph unicode="R" horiz-adv-x="648" d="M9 0L122 700Q175 704 219 706T299 709T367 710Q440 710 491 697T575 657T622 594T637 509Q637 428 604 371T510 284T367 253L338 233Q314 234 292 234T249 234T205 235L168 0H9ZM547 -10Q518 -10 492 -2T440 25T389 74T337
150T282 258L436 294Q451 262 467 237T499 194T531 165T562 148T592 142Q596 142 600 142T609 143L591 -3Q584 -6 569 -8T547 -10ZM326 352Q372 352 405 368T455 415T473 494Q473 515 468 532T450 560T416 578T362 585Q347 585 336 585T315 585T291 584T260 582L224
356Q239 355 254 354T287 353T326 352Z" />
<glyph unicode="S" horiz-adv-x="575" d="M579 673L534 549Q493 565 448 572T353 580Q313 580 286 571T244 545T230 504Q230 484 243 470T279 444T329 421T386 398T444 370T494 332T530 280T543 210Q543 145 511 95T411 18T239 -10Q166 -10 100 2T-21 36L26 161Q64
147 102 138T178 124T255 118Q296 118 323 127T363 154T376 193Q376 214 363 229T328 256T277 278T220 301T162 328T111 366T76 418T62 489Q62 557 96 606T198 682T369 710Q407 710 443 706T513 693T579 673Z" />
<glyph unicode="T" horiz-adv-x="565" d="M598 572H407L317 0H159L250 572H58L81 700H621L598 572Z" />
<glyph unicode="U" horiz-adv-x="645" d="M275 -10Q154 -10 94 34T34 166Q34 177 35 190T39 222L116 700H272L194 216Q186 170 213 146T298 121Q417 121 432 219L509 700H665L588 226Q569 105 493 48T275 -10Z" />
<glyph unicode="V" horiz-adv-x="596" d="M341 0H157L67 700L238 701L278 145Q310 213 338 271T388 378T429 469T459 548T477 616T483 679Q483 685 483 689T482 700H649Q649 694 649 688T649 674Q644 639 635 604T612 527T574 435T519 322T442 180T341 0Z" />
<glyph unicode="W" horiz-adv-x="828" d="M636 0H450L445 440Q412 341 369 229T278 0H100L69 700H234L231 165Q253 220 274 280T314 402T353 528T388 652H564L561 158Q595 246 620 312T663 429T692 522T710 601T719 677Q719 683 719 688T719 700H876Q877 696 877
690T877 679Q876 649 868 610T843 516T798 389T730 219T636 0Z" />
<glyph unicode="X" horiz-adv-x="601" d="M375 -2L292 265Q267 229 244 194T203 126T175 61T163 0H-17Q-16 36 3 78T54 168T124 264T202 363L77 700L257 702L331 446Q358 481 380 514T420 579T447 641T459 701L639 700Q633 670 620 640T587 579T541 513T484 438T417
350L558 1L375 -2Z" />
<glyph unicode="Y" horiz-adv-x="576" d="M169 0L208 243L65 700L242 702L308 366Q342 411 366 450T407 524T436 595T458 670Q461 678 463 686T466 702L640 700Q638 692 636 684T631 666Q618 628 603 592T566 517T516 438T450 348T364 243L324 0H169Z" />
<glyph unicode="Z" horiz-adv-x="570" d="M-22 0L-3 123L393 572H85L107 700H603L583 574L190 128H527L505 0H-22Z" />
<glyph unicode="[" horiz-adv-x="325" d="M119 -98H246L227 -210H-19L134 740H381L362 628H235L119 -98Z" />
<glyph unicode="\" horiz-adv-x="387" d="M193 740L343 -210H227L75 740H193Z" />
<glyph unicode="]" horiz-adv-x="325" d="M-40 -98H85L203 628H76L94 740H341L187 -210H-59L-40 -98Z" />
<glyph unicode="^" horiz-adv-x="492" d="M41 242L246 703H378L440 242H327L288 551L155 242H41Z" />
<glyph unicode="_" horiz-adv-x="722" d="M-65 -187L-44 -64H660L639 -187H-65Z" />
<glyph unicode="`" horiz-adv-x="370" d="M224 596L137 790H281L341 596H224Z" />
<glyph unicode="a" horiz-adv-x="560" d="M436 -10Q414 -10 395 -4T360 14T334 44Q313 27 289 15T238 -3T182 -10Q133 -10 97 11T41 76T21 183Q21 304 58 386T164 511T330 554Q358 554 388 551T446 543T500 532T546 519Q531 426 521 362T504 256T493 192T488 159T486
146Q486 134 491 128T507 122Q511 122 516 122T527 125L519 7Q504 0 482 -5T436 -10ZM331 144L375 422Q362 428 347 430T314 432Q276 432 245 403T195 322T177 208Q177 165 196 143T247 121Q261 121 276 124T305 132T331 144Z" />
<glyph unicode="b" horiz-adv-x="552" d="M275 740L237 505Q274 529 309 541T383 554Q433 554 466 533T516 470T533 367Q534 285 514 216T454 97T356 18T221 -10Q154 -10 100 -1T7 18L122 740H275ZM307 421Q286 421 264 414T221 393L177 118Q189 114 204 111T236
108Q270 108 296 127T341 179T368 251T378 329Q378 375 362 398T307 421Z" />
<glyph unicode="c" horiz-adv-x="475" d="M244 -10Q169 -10 119 14T45 83T21 193Q21 274 40 340T99 455T196 528T330 554Q358 554 386 552T441 545T490 533L448 408Q415 418 386 421T326 424Q292 424 265 408T217 364T187 298T176 219Q176 188 189 166T228 132T287
120Q308 120 327 121T367 126T409 134L420 16Q395 8 366 2T305 -7T244 -10Z" />
<glyph unicode="d" horiz-adv-x="561" d="M436 -10Q413 -10 393 -4T358 14T333 43Q314 28 290 16T238 -3T183 -10Q134 -10 98 10T41 74T20 183Q20 272 41 340T100 456T187 529T295 554Q324 554 348 550T393 539L425 740H578Q575 719 570 683T557 601T541 505T526
404T511 308T498 226T489 168T486 143Q486 133 490 128T506 122Q511 122 516 122T526 125L518 7Q502 -1 479 -5T436 -10ZM245 122Q266 122 289 128T330 144L375 423Q361 428 346 430T312 432Q283 432 258 413T214 361T186 285T175 196Q175 173 184 156T209 131T245
122Z" />
<glyph unicode="e" horiz-adv-x="516" d="M146 299Q166 297 190 299T238 304Q297 314 330 337T363 395Q363 417 351 427T311 438Q272 438 241 412T192 339T173 226Q173 186 184 162T219 128T283 118Q302 118 326 121T378 130T436 148L455 25Q409 7 357 -1T255
-10Q180 -10 128 15T49 90T21 207Q21 281 41 344T100 454T198 527T334 554Q389 554 429 537T492 490T514 416Q514 339 452 286T280 215Q240 209 205 208T137 209L146 299Z" />
<glyph unicode="f" horiz-adv-x="367" d="M2 -220Q-25 -220 -49 -216T-96 -202L-63 -81Q-52 -85 -43 -86T-26 -87Q-9 -87 3 -78T24 -49T37 2L97 384H29L47 493L116 503Q134 627 194 688T348 750Q387 750 422 743T487 723L448 602Q436 607 422 610T394 614T364
616Q325 616 302 591T269 503H391L372 384H250L188 -10Q177 -79 154 -126T92 -196T2 -220Z" />
<glyph unicode="g" horiz-adv-x="554" d="M-14 -179L27 -61Q64 -74 107 -83T189 -92Q224 -92 249 -82T290 -48T312 17L315 44Q295 33 269 25T219 13T177 8Q126 8 91 29T38 88T20 179Q20 260 38 328T94 447T194 526T341 554Q366 554 395 552T452 546T505 536T545
525L466 26Q447 -98 381 -159T199 -220Q141 -220 87 -209T-14 -179ZM375 425Q364 430 351 433T317 436Q285 436 260 417T216 367T187 298T177 220Q177 173 197 151T253 129Q264 129 278 132T306 141T332 153L375 425Z" />
<glyph unicode="h" horiz-adv-x="551" d="M480 143Q480 133 485 128T501 122Q505 122 510 123T521 126L513 6Q496 -1 473 -5T428 -10Q396 -10 372 1T333 34T319 84Q319 93 322 116T329 169T340 233T350 297T358 349T361 378Q361 398 351 410T313 423Q299 423 284
419T252 409T220 394L158 0H4L122 740H276L237 504Q267 521 292 532T343 548T397 554Q441 554 468 540T509 499T523 439Q523 430 520 406T512 351T502 287T491 223T483 171T480 143Z" />
<glyph unicode="i" horiz-adv-x="250" d="M5 0L91 544H244L158 0H5ZM203 766Q242 766 261 751T280 705Q280 673 268 650T232 614T175 601Q136 601 117 616T98 663Q98 693 109 716T143 753T203 766Z" />
<glyph unicode="j" horiz-adv-x="261" d="M214 766Q253 766 272 751T291 705Q291 673 279 650T243 614T187 601Q148 601 129 616T109 663Q110 693 120 716T154 753T214 766ZM256 544L169 3Q157 -71 135 -121T74 -195T-25 -220Q-42 -220 -67 -217T-115 -207L-82
-81Q-72 -85 -63 -86T-46 -87Q-19 -87 -5 -66T15 -4L102 544H256Z" />
<glyph unicode="k" horiz-adv-x="523" d="M5 0L122 740H276L158 0H5ZM433 -10Q406 -10 380 2T328 39T272 102L174 232L205 393L325 248Q362 205 388 182T434 151T473 140Q478 140 483 140T494 141L474 -4Q463 -7 453 -8T433 -10ZM311 249L216 325Q247 349 272
374T319 426T357 485T390 554L547 542Q528 492 493 439T411 337T311 249Z" />
<glyph unicode="l" horiz-adv-x="289" d="M122 740H275L187 187Q186 179 185 172T184 157Q184 149 187 142T197 132T214 128Q225 128 235 130T260 135L253 13Q227 3 196 -3T133 -10Q77 -10 50 16T23 95Q23 107 24 120T28 147L122 740Z" />
<glyph unicode="m" horiz-adv-x="813" d="M689 -10Q657 -10 633 1T595 33T581 85Q581 95 584 118T591 171T601 234T612 297T620 348T623 377Q623 397 612 409T575 422Q555 422 537 415T497 395Q497 391 496 382T495 367Q492 349 489 327T481 278T473 224T464 167T455
110T446 53T437 0H285Q290 30 295 64T306 133T317 202T328 265T336 319T342 357T344 376Q344 390 339 400T324 417T296 423Q279 423 260 416T220 398L158 0H4L90 544H229L222 497Q267 527 307 540T384 554Q429 554 454 537T491 491Q522 513 548 527T601 547T657
554Q701 554 729 540T771 500T785 441Q785 432 782 409T774 356T764 292T753 228T745 176T741 145Q741 134 746 128T762 122Q767 122 772 122T782 125L774 6Q758 -1 735 -5T689 -10Z" />
<glyph unicode="n" horiz-adv-x="551" d="M90 544H230L223 497Q251 516 279 528T337 547T396 554Q458 554 491 523T524 438Q524 429 521 406T512 351T502 287T491 223T483 171T479 143Q479 133 484 128T500 122Q505 122 510 122T520 125L512 6Q496 -1 473 -5T428
-10Q396 -10 372 1T334 33T320 81Q320 93 323 116T330 170T341 234T351 296T359 348T362 378Q362 399 351 411T313 423Q299 423 283 420T252 410T221 395L157 0H4L90 544Z" />
<glyph unicode="o" horiz-adv-x="537" d="M252 -10Q177 -10 127 13T50 83T24 201Q24 248 30 292T50 375T85 447T136 504T204 542T289 555Q360 555 409 532T485 461T512 343Q512 295 505 250T485 166T450 95T401 39T335 3T252 -10ZM250 109Q270 110 286 121T314
151T334 195T348 248T356 305T358 360Q357 400 337 418T285 436Q265 436 249 424T221 393T200 348T186 296T178 241T176 189Q177 146 196 128T250 109Z" />
<glyph unicode="p" horiz-adv-x="552" d="M-28 -210L91 546H230L227 499Q263 523 299 538T381 554Q433 554 466 533T516 469T533 365Q533 288 515 220T462 100T372 20T247 -9Q220 -9 197 -6T158 0L124 -210H-28ZM235 108Q270 108 297 127T342 179T369 251T378
329Q378 377 362 399T309 421Q287 421 264 414T220 393L177 118Q189 113 203 111T235 108Z" />
<glyph unicode="q" horiz-adv-x="552" d="M543 526L425 -210H273L312 38Q279 15 248 3T180 -10Q127 -10 91 11T37 74T18 173Q18 236 30 293T68 398T132 481T220 535T334 554Q373 554 411 550T483 539T543 526ZM373 424Q362 428 347 431T313 434Q285 434 263 421T224
385T196 334T179 273T173 211Q173 178 182 159T207 130T244 121Q266 121 287 128T330 148L373 424Z" />
<glyph unicode="r" horiz-adv-x="388" d="M228 544L218 481Q248 507 273 523T320 546T366 554Q383 554 399 552T431 543L386 395Q369 400 353 402T322 404Q298 404 273 396T215 366L156 0H4L91 544H228Z" />
<glyph unicode="s" horiz-adv-x="450" d="M-19 24L18 140Q40 131 69 124T130 112T187 107Q217 107 235 113T261 129T269 154Q269 170 257 181T224 200T179 216T131 235T86 264T53 307T40 371Q40 415 55 448T101 505T177 541T280 554Q329 554 371 546T445 526L409
410Q388 417 363 422T313 431T266 434Q238 434 221 428T196 412T188 388Q188 373 200 364T233 347T278 332T327 313T372 285T405 243T417 179Q417 137 406 106T373 52T322 17T256 -3T179 -10Q118 -10 71 -1T-19 24Z" />
<glyph unicode="t" horiz-adv-x="370" d="M327 137L319 16Q283 3 249 -3T177 -10Q141 -10 112 1T66 38T49 110Q49 125 51 146T56 188L94 426H24L43 534L116 544L153 660H286L267 544H394L374 425H247L211 199Q209 191 209 185T208 171Q208 149 219 137T258 125Q273
125 289 128T327 137Z" />
<glyph unicode="u" horiz-adv-x="548" d="M154 -10Q89 -10 56 21T22 104Q22 117 24 136T31 185T43 263T62 380T89 544H241Q229 470 221 415T206 321T195 254T187 204T182 165Q182 144 194 132T229 120Q245 120 260 123T290 132T320 147L383 544H535Q517 431 505
358T487 243T477 181T474 155T473 147Q473 133 478 127T493 120Q496 120 501 121T514 124L506 17Q488 4 464 -3T416 -10Q381 -10 356 7T321 53Q293 32 266 18T210 -3T154 -10Z" />
<glyph unicode="v" horiz-adv-x="497" d="M282 -1H99L36 545H198L217 135Q246 193 269 241T309 329T337 405T354 475T362 544H523Q520 504 511 465T487 385T452 301T405 212T349 112T282 -1Z" />
<glyph unicode="w" horiz-adv-x="731" d="M566 0H392L372 341Q361 302 349 260T322 173T295 85T268 0H82L40 545H188L200 132Q221 198 240 262T278 394T315 533H485L497 132Q519 191 536 239T565 329T586 406T600 476T606 544H750Q749 502 741 458T718 365T680
262T630 142T566 0Z" />
<glyph unicode="x" horiz-adv-x="520" d="M385 544H545Q537 515 523 483T489 416T439 344T371 269L477 1L308 -1L249 199Q233 181 219 163T193 125T172 86T156 45T144 0H-19Q-11 38 4 74T41 146T92 216T160 287L61 543L228 548L284 354Q305 379 321 401T350 446T371
492T385 544Z" />
<glyph unicode="y" horiz-adv-x="499" d="M369 546L525 545Q520 499 508 449T476 345T432 238T379 127T318 13T252 -100T182 -213L20 -209Q61 -154 95 -103T157 -1H101L35 546L195 547L228 122Q248 163 266 206T302 291T332 376T354 461T369 546Z" />
<glyph unicode="z" horiz-adv-x="495" d="M-8 0L8 108L292 421H66L85 544H501L480 429L202 122H451L431 0H-8Z" />
<glyph unicode="{" horiz-adv-x="329" d="M26 -90Q26 -51 36 -16T60 52T84 115T95 173Q95 190 88 199T63 209H49L67 324H82Q102 324 113 337T128 370T133 413Q133 439 129 464T125 522Q125 565 135 604T166 674T220 722T301 740H379L361 628H324Q304 628 291 619T269
595T258 562T255 527Q255 507 257 490T260 458T262 424Q262 391 253 361T224 306T175 266Q202 249 212 226T222 177Q222 146 213 118T192 62T171 7T161 -50Q161 -64 165 -75T180 -92T206 -98H245L226 -210H147Q111 -210 84 -198T41 -158T26 -90Z" />
<glyph unicode="|" horiz-adv-x="220" d="M254 790L94 -210H-30L130 790H254Z" />
<glyph unicode="}" horiz-adv-x="329" d="M300 620Q300 578 290 543T265 476T241 416T230 358Q230 342 237 333T262 323H277L258 208H244Q225 208 214 195T197 162T192 120Q192 97 196 69T201 0Q201 -38 191 -75T159 -142T105 -191T25 -210H-53L-35 -97H-2Q18
-97 31 -88T53 -64T64 -31T67 4Q67 25 66 41T62 74T60 108Q60 142 70 172T99 226T147 266Q120 282 110 305T100 354Q100 388 109 416T130 471T151 523T161 580Q161 595 157 605T142 622T115 628H81L99 740H179Q215 740 242 728T285 688T300 620Z" />
<glyph unicode="~" horiz-adv-x="496" d="M433 238Q414 220 391 211T346 201Q314 201 290 214T245 243T200 272T145 285Q125 285 108 280T78 267T55 250L76 381Q82 387 95 395T126 409T166 415Q193 415 215 403T258 374T304 345T362 332Q387 332 409 341T453 368L433
238Z" />
<glyph unicode="&#xa0;" horiz-adv-x="266" />
<glyph unicode="&#xa1;" horiz-adv-x="248" d="M193 285L126 -195H-25L64 285H193ZM242 492Q241 460 231 435T199 395T142 379Q103 379 87 394T70 439Q70 463 76 483T95 518T125 543T170 552Q208 552 225 537T242 492Z" />
<glyph unicode="&#xa2;" horiz-adv-x="639" d="M223 -105L239 0Q198 9 168 30T122 86T106 173Q106 235 120 293T163 402T232 489T327 540L345 649H463L447 552Q471 551 491 548T529 541T567 532L524 395Q502 401 484 405T448 410T410 412Q378 412 352 397T306
355T277 294T267 219Q267 178 292 154T369 130Q387 130 406 132T447 137T492 145L493 16Q466 7 432 2T357 -6L342 -105H223Z" />
<glyph unicode="&#xa3;" horiz-adv-x="640" d="M54 0L69 100Q105 126 132 153T174 212T190 282Q190 312 183 341T168 403T160 471Q160 515 174 552T215 618T275 667T350 699T435 710Q469 710 499 706T557 695T612 675L570 551Q537 563 506 568T440 573Q402 573
373 560T326 519T309 448Q309 423 315 396T327 342T333 292Q333 257 324 229T296 176T254 127H530L510 0H54ZM91 307L105 399H500L486 307H91Z" />
<glyph unicode="&#xa4;" horiz-adv-x="441" d="M88 97L25 181L86 239Q79 259 81 284Q81 304 87 323T104 357L62 415L152 499L200 434Q211 440 223 443T248 446Q261 446 272 443T293 434L363 499L425 415L364 358Q367 348 368 338T369 316Q369 295 363 275T345
239L388 181L299 97L248 163Q238 158 226 156T202 153Q189 153 178 155T158 164L88 97ZM216 243Q232 243 245 251T266 274T276 306Q277 327 266 341T234 355Q219 355 206 346T184 323T174 291Q173 270 184 257T216 243Z" />
<glyph unicode="&#xa5;" horiz-adv-x="640" d="M101 307L114 385H257L124 699L291 701L352 481L481 702L648 700L418 385H564L552 307H405L397 258H544L532 179H386L357 0H195L224 179H82L94 258H236L244 307H101Z" />
<glyph unicode="&#xa6;" horiz-adv-x="222" d="M191 391H68L133 790H256L191 391ZM35 190H159L94 -210H-29L35 190Z" />
<glyph unicode="&#xa7;" horiz-adv-x="507" d="M17 -40Q37 -53 56 -60T94 -68Q112 -68 125 -59T145 -33T152 1Q152 33 142 65T118 134T90 210T65 294T55 390Q55 463 78 528T144 643T249 721T389 750Q409 750 432 748T477 741T518 729L469 584Q457 590 448 593T426
596Q395 596 377 573T358 510Q358 478 368 446T392 380T421 312T445 236T455 151Q455 92 440 37T395 -65T326 -147T234 -201T125 -220Q100 -220 72 -216T16 -202T-36 -181L17 -40ZM330 656Q277 640 243 603T192 516T175 406Q175 368 184 330T206 255T233 182T255
109T264 38Q264 2 252 -32T213 -93T147 -133Q188 -131 222 -110T283 -53T323 27T338 118Q338 156 329 193T307 267T280 342T258 416T248 491Q248 537 266 582T330 656Z" />
<glyph unicode="&#xa8;" horiz-adv-x="426" d="M374 614Q347 614 333 627T322 675Q326 719 345 738T397 758Q425 758 438 744T448 696Q445 653 426 634T374 614ZM185 614Q157 614 144 627T134 673Q137 718 156 738T209 758Q236 758 250 744T260 696Q257 651 238
633T185 614Z" />
<glyph unicode="&#xa9;" horiz-adv-x="701" d="M328 -10Q264 -10 213 7T126 59T70 143T50 260Q50 335 64 402T107 525T178 623T275 688T396 711Q459 711 510 694T598 642T655 558T675 440Q675 366 660 299T617 175T546 77T449 13T328 -10ZM345 149Q280 149 243
188T206 303Q206 379 232 434T304 520T404 551Q432 551 456 547T498 536L475 454Q457 459 440 461T402 464Q378 464 359 452T326 418T305 367T298 306Q298 282 307 265T332 238T371 229Q390 229 411 232T451 242L456 169Q434 161 405 155T345 149ZM334 43Q389 43
433 63T512 120T570 206T605 314T617 436Q617 493 601 534T555 603T483 644T389 658Q334 658 290 638T211 580T153 494T119 386T107 264Q107 208 122 166T167 97T239 57T334 43Z" />
<glyph unicode="&#xaa;" horiz-adv-x="381" d="M29 236L41 315H350L338 236H29ZM388 665Q380 615 374 580T364 521T358 483T354 463T353 455Q353 443 364 443Q366 443 369 443T376 445L372 375Q363 370 344 367T312 364Q291 364 275 370T248 393Q230 380 209 372T162
364Q121 364 93 390T65 471Q65 516 76 555T111 623T171 669T258 686Q282 686 306 684T352 676T388 665ZM163 486Q163 466 174 456T203 445Q213 445 225 448T248 457L272 610Q265 612 257 613T238 614Q224 614 210 601T186 568T170 526T163 486Z" />
<glyph unicode="&#xab;" horiz-adv-x="525" d="M201 4L6 176L39 369L288 537L263 362L113 272L231 173L201 4ZM451 4L256 176L289 369L538 537L513 362L363 272L481 173L451 4Z" />
<glyph unicode="&#xac;" horiz-adv-x="493" d="M56 319L77 445H470L426 171H303L325 319H56Z" />
<glyph unicode="&#xad;" horiz-adv-x="340" d="M34 234L57 371H315L293 234H34Z" />
<glyph unicode="&#xae;" horiz-adv-x="659" d="M338 209Q256 209 199 240T112 332T82 475Q82 549 97 612T140 727T208 816T298 873T408 893Q492 893 549 861T635 770T665 627Q665 554 650 490T607 375T539 286T448 229T338 209ZM343 259Q392 259 433 276T508 325T564
403T599 505T612 627Q612 694 588 742T518 816T403 842Q354 842 313 825T238 776T182 699T147 597T134 475Q134 407 158 359T228 285T343 259ZM223 379L280 734Q316 737 343 738T395 740Q460 740 490 717T521 644Q521 601 506 572T463 528T399 510L363 496Q355
496 349 496T336 497T323 497L304 379H223ZM366 557Q393 557 409 567T432 595T439 637Q439 655 429 663T393 672Q384 672 379 672T367 671T351 670L333 559Q344 558 351 558T366 557ZM474 375Q456 375 440 381T408 402T378 444T350 511L430 531Q440 506 451 491T475
467T497 459Q499 459 501 459T504 459L493 377Q490 376 484 376T474 375Z" />
<glyph unicode="&#xaf;" horiz-adv-x="426" d="M137 627L154 738H435L418 627H137Z" />
<glyph unicode="&#xb0;" horiz-adv-x="323" d="M184 399Q145 399 120 415T83 459T71 520Q71 556 81 591T112 654T162 698T229 715Q269 715 294 699T330 655T341 594Q341 558 331 523T300 460T251 416T184 399ZM197 500Q220 500 234 522T248 572Q248 590 240 601T214
612Q199 612 188 602T171 575T165 540Q165 523 173 512T197 500Z" />
<glyph unicode="&#xb1;" horiz-adv-x="494" d="M403 22H9L30 152H161L182 277H50L71 408H202L224 539H354L333 408H465L444 277H312L292 152H424L403 22Z" />
<glyph unicode="&#xb2;" horiz-adv-x="387" d="M56 369L65 430Q105 451 141 477T204 532T246 588T261 640Q261 659 249 669T215 679Q195 679 174 673T129 654L109 734Q129 746 154 755T206 768T257 773Q283 773 304 767T343 750T369 720T378 678Q378 643 365 612T329
551T277 495T215 441H372L359 369H56Z" />
<glyph unicode="&#xb3;" horiz-adv-x="380" d="M41 396L78 466Q99 455 125 449T181 443Q212 443 234 449T268 468T280 497Q280 511 273 520T248 535T200 540H142L154 605H217Q241 605 258 610T285 625T294 649Q294 669 275 680T221 691Q196 691 168 687T117 676L108
746Q125 755 148 761T197 770T250 774Q320 774 359 746T399 676Q399 636 378 612T323 574Q348 565 363 545T379 493Q379 458 363 434T319 394T256 371T183 364Q144 364 107 371T41 396Z" />
<glyph unicode="&#xb4;" horiz-adv-x="371" d="M154 596L266 790H419L271 596H154Z" />
<glyph unicode="&#xb5;" horiz-adv-x="550" d="M-29 -210L91 544H243Q232 477 224 425T210 332T199 260T191 206T184 164Q183 143 195 132T231 120Q246 120 261 123T291 132T322 147L385 544H537Q519 431 507 358T489 243T479 181T476 155T475 147Q475 133 480
127T495 120Q498 120 503 121T516 124L508 17Q490 4 466 -3T418 -10Q384 -10 360 6T327 48Q306 28 284 15T240 -4T197 -10Q183 -10 174 -6T158 8L123 -210H-29Z" />
<glyph unicode="&#xb6;" horiz-adv-x="605" d="M359 -210L510 740H626L474 -210H359ZM248 312L218 217Q166 226 132 251T80 316T63 408Q63 481 83 542T144 647T244 716T379 740H458L306 -210H191L321 610Q286 609 262 591T221 544T198 481T191 412Q191 384 198
363T218 329T248 312Z" />
<glyph unicode="&#xb7;" horiz-adv-x="230" d="M35 290Q36 318 46 343T79 384T135 400Q172 400 189 384T206 336Q206 314 200 295T182 260T151 235T107 226Q69 226 52 242T35 290Z" />
<glyph unicode="&#xb8;" horiz-adv-x="426" d="M61 -206L81 -109Q89 -113 98 -115T117 -117Q141 -117 157 -103T174 -56Q174 -37 169 -23T152 6L262 7Q273 -9 278 -30T284 -75Q284 -119 265 -152T213 -202T139 -220Q118 -220 100 -217T61 -206Z" />
<glyph unicode="&#xb9;" horiz-adv-x="346" d="M48 370L61 445H160L196 657L101 619L93 703L263 767H321L267 445H353L339 370H48Z" />
<glyph unicode="&#xba;" horiz-adv-x="359" d="M28 236L40 315H331L319 236H28ZM233 686Q276 686 307 675T356 641T374 580Q374 517 355 468T299 392T205 364Q163 364 131 375T82 409T64 470Q64 533 83 581T139 658T233 686ZM232 614Q218 614 206 603T185 572T170
528T164 477Q164 457 174 446T207 435Q221 435 233 447T255 478T270 522T276 572Q276 593 265 603T232 614Z" />
<glyph unicode="&#xbb;" horiz-adv-x="524" d="M11 178L158 273L42 368L73 537L267 369L235 176L-13 4L11 178ZM261 178L408 273L292 368L323 537L517 369L485 176L237 4L261 178Z" />
<glyph unicode="&#xbc;" horiz-adv-x="847" d="M294 562L307 637H406L442 849L347 811L339 895L509 959H567L513 637H599L585 562H294ZM250 -6L145 -4L649 725L754 722L250 -6ZM435 62L445 125L684 398L778 396L735 133H788L777 62H724L713 0H603L614 62H435ZM525
133H627L654 283L525 133Z" />
<glyph unicode="&#xbd;" horiz-adv-x="888" d="M294 562L307 637H406L442 849L347 811L339 895L509 959H567L513 637H599L585 562H294ZM250 -6L145 -4L649 725L754 722L250 -6ZM499 -1L508 60Q548 81 584 107T647 162T689 218T704 270Q704 289 692 299T658 309Q638
309 617 303T572 284L552 364Q572 376 597 385T649 398T700 403Q726 403 747 397T786 380T812 350T821 308Q821 273 808 242T772 181T720 125T658 71H815L802 -1H499Z" />
<glyph unicode="&#xbe;" horiz-adv-x="867" d="M286 588L323 658Q344 647 370 641T426 635Q457 635 479 641T513 660T525 689Q525 703 518 712T493 727T445 732H387L399 797H462Q486 797 503 802T530 817T539 841Q539 861 520 872T466 883Q441 883 413 879T362
868L353 938Q370 947 393 953T442 962T495 966Q565 966 604 938T644 868Q644 828 623 804T568 766Q593 757 608 737T624 685Q624 650 608 626T564 586T501 563T428 556Q389 556 352 563T286 588ZM270 -6L165 -4L669 725L774 722L270 -6ZM454 62L464 125L703 398L797
396L754 133H807L796 62H743L732 0H622L633 62H454ZM544 133H646L673 283L544 133Z" />
<glyph unicode="&#xbf;" horiz-adv-x="439" d="M321 282L302 144Q258 129 228 113T179 80T151 42T142 -2Q142 -22 151 -35T176 -56T216 -63Q251 -63 287 -51T362 -16L387 -143Q357 -164 320 -178T242 -200T162 -208Q123 -208 89 -199T29 -169T-11 -116T-26 -40Q-26
25 0 74T72 158T180 217L191 282H321ZM369 490Q369 458 359 432T326 391T268 376Q231 376 215 391T199 437Q199 468 209 493T242 534T298 549Q336 549 352 534T369 490Z" />
<glyph unicode="&#xc0;" horiz-adv-x="622" d="M-37 0L276 706H477L572 0H401L387 135H190L134 0H-37ZM239 261H380L358 576L239 261ZM339 745L253 931H397L455 745H339Z" />
<glyph unicode="&#xc1;" horiz-adv-x="622" d="M-37 0L276 706H477L572 0H401L387 135H190L134 0H-37ZM239 261H380L358 576L239 261ZM316 745L424 931H575L432 745H316Z" />
<glyph unicode="&#xc2;" horiz-adv-x="622" d="M-37 0L276 706H477L572 0H401L387 135H190L134 0H-37ZM239 261H380L358 576L239 261ZM209 745L330 931H499L557 745H439L401 862L327 745H209Z" />
<glyph unicode="&#xc3;" horiz-adv-x="622" d="M-37 0L276 706H477L572 0H401L387 135H190L134 0H-37ZM239 261H380L358 576L239 261ZM217 756Q217 766 218 777T223 807Q232 862 261 891T343 920Q363 920 379 913T409 895T436 878T465 871Q475 871 481 877T492
890T498 904Q500 912 501 916T502 924H582Q582 914 582 905T579 885Q570 822 540 791T456 759Q436 759 420 766T389 783T362 801T334 808Q322 808 314 799T303 783Q300 775 299 770T297 756H217Z" />
<glyph unicode="&#xc4;" horiz-adv-x="622" d="M-37 0L276 706H477L572 0H401L387 135H190L134 0H-37ZM239 261H380L358 576L239 261ZM479 753Q452 753 438 766T427 814Q431 858 450 877T502 897Q530 897 543 883T553 835Q550 792 531 773T479 753ZM290 753Q262
753 249 766T239 812Q242 857 261 877T314 897Q341 897 355 883T365 835Q362 790 343 772T290 753Z" />
<glyph unicode="&#xc5;" horiz-adv-x="622" d="M-37 0L276 706H477L572 0H401L387 135H190L134 0H-37ZM239 261H380L358 576L239 261ZM390 745Q342 745 316 767T289 829Q289 882 319 912T408 942Q457 942 483 920T509 857Q509 805 479 775T390 745ZM395 809Q413
809 422 820T432 851Q432 877 403 877Q386 877 376 866T366 835Q366 809 395 809Z" />
<glyph unicode="&#xc6;" horiz-adv-x="895" d="M352 0L380 183H235L133 0H-42L362 700H923L900 566H591L567 415H850L829 289H546L521 133H847L826 0H352ZM300 307H399L443 582L300 307Z" />
<glyph unicode="&#xc7;" horiz-adv-x="583" d="M339 -10Q241 -10 174 17T72 100T37 243Q37 350 62 436T134 583T249 677T402 710Q439 710 474 707T543 697T610 675L570 552Q547 559 521 564T468 572T412 576Q361 576 322 553T256 488T215 388T200 265Q200 212
220 182T277 138T369 124Q408 124 444 129T515 142L525 14Q480 2 435 -4T339 -10ZM163 -206L183 -109Q191 -113 200 -115T219 -117Q243 -117 259 -103T276 -56Q276 -37 271 -23T254 6L364 7Q375 -9 380 -30T386 -75Q386 -119 367 -152T315 -202T241 -220Q220 -220
202 -217T163 -206Z" />
<glyph unicode="&#xc8;" horiz-adv-x="561" d="M10 0L121 700H588L567 566H256L232 417H520L498 291H211L187 133H514L492 0H10ZM317 745L231 931H375L433 745H317Z" />
<glyph unicode="&#xc9;" horiz-adv-x="561" d="M10 0L121 700H588L567 566H256L232 417H520L498 291H211L187 133H514L492 0H10ZM294 745L402 931H553L410 745H294Z" />
<glyph unicode="&#xca;" horiz-adv-x="561" d="M10 0L121 700H588L567 566H256L232 417H520L498 291H211L187 133H514L492 0H10ZM187 745L308 931H477L535 745H417L379 862L305 745H187Z" />
<glyph unicode="&#xcb;" horiz-adv-x="561" d="M10 0L121 700H588L567 566H256L232 417H520L498 291H211L187 133H514L492 0H10ZM458 753Q431 753 417 766T406 814Q410 858 429 877T481 897Q509 897 522 883T532 835Q529 792 510 773T458 753ZM269 753Q241 753
228 766T218 812Q221 857 240 877T293 897Q320 897 334 883T344 835Q341 790 322 772T269 753Z" />
<glyph unicode="&#xcc;" horiz-adv-x="266" d="M10 0L122 700H279L167 0H10ZM163 745L77 931H221L279 745H163Z" />
<glyph unicode="&#xcd;" horiz-adv-x="266" d="M10 0L122 700H279L167 0H10ZM140 745L248 931H399L256 745H140Z" />
<glyph unicode="&#xce;" horiz-adv-x="266" d="M10 0L122 700H279L167 0H10ZM33 745L154 931H323L381 745H263L225 862L151 745H33Z" />
<glyph unicode="&#xcf;" horiz-adv-x="266" d="M10 0L122 700H279L167 0H10ZM303 753Q276 753 262 766T251 814Q255 858 274 877T326 897Q354 897 367 883T377 835Q374 792 355 773T303 753ZM114 753Q86 753 73 766T63 812Q66 857 85 877T138 897Q165 897 179
883T189 835Q186 790 167 772T114 753Z" />
<glyph unicode="&#xd0;" horiz-adv-x="665" d="M14 292L35 418H360L338 292H14ZM266 -10Q215 -10 174 -9T95 -5T19 1L131 700Q193 706 245 708T349 710Q408 710 456 699T540 665T601 608T638 529T651 427Q651 325 626 244T551 106T430 20T266 -10ZM282 113Q320
113 352 126T410 166T454 229T481 315T491 423Q491 455 485 481T466 526T436 557T398 576T351 583Q335 583 320 583T292 581T269 579L196 117Q211 116 223 115T249 114T282 113Z" />
<glyph unicode="&#xd1;" horiz-adv-x="645" d="M10 0L122 701H269L445 250L518 700H659L546 -1H400L220 434L150 0H10ZM231 756Q231 766 232 777T237 807Q246 862 275 891T357 920Q377 920 393 913T423 895T450 878T479 871Q489 871 495 877T506 890T512 904Q514
912 515 916T516 924H596Q596 914 596 905T593 885Q584 822 554 791T470 759Q450 759 434 766T403 783T376 801T348 808Q336 808 328 799T317 783Q314 775 313 770T311 756H231Z" />
<glyph unicode="&#xd2;" horiz-adv-x="668" d="M306 -7Q176 -7 108 68T42 285Q43 347 53 401T83 503T131 587T198 651T282 692T384 707Q515 707 583 632T649 415Q648 354 638 299T608 197T560 113T493 49T409 8T306 -7ZM319 125Q349 125 372 137T415 170T447 220T470
282T483 352T488 424Q488 510 457 542T372 575Q343 575 319 563T276 530T243 480T220 418T207 348T203 275Q203 190 234 158T319 125ZM359 745L273 931H417L475 745H359Z" />
<glyph unicode="&#xd3;" horiz-adv-x="668" d="M306 -7Q176 -7 108 68T42 285Q43 347 53 401T83 503T131 587T198 651T282 692T384 707Q515 707 583 632T649 415Q648 354 638 299T608 197T560 113T493 49T409 8T306 -7ZM319 125Q349 125 372 137T415 170T447 220T470
282T483 352T488 424Q488 510 457 542T372 575Q343 575 319 563T276 530T243 480T220 418T207 348T203 275Q203 190 234 158T319 125ZM336 745L444 931H595L452 745H336Z" />
<glyph unicode="&#xd4;" horiz-adv-x="668" d="M306 -7Q176 -7 108 68T42 285Q43 347 53 401T83 503T131 587T198 651T282 692T384 707Q515 707 583 632T649 415Q648 354 638 299T608 197T560 113T493 49T409 8T306 -7ZM319 125Q349 125 372 137T415 170T447 220T470
282T483 352T488 424Q488 510 457 542T372 575Q343 575 319 563T276 530T243 480T220 418T207 348T203 275Q203 190 234 158T319 125ZM229 745L350 931H519L577 745H459L421 862L347 745H229Z" />
<glyph unicode="&#xd5;" horiz-adv-x="668" d="M306 -7Q176 -7 108 68T42 285Q43 347 53 401T83 503T131 587T198 651T282 692T384 707Q515 707 583 632T649 415Q648 354 638 299T608 197T560 113T493 49T409 8T306 -7ZM319 125Q349 125 372 137T415 170T447 220T470
282T483 352T488 424Q488 510 457 542T372 575Q343 575 319 563T276 530T243 480T220 418T207 348T203 275Q203 190 234 158T319 125ZM238 756Q238 766 239 777T244 807Q253 862 282 891T364 920Q384 920 400 913T430 895T457 878T486 871Q496 871 502 877T513
890T519 904Q521 912 522 916T523 924H603Q603 914 603 905T600 885Q591 822 561 791T477 759Q457 759 441 766T410 783T383 801T355 808Q343 808 335 799T324 783Q321 775 320 770T318 756H238Z" />
<glyph unicode="&#xd6;" horiz-adv-x="668" d="M306 -7Q176 -7 108 68T42 285Q43 347 53 401T83 503T131 587T198 651T282 692T384 707Q515 707 583 632T649 415Q648 354 638 299T608 197T560 113T493 49T409 8T306 -7ZM319 125Q349 125 372 137T415 170T447 220T470
282T483 352T488 424Q488 510 457 542T372 575Q343 575 319 563T276 530T243 480T220 418T207 348T203 275Q203 190 234 158T319 125ZM500 753Q473 753 459 766T448 814Q452 858 471 877T523 897Q551 897 564 883T574 835Q571 792 552 773T500 753ZM311 753Q283
753 270 766T260 812Q263 857 282 877T335 897Q362 897 376 883T386 835Q383 790 364 772T311 753Z" />
<glyph unicode="&#xd7;" horiz-adv-x="454" d="M102 112L31 203L150 320L71 436L166 530L249 410L367 528L437 435L322 318L398 205L303 110L222 230L102 112Z" />
<glyph unicode="&#xd8;" horiz-adv-x="667" d="M713 714L561 533L557 534L193 101L189 102L94 -9H-23L130 172L134 171L503 609L507 608L597 714H713ZM307 -7Q176 -7 108 69T42 286Q43 349 54 404T84 506T133 590T200 653T284 693T385 707Q516 707 584 631T649
414Q648 351 638 296T607 194T558 110T491 47T407 7T307 -7ZM319 120Q345 120 368 131T411 162T445 209T471 271T487 345T493 428Q493 509 461 544T375 580Q348 580 325 570T281 541T246 495T220 433T204 359T198 272Q198 191 230 156T319 120Z" />
<glyph unicode="&#xd9;" horiz-adv-x="645" d="M275 -10Q154 -10 94 34T34 166Q34 177 35 190T39 222L116 700H272L194 216Q186 170 213 146T298 121Q417 121 432 219L509 700H665L588 226Q569 105 493 48T275 -10ZM352 745L266 931H410L468 745H352Z" />
<glyph unicode="&#xda;" horiz-adv-x="645" d="M275 -10Q154 -10 94 34T34 166Q34 177 35 190T39 222L116 700H272L194 216Q186 170 213 146T298 121Q417 121 432 219L509 700H665L588 226Q569 105 493 48T275 -10ZM329 745L437 931H588L445 745H329Z" />
<glyph unicode="&#xdb;" horiz-adv-x="645" d="M275 -10Q154 -10 94 34T34 166Q34 177 35 190T39 222L116 700H272L194 216Q186 170 213 146T298 121Q417 121 432 219L509 700H665L588 226Q569 105 493 48T275 -10ZM222 745L343 931H512L570 745H452L414 862L340
745H222Z" />
<glyph unicode="&#xdc;" horiz-adv-x="645" d="M275 -10Q154 -10 94 34T34 166Q34 177 35 190T39 222L116 700H272L194 216Q186 170 213 146T298 121Q417 121 432 219L509 700H665L588 226Q569 105 493 48T275 -10ZM492 753Q465 753 451 766T440 814Q444 858 463
877T515 897Q543 897 556 883T566 835Q563 792 544 773T492 753ZM303 753Q275 753 262 766T252 812Q255 857 274 877T327 897Q354 897 368 883T378 835Q375 790 356 772T303 753Z" />
<glyph unicode="&#xdd;" horiz-adv-x="576" d="M169 0L208 243L65 700L242 702L308 366Q342 411 366 450T407 524T436 595T458 670Q461 678 463 686T466 702L640 700Q638 692 636 684T631 666Q618 628 603 592T566 517T516 438T450 348T364 243L324 0H169ZM298
745L406 931H557L414 745H298Z" />
<glyph unicode="&#xde;" horiz-adv-x="633" d="M10 0L122 700H280L268 625Q291 625 307 626T337 627T359 627Q433 627 484 613T568 572T614 506T628 416Q628 340 608 283T547 186T445 128T302 109Q284 109 268 109T233 110T186 113L167 0H10ZM294 237Q339 237
371 247T426 276T458 326T468 396Q468 425 457 448T421 485T351 499Q339 499 329 499T308 498T283 496T247 494L207 241Q227 240 240 239T266 238T294 237Z" />
<glyph unicode="&#xdf;" horiz-adv-x="677" d="M34 -7L96 383H25L44 492L116 503L118 520Q131 597 167 648T268 724T427 750Q534 750 591 710T649 595Q649 552 637 522T598 472T529 439Q491 427 470 418T441 399T433 377Q433 364 441 356T473 339T536 318Q578
306 605 287T646 240T660 174Q660 113 633 73T551 11T413 -10Q379 -10 347 -6T286 5T231 22L263 133Q286 125 313 120T368 111T421 107Q462 107 486 121T511 159Q511 171 504 180T477 198T422 217Q379 230 350 248T306 293T291 360Q291 426 324 462T420 521Q455
532 473 542T498 562T505 585Q505 598 497 607T470 620T421 625Q376 625 344 611T292 569T265 497L183 -21Q168 -119 125 -169T4 -220Q-23 -220 -48 -216T-96 -202L-62 -80Q-51 -84 -42 -85T-24 -86Q0 -86 14 -66T34 -7Z" />
<glyph unicode="&#xe0;" horiz-adv-x="560" d="M436 -10Q414 -10 395 -4T360 14T334 44Q313 27 289 15T238 -3T182 -10Q133 -10 97 11T41 76T21 183Q21 304 58 386T164 511T330 554Q358 554 388 551T446 543T500 532T546 519Q531 426 521 362T504 256T493 192T488
159T486 146Q486 134 491 128T507 122Q511 122 516 122T527 125L519 7Q504 0 482 -5T436 -10ZM331 144L375 422Q362 428 347 430T314 432Q276 432 245 403T195 322T177 208Q177 165 196 143T247 121Q261 121 276 124T305 132T331 144ZM288 596L201 790H345L405
596H288Z" />
<glyph unicode="&#xe1;" horiz-adv-x="560" d="M436 -10Q414 -10 395 -4T360 14T334 44Q313 27 289 15T238 -3T182 -10Q133 -10 97 11T41 76T21 183Q21 304 58 386T164 511T330 554Q358 554 388 551T446 543T500 532T546 519Q531 426 521 362T504 256T493 192T488
159T486 146Q486 134 491 128T507 122Q511 122 516 122T527 125L519 7Q504 0 482 -5T436 -10ZM331 144L375 422Q362 428 347 430T314 432Q276 432 245 403T195 322T177 208Q177 165 196 143T247 121Q261 121 276 124T305 132T331 144ZM259 596L371 790H524L376
596H259Z" />
<glyph unicode="&#xe2;" horiz-adv-x="560" d="M436 -10Q414 -10 395 -4T360 14T334 44Q313 27 289 15T238 -3T182 -10Q133 -10 97 11T41 76T21 183Q21 304 58 386T164 511T330 554Q358 554 388 551T446 543T500 532T546 519Q531 426 521 362T504 256T493 192T488
159T486 146Q486 134 491 128T507 122Q511 122 516 122T527 125L519 7Q504 0 482 -5T436 -10ZM331 144L375 422Q362 428 347 430T314 432Q276 432 245 403T195 322T177 208Q177 165 196 143T247 121Q261 121 276 124T305 132T331 144ZM154 596L280 790H447L507
596H386L349 713L276 596H154Z" />
<glyph unicode="&#xe3;" horiz-adv-x="560" d="M436 -10Q414 -10 395 -4T360 14T334 44Q313 27 289 15T238 -3T182 -10Q133 -10 97 11T41 76T21 183Q21 304 58 386T164 511T330 554Q358 554 388 551T446 543T500 532T546 519Q531 426 521 362T504 256T493 192T488
159T486 146Q486 134 491 128T507 122Q511 122 516 122T527 125L519 7Q504 0 482 -5T436 -10ZM331 144L375 422Q362 428 347 430T314 432Q276 432 245 403T195 322T177 208Q177 165 196 143T247 121Q261 121 276 124T305 132T331 144ZM161 599Q161 609 162 620T167
650Q176 705 205 734T287 763Q307 763 323 756T353 738T380 721T409 714Q419 714 425 720T436 733T442 747Q444 755 445 759T446 767H526Q526 757 526 748T523 728Q514 665 484 634T400 602Q380 602 364 609T333 626T306 644T278 651Q266 651 258 642T247 626Q244
618 243 613T241 599H161Z" />
<glyph unicode="&#xe4;" horiz-adv-x="560" d="M436 -10Q414 -10 395 -4T360 14T334 44Q313 27 289 15T238 -3T182 -10Q133 -10 97 11T41 76T21 183Q21 304 58 386T164 511T330 554Q358 554 388 551T446 543T500 532T546 519Q531 426 521 362T504 256T493 192T488
159T486 146Q486 134 491 128T507 122Q511 122 516 122T527 125L519 7Q504 0 482 -5T436 -10ZM331 144L375 422Q362 428 347 430T314 432Q276 432 245 403T195 322T177 208Q177 165 196 143T247 121Q261 121 276 124T305 132T331 144ZM427 614Q400 614 386 627T375
675Q379 719 398 738T450 758Q478 758 491 744T501 696Q498 653 479 634T427 614ZM238 614Q210 614 197 627T187 673Q190 718 209 738T262 758Q289 758 303 744T313 696Q310 651 291 633T238 614Z" />
<glyph unicode="&#xe5;" horiz-adv-x="560" d="M436 -10Q414 -10 395 -4T360 14T334 44Q313 27 289 15T238 -3T182 -10Q133 -10 97 11T41 76T21 183Q21 304 58 386T164 511T330 554Q358 554 388 551T446 543T500 532T546 519Q531 426 521 362T504 256T493 192T488
159T486 146Q486 134 491 128T507 122Q511 122 516 122T527 125L519 7Q504 0 482 -5T436 -10ZM331 144L375 422Q362 428 347 430T314 432Q276 432 245 403T195 322T177 208Q177 165 196 143T247 121Q261 121 276 124T305 132T331 144ZM337 596Q289 596 263 618T236
680Q236 733 266 763T355 793Q404 793 430 771T456 708Q456 656 426 626T337 596ZM342 660Q360 660 369 671T379 702Q379 728 350 728Q333 728 323 717T313 686Q313 660 342 660Z" />
<glyph unicode="&#xe6;" horiz-adv-x="829" d="M174 -10Q102 -10 61 37T19 176Q19 259 37 328T91 447T175 526T284 554Q314 554 340 546T386 521L391 550H527L518 492Q545 522 585 538T672 554Q744 554 783 519T823 421Q823 343 763 288T592 216Q552 210 515 208T446
209L453 297Q477 296 500 297T548 303Q608 316 640 339T672 396Q672 418 659 428T617 438Q586 438 561 421T519 373T491 304T481 223Q481 187 495 163T538 128T608 116Q630 116 653 119T701 129T754 146L770 26Q745 14 717 7T661 -5T603 -9Q549 -9 511 10T451 62L441
-2H303L311 39Q289 23 267 12T222 -4T174 -10ZM246 109Q266 109 286 115T325 132L370 421Q357 430 343 433T313 436Q287 436 263 418T219 367T188 291T176 199Q176 167 185 148T210 119T246 109Z" />
<glyph unicode="&#xe7;" horiz-adv-x="475" d="M244 -10Q169 -10 119 14T45 83T21 193Q21 274 40 340T99 455T196 528T330 554Q358 554 386 552T441 545T490 533L448 408Q415 418 386 421T326 424Q292 424 265 408T217 364T187 298T176 219Q176 188 189 166T228
132T287 120Q308 120 327 121T367 126T409 134L420 16Q395 8 366 2T305 -7T244 -10ZM100 -206L120 -109Q128 -113 137 -115T156 -117Q180 -117 196 -103T213 -56Q213 -37 208 -23T191 6L301 7Q312 -9 317 -30T323 -75Q323 -119 304 -152T252 -202T178 -220Q157
-220 139 -217T100 -206Z" />
<glyph unicode="&#xe8;" horiz-adv-x="515" d="M146 299Q166 297 190 299T238 304Q297 314 330 337T363 395Q363 417 351 427T311 438Q272 438 241 412T192 339T173 226Q173 186 184 162T219 128T283 118Q302 118 326 121T378 130T436 148L455 25Q409 7 357 -1T255
-10Q180 -10 128 15T49 90T21 207Q21 281 41 344T100 454T198 527T334 554Q389 554 429 537T492 490T514 416Q514 339 452 286T280 215Q240 209 205 208T137 209L146 299ZM285 596L198 790H342L402 596H285Z" />
<glyph unicode="&#xe9;" horiz-adv-x="515" d="M146 299Q166 297 190 299T238 304Q297 314 330 337T363 395Q363 417 351 427T311 438Q272 438 241 412T192 339T173 226Q173 186 184 162T219 128T283 118Q302 118 326 121T378 130T436 148L455 25Q409 7 357 -1T255
-10Q180 -10 128 15T49 90T21 207Q21 281 41 344T100 454T198 527T334 554Q389 554 429 537T492 490T514 416Q514 339 452 286T280 215Q240 209 205 208T137 209L146 299ZM256 596L368 790H521L373 596H256Z" />
<glyph unicode="&#xea;" horiz-adv-x="515" d="M146 299Q166 297 190 299T238 304Q297 314 330 337T363 395Q363 417 351 427T311 438Q272 438 241 412T192 339T173 226Q173 186 184 162T219 128T283 118Q302 118 326 121T378 130T436 148L455 25Q409 7 357 -1T255
-10Q180 -10 128 15T49 90T21 207Q21 281 41 344T100 454T198 527T334 554Q389 554 429 537T492 490T514 416Q514 339 452 286T280 215Q240 209 205 208T137 209L146 299ZM151 596L277 790H444L504 596H383L346 713L273 596H151Z" />
<glyph unicode="&#xeb;" horiz-adv-x="515" d="M146 299Q166 297 190 299T238 304Q297 314 330 337T363 395Q363 417 351 427T311 438Q272 438 241 412T192 339T173 226Q173 186 184 162T219 128T283 118Q302 118 326 121T378 130T436 148L455 25Q409 7 357 -1T255
-10Q180 -10 128 15T49 90T21 207Q21 281 41 344T100 454T198 527T334 554Q389 554 429 537T492 490T514 416Q514 339 452 286T280 215Q240 209 205 208T137 209L146 299ZM424 614Q397 614 383 627T372 675Q376 719 395 738T447 758Q475 758 488 744T498 696Q495
653 476 634T424 614ZM235 614Q207 614 194 627T184 673Q187 718 206 738T259 758Q286 758 300 744T310 696Q307 651 288 633T235 614Z" />
<glyph unicode="&#xec;" horiz-adv-x="249" d="M158 0H4L91 544H244L158 0ZM133 596L46 790H190L250 596H133Z" />
<glyph unicode="&#xed;" horiz-adv-x="249" d="M158 0H4L91 544H244L158 0ZM104 596L216 790H369L221 596H104Z" />
<glyph unicode="&#xee;" horiz-adv-x="249" d="M158 0H4L91 544H244L158 0ZM-1 596L125 790H292L352 596H231L194 713L121 596H-1Z" />
<glyph unicode="&#xef;" horiz-adv-x="249" d="M158 0H4L91 544H244L158 0ZM272 614Q245 614 231 627T220 675Q224 719 243 738T295 758Q323 758 336 744T346 696Q343 653 324 634T272 614ZM83 614Q55 614 42 627T32 673Q35 718 54 738T107 758Q134 758 148 744T158
696Q155 651 136 633T83 614Z" />
<glyph unicode="&#xf0;" horiz-adv-x="554" d="M409 389Q388 404 366 412T319 420Q292 420 269 409T228 377T197 328T177 267T170 196Q170 174 174 157T188 127T211 108T243 102Q268 102 287 113T323 150T354 224T381 346Q388 387 390 420T393 482Q393 538 373
573T307 626T188 643Q161 643 142 641T109 637T78 631L80 728Q110 734 142 739T211 745Q289 745 351 728T457 676T524 585T547 452Q547 422 544 389T535 319Q520 229 494 167T429 65T343 9T233 -9Q188 -9 149 2T81 40T35 107T18 207Q18 260 29 308T63 396T119 466T196
512T293 528Q316 528 340 525T387 514T429 494L409 389ZM219 549H82L332 682L330 686L447 747L587 746L396 647L398 643L219 549Z" />
<glyph unicode="&#xf1;" horiz-adv-x="551" d="M90 544H230L223 497Q251 516 279 528T337 547T396 554Q458 554 491 523T524 438Q524 429 521 406T512 351T502 287T491 223T483 171T479 143Q479 133 484 128T500 122Q505 122 510 122T520 125L512 6Q496 -1 473
-5T428 -10Q396 -10 372 1T334 33T320 81Q320 93 323 116T330 170T341 234T351 296T359 348T362 378Q362 399 351 411T313 423Q299 423 283 420T252 410T221 395L157 0H4L90 544ZM152 599Q152 609 153 620T158 650Q167 705 196 734T278 763Q298 763 314 756T344
738T371 721T400 714Q410 714 416 720T427 733T433 747Q435 755 436 759T437 767H517Q517 757 517 748T514 728Q505 665 475 634T391 602Q371 602 355 609T324 626T297 644T269 651Q257 651 249 642T238 626Q235 618 234 613T232 599H152Z" />
<glyph unicode="&#xf2;" horiz-adv-x="544" d="M252 -10Q177 -10 127 13T50 83T24 201Q24 248 30 292T50 375T85 447T136 504T204 542T289 555Q360 555 409 532T485 461T512 343Q512 295 505 250T485 166T450 95T401 39T335 3T252 -10ZM250 109Q270 110 286 121T314
151T334 195T348 248T356 305T358 360Q357 400 337 418T285 436Q265 436 249 424T221 393T200 348T186 296T178 241T176 189Q177 146 196 128T250 109ZM271 596L184 790H328L388 596H271Z" />
<glyph unicode="&#xf3;" horiz-adv-x="544" d="M252 -10Q177 -10 127 13T50 83T24 201Q24 248 30 292T50 375T85 447T136 504T204 542T289 555Q360 555 409 532T485 461T512 343Q512 295 505 250T485 166T450 95T401 39T335 3T252 -10ZM250 109Q270 110 286 121T314
151T334 195T348 248T356 305T358 360Q357 400 337 418T285 436Q265 436 249 424T221 393T200 348T186 296T178 241T176 189Q177 146 196 128T250 109ZM242 596L354 790H507L359 596H242Z" />
<glyph unicode="&#xf4;" horiz-adv-x="544" d="M252 -10Q177 -10 127 13T50 83T24 201Q24 248 30 292T50 375T85 447T136 504T204 542T289 555Q360 555 409 532T485 461T512 343Q512 295 505 250T485 166T450 95T401 39T335 3T252 -10ZM250 109Q270 110 286 121T314
151T334 195T348 248T356 305T358 360Q357 400 337 418T285 436Q265 436 249 424T221 393T200 348T186 296T178 241T176 189Q177 146 196 128T250 109ZM137 596L263 790H430L490 596H369L332 713L259 596H137Z" />
<glyph unicode="&#xf5;" horiz-adv-x="544" d="M252 -10Q177 -10 127 13T50 83T24 201Q24 248 30 292T50 375T85 447T136 504T204 542T289 555Q360 555 409 532T485 461T512 343Q512 295 505 250T485 166T450 95T401 39T335 3T252 -10ZM250 109Q270 110 286 121T314
151T334 195T348 248T356 305T358 360Q357 400 337 418T285 436Q265 436 249 424T221 393T200 348T186 296T178 241T176 189Q177 146 196 128T250 109ZM144 599Q144 609 145 620T150 650Q159 705 188 734T270 763Q290 763 306 756T336 738T363 721T392 714Q402
714 408 720T419 733T425 747Q427 755 428 759T429 767H509Q509 757 509 748T506 728Q497 665 467 634T383 602Q363 602 347 609T316 626T289 644T261 651Q249 651 241 642T230 626Q227 618 226 613T224 599H144Z" />
<glyph unicode="&#xf6;" horiz-adv-x="544" d="M252 -10Q177 -10 127 13T50 83T24 201Q24 248 30 292T50 375T85 447T136 504T204 542T289 555Q360 555 409 532T485 461T512 343Q512 295 505 250T485 166T450 95T401 39T335 3T252 -10ZM250 109Q270 110 286 121T314
151T334 195T348 248T356 305T358 360Q357 400 337 418T285 436Q265 436 249 424T221 393T200 348T186 296T178 241T176 189Q177 146 196 128T250 109ZM410 614Q383 614 369 627T358 675Q362 719 381 738T433 758Q461 758 474 744T484 696Q481 653 462 634T410
614ZM221 614Q193 614 180 627T170 673Q173 718 192 738T245 758Q272 758 286 744T296 696Q293 651 274 633T221 614Z" />
<glyph unicode="&#xf7;" horiz-adv-x="494" d="M149 103Q150 130 159 149T188 178T234 188Q266 188 281 176T296 139Q295 94 273 74T211 54Q179 54 164 66T149 103ZM212 491Q213 517 222 536T250 566T296 577Q329 577 344 565T358 527Q358 482 336 462T274 442Q241
442 227 454T212 491ZM46 250L67 381H462L440 250H46Z" />
<glyph unicode="&#xf8;" horiz-adv-x="537" d="M460 555H556L434 410L431 413L160 78L156 81L80 -10H-15L114 144L117 140L387 474L390 471L460 555ZM254 -10Q180 -10 130 13T53 84T27 203Q27 249 33 293T53 376T88 448T138 505T206 542T292 555Q362 555 411 532T487
461T514 341Q514 293 508 249T488 165T454 94T404 38T338 3T254 -10ZM255 108Q274 108 290 118T318 146T340 187T355 239T363 297T364 358Q363 398 342 418T286 437Q266 437 249 426T220 396T199 353T185 300T177 243T175 186Q177 145 198 126T255 108Z" />
<glyph unicode="&#xf9;" horiz-adv-x="548" d="M154 -10Q89 -10 56 21T22 104Q22 117 24 136T31 185T43 263T62 380T89 544H241Q229 470 221 415T206 321T195 254T187 204T182 165Q182 144 194 132T229 120Q245 120 260 123T290 132T320 147L383 544H535Q517 431
505 358T487 243T477 181T474 155T473 147Q473 133 478 127T493 120Q496 120 501 121T514 124L506 17Q488 4 464 -3T416 -10Q381 -10 356 7T321 53Q293 32 266 18T210 -3T154 -10ZM277 596L190 790H334L394 596H277Z" />
<glyph unicode="&#xfa;" horiz-adv-x="548" d="M154 -10Q89 -10 56 21T22 104Q22 117 24 136T31 185T43 263T62 380T89 544H241Q229 470 221 415T206 321T195 254T187 204T182 165Q182 144 194 132T229 120Q245 120 260 123T290 132T320 147L383 544H535Q517 431
505 358T487 243T477 181T474 155T473 147Q473 133 478 127T493 120Q496 120 501 121T514 124L506 17Q488 4 464 -3T416 -10Q381 -10 356 7T321 53Q293 32 266 18T210 -3T154 -10ZM248 596L360 790H513L365 596H248Z" />
<glyph unicode="&#xfb;" horiz-adv-x="548" d="M154 -10Q89 -10 56 21T22 104Q22 117 24 136T31 185T43 263T62 380T89 544H241Q229 470 221 415T206 321T195 254T187 204T182 165Q182 144 194 132T229 120Q245 120 260 123T290 132T320 147L383 544H535Q517 431
505 358T487 243T477 181T474 155T473 147Q473 133 478 127T493 120Q496 120 501 121T514 124L506 17Q488 4 464 -3T416 -10Q381 -10 356 7T321 53Q293 32 266 18T210 -3T154 -10ZM143 596L269 790H436L496 596H375L338 713L265 596H143Z" />
<glyph unicode="&#xfc;" horiz-adv-x="548" d="M154 -10Q89 -10 56 21T22 104Q22 117 24 136T31 185T43 263T62 380T89 544H241Q229 470 221 415T206 321T195 254T187 204T182 165Q182 144 194 132T229 120Q245 120 260 123T290 132T320 147L383 544H535Q517 431
505 358T487 243T477 181T474 155T473 147Q473 133 478 127T493 120Q496 120 501 121T514 124L506 17Q488 4 464 -3T416 -10Q381 -10 356 7T321 53Q293 32 266 18T210 -3T154 -10ZM416 614Q389 614 375 627T364 675Q368 719 387 738T439 758Q467 758 480 744T490
696Q487 653 468 634T416 614ZM227 614Q199 614 186 627T176 673Q179 718 198 738T251 758Q278 758 292 744T302 696Q299 651 280 633T227 614Z" />
<glyph unicode="&#xfd;" horiz-adv-x="496" d="M369 546L525 545Q520 499 508 449T476 345T432 238T379 127T318 13T252 -100T182 -213L20 -209Q61 -154 95 -103T157 -1H101L35 546L195 547L228 122Q248 163 266 206T302 291T332 376T354 461T369 546ZM218 596L330
790H483L335 596H218Z" />
<glyph unicode="&#xfe;" horiz-adv-x="552" d="M-28 -210L122 740H274L236 499Q268 522 303 538T388 554Q460 554 497 506T534 365Q534 288 516 220T462 100T372 20T247 -9Q220 -9 198 -6T158 0L124 -210H-28ZM235 110Q270 110 297 129T342 179T369 249T378 326Q378
375 362 397T309 419Q287 419 264 412T220 391L177 119Q189 115 203 113T235 110Z" />
<glyph unicode="&#xff;" horiz-adv-x="496" d="M369 546L525 545Q520 499 508 449T476 345T432 238T379 127T318 13T252 -100T182 -213L20 -209Q61 -154 95 -103T157 -1H101L35 546L195 547L228 122Q248 163 266 206T302 291T332 376T354 461T369 546ZM386 614Q359
614 345 627T334 675Q338 719 357 738T409 758Q437 758 450 744T460 696Q457 653 438 634T386 614ZM197 614Q169 614 156 627T146 673Q149 718 168 738T221 758Q248 758 262 744T272 696Q269 651 250 633T197 614Z" />
<glyph unicode="&#x2013;" horiz-adv-x="408" d="M14 240L35 364H403L382 240H14Z" />
<glyph unicode="&#x2014;" horiz-adv-x="737" d="M10 240L31 364H735L715 240H10Z" />
<glyph unicode="&#x2018;" horiz-adv-x="213" d="M54 430Q61 486 73 532T104 620T150 700L260 685Q239 640 225 601T203 521T189 430H54Z" />
<glyph unicode="&#x2019;" horiz-adv-x="213" d="M251 700Q244 644 232 598T201 510T154 430L45 445Q66 490 79 529T102 610T116 700H251Z" />
<glyph unicode="&#x201a;" horiz-adv-x="213" d="M141 50Q134 -6 122 -52T91 -140T44 -220L-65 -205Q-44 -160 -31 -121T-8 -40T6 50H141Z" />
<glyph unicode="&#x201c;" horiz-adv-x="402" d="M54 430Q61 486 73 532T104 620T150 700L260 685Q239 640 225 601T203 521T189 430H54ZM243 430Q250 486 262 532T293 620T339 700L449 685Q428 640 414 601T392 521T378 430H243Z" />
<glyph unicode="&#x201d;" horiz-adv-x="402" d="M251 700Q244 644 232 598T201 510T154 430L45 445Q66 490 79 529T102 610T116 700H251ZM440 700Q433 644 421 598T390 510T343 430L234 445Q255 490 268 529T291 610T305 700H440Z" />
<glyph unicode="&#x201e;" horiz-adv-x="402" d="M141 50Q134 -6 122 -52T91 -140T44 -220L-65 -205Q-44 -160 -31 -121T-8 -40T6 50H141ZM330 50Q323 -6 311 -52T280 -140T233 -220L124 -205Q145 -160 158 -121T181 -40T195 50H330Z" />
<glyph unicode="&#x2022;" horiz-adv-x="385" d="M174 170Q141 170 115 186T73 230T58 293Q58 338 79 377T138 442T223 467Q258 467 283 451T324 406T339 342Q339 299 318 260T259 195T174 170Z" />
<glyph unicode="&#x2039;" horiz-adv-x="276" d="M201 4L6 176L39 369L288 537L263 362L113 272L231 173L201 4Z" />
<glyph unicode="&#x203a;" horiz-adv-x="275" d="M11 178L158 273L42 368L73 537L267 369L235 176L-13 4L11 178Z" />
</font>
</defs>
</svg>
