<?xml version="1.0" standalone="no"?>
<!DOCTYPE svg PUBLIC "-//W3C//DTD SVG 1.1//EN" "http://www.w3.org/Graphics/SVG/1.1/DTD/svg11.dtd">
<svg xmlns="http://www.w3.org/2000/svg">
<defs >
<font id="Georama" horiz-adv-x="519" ><font-face
    font-family="Georama ExtraCondensed Thin"
    units-per-em="1000"
    panose-1="2 11 0 0 3 2 0 2 0 4"
    ascent="968"
    descent="-226"
    alphabetic="0" />
<glyph unicode=" " horiz-adv-x="266" />
<glyph unicode="!" horiz-adv-x="254" d="M58 260L46 740H210L198 260H58ZM38 79Q38 123 58 144T127 166Q176 166 196 145T216 79Q216 35 196 14T127 -7Q79 -7 59 14T38 79Z" />
<glyph unicode="&quot;" horiz-adv-x="409" d="M40 427L33 700H179L171 427H40ZM236 427L229 700H375L367 427H236Z" />
<glyph unicode="#" horiz-adv-x="639" d="M72 424V543H158L181 700H326L303 543H392L414 700H559L537 543H592V424H522L498 271H568V153H483L461 0H316L337 153H249L227 0H82L104 153H48V271H119L143 424H72ZM289 424L264 271H352L377 424H289Z" />
<glyph unicode="$" horiz-adv-x="640" d="M289 -10Q257 -10 225 -7T160 3T98 17T42 35L73 162Q102 152 133 144T195 131T255 123T312 120Q371 120 398 136T426 184Q426 203 415 217T379 244T319 268T235 295Q182 314 143 342T83 410T62 506Q62 574 95 619T190
687T337 710Q379 710 420 706T498 693T565 675L536 547Q509 557 476 563T409 572T342 576Q285 576 259 561T232 514Q232 495 241 481T270 455T320 433T393 410Q457 392 503 365T573 297T597 196Q597 139 574 99T510 35T412 0T289 -10ZM263 -105V6L392 13V-105H263ZM263
687V804H392V695L263 687Z" />
<glyph unicode="%" horiz-adv-x="976" d="M34 762Q34 822 47 861T85 924T145 958T224 968Q269 968 304 958T363 925T399 861T412 762Q412 704 399 665T362 601T302 567T224 557Q180 557 145 567T86 600T48 663T34 762ZM157 759Q157 707 165 680T188 644T224 634Q245
634 260 643T283 680T291 759Q291 817 283 845T260 881T224 890Q204 890 189 881T166 844T157 759ZM355 -6L250 -4L623 723L727 721L355 -6ZM563 197Q563 257 576 296T614 359T674 393T753 403Q798 403 833 393T892 360T928 296T941 197Q941 139 928 100T891 36T831
2T753 -8Q709 -8 674 2T615 35T577 98T563 197ZM686 194Q686 142 694 115T717 79T753 69Q774 69 789 78T812 115T820 194Q820 252 812 280T789 316T753 325Q733 325 718 316T695 279T686 194Z" />
<glyph unicode="&amp;" horiz-adv-x="718" d="M526 -4L178 361Q154 388 139 414T118 467T111 522Q111 579 135 621T211 686T345 710Q452 710 507 669T563 547Q563 510 551 479T514 422T445 380L382 454Q400 467 408 483T417 522Q417 542 410 555T388 576T350 583Q314
583 296 568T278 522Q278 508 282 494T298 464T329 427L715 0L526 -4ZM289 -10Q166 -10 97 46T28 197Q28 265 63 316T172 400L247 311Q215 293 200 271T184 213Q184 183 199 160T244 124T311 111Q350 111 375 122T416 153L493 61Q468 38 437 22T370 -2T289 -10ZM587
119L492 231Q507 250 514 272T523 321Q525 332 525 342T522 363L653 364Q655 351 656 339T657 310Q657 256 639 208T587 119Z" />
<glyph unicode="&apos;" horiz-adv-x="212" d="M40 427L33 700H179L171 427H40Z" />
<glyph unicode="(" horiz-adv-x="327" d="M45 265Q45 364 60 448T106 596T188 700T308 750V630Q273 616 248 590T208 520T185 413T178 265Q178 180 185 117T207 11T248 -59T308 -100V-220Q238 -210 188 -171T107 -67T60 82T45 265Z" />
<glyph unicode=")" horiz-adv-x="327" d="M19 -100Q54 -86 79 -60T119 10T142 117T150 265Q150 350 143 413T120 519T79 589T19 630V750Q89 740 139 701T220 597T267 448T282 265Q282 166 267 82T221 -66T139 -170T19 -220V-100Z" />
<glyph unicode="*" horiz-adv-x="371" d="M111 368L53 408L112 511L8 558L30 625L140 598L149 716H222L231 598L341 625L363 558L259 511L319 408L260 368L186 458L111 368Z" />
<glyph unicode="+" horiz-adv-x="529" d="M194 114V250H49V380H194V515H335V380H480V250H335V114H194Z" />
<glyph unicode="," horiz-adv-x="236" d="M42 87L191 90Q196 74 199 55T203 13Q203 -23 194 -57T164 -125T111 -191L-12 -165Q20 -125 34 -78T49 13Q49 26 48 45T42 87Z" />
<glyph unicode="-" horiz-adv-x="353" d="M38 240V378H316V240H38Z" />
<glyph unicode="." horiz-adv-x="240" d="M31 80Q31 124 51 145T120 167Q169 167 189 146T210 80Q210 37 190 16T120 -6Q72 -6 52 15T31 80Z" />
<glyph unicode="/" horiz-adv-x="432" d="M0 -210L299 740H431L132 -210H0Z" />
<glyph unicode="0" horiz-adv-x="640" d="M27 350Q27 454 47 523T106 634T199 692T320 710Q388 710 442 692T534 633T593 522T613 350Q613 248 592 179T532 68T439 8T320 -10Q254 -10 200 8T108 67T48 178T27 350ZM196 344Q196 273 205 228T230 159T270 126T320
117Q346 117 369 126T409 159T435 228T444 344Q444 421 435 468T408 540T369 574T320 583Q293 583 271 574T231 541T205 469T196 344Z" />
<glyph unicode="1" horiz-adv-x="639" d="M87 0V132H272V519L105 450L70 590L354 701H438V132H594V0H87Z" />
<glyph unicode="2" horiz-adv-x="640" d="M56 111Q128 167 180 210T268 287T325 350T356 403T365 452Q365 483 353 504T316 536T256 548Q221 548 182 537T102 504L51 642Q85 664 125 679T208 702T295 710Q374 710 428 683T512 607T541 493Q541 460 535 431T514
372T472 308T402 231T296 133H591V0H58L56 111Z" />
<glyph unicode="3" horiz-adv-x="640" d="M32 44L76 164Q104 152 135 144T200 132T272 127Q322 127 353 136T400 166T416 217Q416 257 381 276T275 295H170V415H277Q319 415 346 424T385 450T398 491Q398 527 365 546T264 566Q220 566 175 559T87 533L48 658Q78
674 116 686T200 704T297 710Q382 710 441 688T531 626T562 527Q562 474 534 433T455 370Q518 351 550 309T583 206Q583 137 549 89T448 16T286 -10Q235 -10 191 -5T109 13T32 44Z" />
<glyph unicode="4" horiz-adv-x="640" d="M20 115L19 235L367 702L514 700V241H612V115H514V0H344V115H20ZM153 241H348V499L153 241Z" />
<glyph unicode="5" horiz-adv-x="640" d="M38 38L75 165Q100 155 129 148T193 136T268 131Q324 131 358 141T409 172T425 221Q425 242 418 257T391 283T341 299T261 305H89L79 316L125 700H554V561H248L234 426H334Q418 425 475 405T562 342T592 227Q592 147 553
95T443 16T281 -10Q234 -10 193 -5T113 11T38 38Z" />
<glyph unicode="6" horiz-adv-x="640" d="M326 -10Q230 -10 165 26T65 137T31 329Q31 455 68 539T180 667T363 710Q408 710 449 706T527 693T591 672L553 543Q523 552 497 558T443 567T387 571Q315 571 274 547T216 473T199 348Q199 280 208 236T236 165T279 129T335
119Q387 119 416 145T446 226Q446 258 432 280T391 313T327 325Q302 325 278 318T230 298T184 267L182 383Q207 404 238 418T306 440T384 447Q456 447 505 423T580 350T606 233Q606 113 536 52T326 -10Z" />
<glyph unicode="7" horiz-adv-x="640" d="M176 0Q176 50 182 94T201 183T234 271T285 366L400 557H55V700H592V592L453 342Q417 277 394 222T360 113T347 0H176Z" />
<glyph unicode="8" horiz-adv-x="640" d="M363 400Q391 417 406 433T429 467T436 508Q436 545 407 565T320 585Q283 585 260 577T225 554T214 518Q214 495 227 480T264 453T318 432T382 412T448 390T512 362T566 324T603 270T617 196Q617 128 584 82T485 13T318
-10Q174 -10 99 41T23 189Q23 228 38 262T84 324T161 373L262 315Q224 291 207 265T189 200Q189 157 224 135T328 112Q386 112 415 130T444 185Q444 209 431 226T395 255T343 278T282 299T218 321T156 349T104 387T68 441T55 514Q55 609 125 659T324 710Q451 710
520 663T589 532Q589 500 577 468T539 408T470 355L363 400Z" />
<glyph unicode="9" horiz-adv-x="640" d="M274 -10Q230 -10 188 -6T110 8T46 29L83 156Q113 147 140 141T194 131T249 127Q321 127 362 152T420 227T437 353Q437 417 430 461T406 531T365 569T305 581Q270 581 244 569T204 534T190 474Q190 442 204 420T245 387T306
375Q333 375 359 382T410 402T455 434V314Q431 294 399 281T331 260T256 252Q183 252 133 277T56 349T30 467Q30 547 62 601T158 682T315 710Q413 710 477 673T573 560T605 367Q605 241 568 158T457 32T274 -10Z" />
<glyph unicode=":" horiz-adv-x="240" d="M31 80Q31 124 51 145T120 167Q169 167 189 146T210 80Q210 37 190 16T120 -6Q72 -6 52 15T31 80ZM31 464Q31 508 51 529T120 551Q169 551 189 530T210 464Q210 421 190 400T120 378Q72 378 52 399T31 464Z" />
<glyph unicode=";" horiz-adv-x="240" d="M44 87L193 90Q198 74 201 55T205 13Q205 -23 196 -57T166 -125T113 -191L-10 -165Q22 -125 36 -78T51 13Q51 26 50 45T44 87ZM31 464Q31 508 51 529T120 551Q169 551 189 530T210 464Q210 421 190 400T120 378Q72 378
52 399T31 464Z" />
<glyph unicode="&lt;" horiz-adv-x="529" d="M489 76L40 242V371L489 539V413L184 307L489 202V76Z" />
<glyph unicode="=" horiz-adv-x="521" d="M472 260V129H49V260H472ZM472 486V355H49V486H472Z" />
<glyph unicode="&gt;" horiz-adv-x="529" d="M489 241L40 76V201L345 307L40 412V539L489 371V241Z" />
<glyph unicode="?" horiz-adv-x="485" d="M156 260L152 398Q199 414 228 430T272 461T293 492T299 525Q299 544 292 558T273 582T243 596T206 601Q173 601 137 591T60 556L12 685Q40 705 77 719T154 742T232 750Q281 750 324 738T399 701T450 637T469 544Q469
493 452 453T397 381T297 325L296 260H156ZM137 79Q137 123 157 144T226 166Q275 166 295 145T316 79Q316 35 296 14T226 -7Q178 -7 158 14T137 79Z" />
<glyph unicode="@" horiz-adv-x="861" d="M418 -124Q332 -124 261 -102T139 -32T59 90T31 269Q31 364 58 444T140 584T273 677T459 710Q574 710 657 669T785 546T830 342Q830 281 819 228T784 133T725 70T643 48Q613 48 591 56T554 81T530 120T515 171Q497 134
474 108T423 69T360 55Q318 55 286 76T235 142T217 257Q217 316 232 367T276 456T351 516T455 537Q486 537 516 534T577 522T637 503L617 243Q615 202 620 179T638 145T667 135Q691 135 710 160T741 230T753 334Q753 435 721 503T621 607T447 642Q364 642 302 614T198
534T135 414T113 263Q113 176 136 116T201 18T300 -35T424 -52Q473 -52 521 -43T609 -17L629 -80Q602 -92 566 -102T492 -118T418 -124ZM408 171Q423 171 436 177T460 196T480 233T496 293L509 434Q494 440 479 442T450 445Q427 445 410 430T379 388T360 328T353
260Q353 229 360 209T380 180T408 171Z" />
<glyph unicode="A" horiz-adv-x="664" d="M7 0L229 703H433L658 0H472L435 130H221L184 0H7ZM252 269H404L328 572L252 269Z" />
<glyph unicode="B" horiz-adv-x="659" d="M55 3V696Q114 701 162 704T252 708T329 710Q427 710 486 693T573 638T600 540Q600 485 575 446T499 384V383Q564 365 600 318T637 204Q637 146 621 106T570 40T476 2T332 -10Q300 -10 277 -10T233 -9T189 -7T133 -3T55
3ZM225 412H361Q386 412 404 422T431 450T441 492Q441 522 430 540T393 566T324 575Q312 575 303 575T287 575T271 574T251 572T225 570V412ZM225 129Q242 128 256 127T281 126T303 125T324 125Q378 125 408 133T451 161T463 211Q463 253 439 273T360 293H225V129Z"
/>
<glyph unicode="C" horiz-adv-x="624" d="M30 339Q30 472 68 553T181 672T371 710Q406 710 434 709T488 703T538 694T587 680L553 546Q523 553 495 557T441 564T387 567Q338 567 303 555T246 517T213 448T202 340Q202 282 212 242T245 178T301 143T383 132Q427
132 476 139T568 157L598 24Q574 17 548 11T493 0T429 -7T355 -10Q274 -10 213 9T112 69T51 177T30 339Z" />
<glyph unicode="D" horiz-adv-x="692" d="M326 -10Q274 -10 228 -9T140 -6T55 -1V700Q102 704 144 706T229 709T318 710Q441 710 517 673T627 556T662 349Q662 225 625 146T514 28T326 -10ZM339 123Q388 123 420 145T470 217T487 348Q487 435 471 484T421 554T334
576Q316 576 297 576T259 574T225 572V127Q239 127 253 126T281 125T309 124T339 123Z" />
<glyph unicode="E" horiz-adv-x="600" d="M55 0V700H557V556H224V424H532V288H224V143H575V0H55Z" />
<glyph unicode="F" horiz-adv-x="570" d="M55 0V700H553V552H225V378H510V235H226V0H55Z" />
<glyph unicode="G" horiz-adv-x="662" d="M30 340Q30 466 67 547T179 669T368 710Q401 710 430 708T488 702T542 692T594 678L563 544Q517 555 470 561T382 568Q320 568 280 544T221 469T202 338Q202 260 219 213T272 145T360 123Q392 123 419 126T468 137V263H348V394H620V43Q562
16 493 3T340 -10Q236 -10 167 28T64 143T30 340Z" />
<glyph unicode="H" horiz-adv-x="704" d="M55 0V700H224V393H480V700H649V0H480V242H224V0H55Z" />
<glyph unicode="I" horiz-adv-x="279" d="M55 0V700H224V0H55Z" />
<glyph unicode="J" horiz-adv-x="516" d="M8 26L39 156Q68 149 94 144T143 135T186 132Q225 132 250 144T287 184T299 261V552H58V700H468V221Q468 145 444 93T368 16T235 -10Q198 -10 160 -6T83 6T8 26Z" />
<glyph unicode="K" horiz-adv-x="672" d="M624 -10Q594 -10 563 -2T501 23T436 69L225 252V0H55V700H225V458L475 246Q504 221 527 206T568 181T603 168T634 164Q638 164 642 164T650 165V-8Q643 -9 637 -9T624 -10ZM352 291L243 385Q270 404 299 429T358 484T416
549T470 623T515 707L649 642Q628 585 598 536T529 442T447 360T352 291Z" />
<glyph unicode="L" horiz-adv-x="557" d="M55 0V700H225V148H539V0H55Z" />
<glyph unicode="M" horiz-adv-x="793" d="M55 0V700H231L400 371L571 700H738V0H584V452L435 165H355L209 449V0H55Z" />
<glyph unicode="N" horiz-adv-x="685" d="M55 0V701H215L480 261V700H630V-1H470L206 430V0H55Z" />
<glyph unicode="O" horiz-adv-x="703" d="M351 123Q378 123 401 130T443 152T473 193T492 258T499 351Q499 404 493 443T474 507T443 548T401 570T351 577Q324 577 302 571T261 549T230 508T210 443T203 350Q203 296 210 258T230 193T261 152T302 130T351 123ZM352
-10Q291 -10 241 2T152 40T86 108T45 210T30 350Q30 430 43 489T83 591T149 659T238 698T351 710Q414 710 464 698T553 660T618 593T658 492T672 353Q672 271 659 211T618 108T552 40T463 2T352 -10Z" />
<glyph unicode="P" horiz-adv-x="669" d="M55 0V702Q127 705 181 707T272 709T329 710Q423 710 485 696T582 651T632 573T647 457Q647 387 633 337T586 255T501 208T373 192Q351 192 337 192T311 192T289 192T263 194T225 196V0H55ZM225 572V329Q241 328 253 328T275
327T296 326T320 326Q369 326 399 333T446 356T469 398T475 461Q475 492 469 513T449 549T408 569T342 576Q329 576 318 576T295 576T266 574T225 572Z" />
<glyph unicode="Q" horiz-adv-x="702" d="M508 37Q519 11 531 -7T558 -35T591 -44Q603 -44 615 -41T640 -33L659 -171Q634 -179 609 -184T560 -189Q510 -189 474 -168T412 -103T366 6L508 37ZM351 123Q378 123 401 129T442 152T473 193T492 258T499 351Q499 404
493 442T474 507T443 548T401 570T351 577Q325 577 302 571T261 549T230 508T210 443T203 350Q203 296 209 257T229 192T261 151T302 130T351 123ZM351 -10Q289 -10 238 2T148 40T83 108T44 210T30 350Q30 430 43 489T81 591T145 660T235 698T351 710Q415 710 466
698T555 660T620 593T658 492T671 352Q671 272 658 211T619 108T554 40T464 2T351 -10Z" />
<glyph unicode="R" horiz-adv-x="697" d="M639 -10Q608 -10 577 -2T516 25T453 71T388 140T318 233Q312 232 302 232T284 232Q271 232 255 232T225 233V0H55V700Q114 704 163 706T254 709T331 710Q414 710 472 698T568 659T623 592T640 492Q640 433 622 391T571
321T492 279Q518 247 541 224T585 185T624 162T660 154Q663 154 668 154T676 155L677 -7Q670 -8 661 -9T639 -10ZM329 356Q364 356 390 362T432 381T457 416T466 470Q466 509 454 532T414 567T335 578Q319 578 308 578T285 578T259 576T225 574V359Q240 358 252
358T276 357T300 356T329 356Z" />
<glyph unicode="S" horiz-adv-x="621" d="M570 675L538 545Q518 552 492 558T438 568T382 574T328 576Q269 576 238 560T207 510Q207 492 217 479T249 454T306 432T390 408Q443 395 482 377T548 334T588 277T602 201Q602 133 566 86T460 15T288 -10Q254 -10 218
-7T146 1T75 15T11 35L43 164Q73 154 105 146T170 133T235 124T297 121Q342 121 370 128T412 151T426 188Q426 207 413 220T372 244T305 268T211 296Q166 311 133 330T76 373T42 430T30 502Q30 547 47 585T100 651T193 694T328 710Q374 710 419 705T504 692T570
675Z" />
<glyph unicode="T" horiz-adv-x="612" d="M597 551H391V0H222V551H16V700H597V551Z" />
<glyph unicode="U" horiz-adv-x="686" d="M48 227V700H215V225Q215 203 221 186T239 158T267 140T302 130T343 126Q366 126 385 129T420 140T447 158T465 187T471 225V700H638V227Q638 175 626 136T589 69T528 24T446 -1T343 -10Q287 -10 241 -2T159 24T99 69T61
136T48 227Z" />
<glyph unicode="V" horiz-adv-x="654" d="M228 0L1 699L187 701L329 148L468 701L654 699L429 0H228Z" />
<glyph unicode="W" horiz-adv-x="828" d="M681 0H505L412 439L314 0H144L2 699L182 701L239 164L341 661H491L588 165L645 701L827 699L681 0Z" />
<glyph unicode="X" horiz-adv-x="641" d="M2 1L212 359L19 699L221 701L328 468L433 701L626 699L435 360L637 1L437 -2L322 247L205 -2L2 1Z" />
<glyph unicode="Y" horiz-adv-x="650" d="M241 0V245L0 699L190 702L326 350L460 702L649 699L410 245V0H241Z" />
<glyph unicode="Z" horiz-adv-x="616" d="M23 0V134L372 561V563H40V700H575V566L231 139V137H594V0H23Z" />
<glyph unicode="[" horiz-adv-x="327" d="M170 -98H306V-210H43V740H306V628H170V-98Z" />
<glyph unicode="\" horiz-adv-x="432" d="M132 740L431 -210H300L0 740H132Z" />
<glyph unicode="]" horiz-adv-x="327" d="M21 -98H157V628H21V740H284V-210H21V-98Z" />
<glyph unicode="^" horiz-adv-x="529" d="M46 242L191 703H339L483 242H359L265 537L171 242H46Z" />
<glyph unicode="_" horiz-adv-x="784" d="M14 -187V-64H770V-187H14Z" />
<glyph unicode="`" horiz-adv-x="449" d="M223 596L96 790H262L354 596H223Z" />
<glyph unicode="a" horiz-adv-x="559" d="M21 149Q21 198 39 230T96 281T194 310T334 327V360Q334 390 309 404T237 418Q216 418 189 416T134 409T75 395L49 523Q94 537 148 545T248 554Q336 554 390 533T470 468T496 362V172Q496 147 503 139T521 131Q526 131
532 131T544 134L557 17Q537 5 513 -2T458 -10Q416 -10 390 5T350 53Q324 34 298 20T241 -2T172 -10Q138 -10 111 1T63 32T32 82T21 149ZM186 159Q186 127 200 112T237 97Q253 97 270 102T305 116T334 138V240Q297 237 270 233T223 219T195 196T186 159Z" />
<glyph unicode="b" horiz-adv-x="584" d="M46 18V740H209V504Q250 530 289 542T369 554Q462 554 509 486T557 285Q557 180 529 115T439 20T278 -10Q229 -10 170 -3T46 18ZM209 118Q230 113 249 110T284 107Q320 107 343 122T377 174T388 273Q388 325 379 356T352
403T307 418Q292 418 277 415T246 405T209 388V118Z" />
<glyph unicode="c" horiz-adv-x="518" d="M26 264Q26 361 58 425T154 521T309 554Q341 554 373 552T436 545T490 533L467 397Q443 402 419 405T372 410T327 412Q284 412 255 397T211 350T196 269Q196 222 211 192T257 146T330 130Q354 130 377 132T425 138T475
147L500 17Q457 5 402 -2T294 -10Q160 -10 93 57T26 264Z" />
<glyph unicode="d" horiz-adv-x="585" d="M395 -1L376 40Q336 15 296 3T212 -10Q123 -10 75 60T26 262Q26 361 54 425T141 522T288 554Q308 554 330 553T374 547V740H539V-1H395ZM374 154V424Q354 430 336 432T299 435Q264 435 241 420T207 371T196 278Q196 224
205 191T233 142T277 126Q292 126 307 129T339 138T374 154Z" />
<glyph unicode="e" horiz-adv-x="560" d="M293 -10Q229 -10 180 5T97 53T44 137T26 260Q26 341 46 397T103 488T190 538T299 554Q419 554 475 495T532 303Q532 293 532 278T530 247Q505 245 469 242T389 236T296 231T196 228Q195 225 195 222T195 215Q195 182
208 161T250 129T323 118Q351 118 382 121T445 129T509 142L528 24Q493 13 456 5T379 -6T293 -10ZM197 325Q223 325 249 326T298 328T339 331T369 332Q368 372 359 395T333 429T290 439Q272 439 257 434T230 417T209 382T197 325Z" />
<glyph unicode="f" horiz-adv-x="400" d="M88 0V384H13V493L88 503V521Q88 597 112 648T182 724T294 750Q333 750 369 744T442 723L420 608Q399 615 376 618T333 622Q292 622 271 598T249 519V503H380V384H249V0H88Z" />
<glyph unicode="g" horiz-adv-x="578" d="M256 -220Q135 -220 74 -186T12 -82Q12 -55 21 -33T50 8T99 39L183 8Q169 1 160 -6T147 -23T142 -46Q142 -66 154 -79T193 -98T267 -105Q312 -105 343 -98T390 -77T406 -45Q406 -30 400 -22T377 -10T331 -6H222Q165 -6
123 7T59 47T36 115Q36 158 57 186T117 235L201 211Q181 201 171 190T160 160Q160 142 174 133T217 123H385Q469 123 514 84T559 -25Q559 -87 525 -130T423 -197T256 -220ZM272 183Q157 183 99 230T40 368Q40 461 98 507T272 554Q387 554 446 508T505 368Q505 277
446 230T272 183ZM272 287Q311 287 330 305T349 368Q349 415 330 433T272 451Q234 451 215 433T195 368Q195 323 214 305T272 287ZM468 424L406 508Q421 545 449 563T521 581Q536 581 549 579T573 573L554 449Q546 451 537 452T518 454Q502 454 490 447T468 424Z"
/>
<glyph unicode="h" horiz-adv-x="579" d="M46 0V740H210V501Q238 519 264 530T318 548T375 554Q427 554 462 536T515 482T534 395V0H369V344Q369 382 353 399T305 416Q289 416 274 413T243 404T210 390V0H46Z" />
<glyph unicode="i" horiz-adv-x="255" d="M128 602Q78 602 55 622T31 684Q31 726 54 746T128 766Q178 766 201 746T224 684Q224 642 202 622T128 602ZM46 0V544H209V0H46Z" />
<glyph unicode="j" horiz-adv-x="263" d="M217 544V28Q217 -83 176 -143T39 -211Q28 -212 14 -212T-14 -211T-42 -207L-31 -70Q-23 -71 -17 -71T-5 -69Q26 -62 40 -38T54 37V544H217ZM136 602Q86 602 63 622T39 684Q39 726 62 746T136 766Q186 766 209 746T232
684Q232 642 209 622T136 602Z" />
<glyph unicode="k" horiz-adv-x="554" d="M500 -9Q482 -9 465 -6T429 8T385 37T328 88L202 206V0H46V740H202V410L361 259Q407 215 436 192T485 162T522 154Q525 154 529 154T538 155L539 -6Q531 -7 522 -8T500 -9ZM317 236L185 299Q221 331 250 362T302 423T340
485T365 553L531 544Q520 501 497 459T444 377T380 302T317 236Z" />
<glyph unicode="l" horiz-adv-x="314" d="M209 740V192Q209 167 215 154T231 136T255 131Q264 131 275 133T301 139L316 14Q294 4 266 -3T205 -10Q153 -10 118 7T64 66T46 177V740H209Z" />
<glyph unicode="m" horiz-adv-x="863" d="M46 0V544H194V497Q224 517 252 529T307 547T363 553Q395 553 418 546T458 526T486 492Q520 513 549 526T608 547T671 554Q701 554 724 547T765 525T795 492T812 449T818 398V0H654V344Q654 359 651 372T642 395T624 410T595
415Q580 415 566 412T538 403T511 390Q513 382 513 374T514 357V0H350V344Q350 358 347 371T337 394T319 409T290 415Q277 415 264 412T237 403T210 390V0H46Z" />
<glyph unicode="n" horiz-adv-x="579" d="M46 0V544H194V497Q227 517 256 529T314 548T375 554Q428 554 463 535T516 481T534 398V0H370V344Q370 382 353 399T305 417Q289 417 274 414T243 404T210 390V0H46Z" />
<glyph unicode="o" horiz-adv-x="580" d="M26 273Q26 339 39 391T82 479T163 535T290 554Q366 554 417 535T498 480T541 391T554 273Q554 206 540 153T495 64T414 9T290 -10Q217 -10 167 9T85 64T40 153T26 273ZM195 273Q195 213 204 178T235 129T290 114Q325
114 345 128T376 178T386 273Q386 333 377 367T347 415T290 430Q254 430 234 416T204 367T195 273Z" />
<glyph unicode="p" horiz-adv-x="584" d="M46 -210V546H194L199 500Q244 528 286 541T372 554Q462 554 510 484T558 282Q558 184 530 119T443 22T296 -10Q277 -10 255 -8T210 -2V-210H46ZM285 109Q320 109 343 124T377 173T388 266Q388 322 379 355T352 403T307
419Q292 419 277 416T245 407T210 391V121Q230 115 249 112T285 109Z" />
<glyph unicode="q" horiz-adv-x="585" d="M539 528V-210H375V39Q336 15 296 3T215 -10Q123 -10 75 60T26 270Q26 369 56 431T148 524T307 554Q359 554 418 548T539 528ZM375 425Q355 431 336 433T300 436Q265 436 242 421T208 369T197 270Q197 220 206 188T233
141T277 126Q293 126 308 129T340 139T375 156V425Z" />
<glyph unicode="r" horiz-adv-x="419" d="M194 544V481Q222 507 245 523T292 546T345 554Q361 554 379 552T415 543L389 395Q371 399 353 401T320 404Q294 404 267 396T209 365V0H46V544H194Z" />
<glyph unicode="s" horiz-adv-x="475" d="M20 21L38 139Q56 133 79 128T128 118T177 112T223 110Q262 110 280 121T299 154Q299 168 290 176T262 192T219 204T164 218Q130 225 105 238T63 271T37 316T28 374Q28 464 85 509T254 554Q288 554 319 551T378 541T429
526L409 406Q387 414 364 419T314 427T254 430Q218 430 200 420T182 389Q182 376 189 369T210 356T244 346T292 335Q328 328 358 316T411 286T445 239T458 170Q458 130 446 100T411 49T360 15T294 -4T220 -10Q184 -10 150 -7T84 3T20 21Z" />
<glyph unicode="t" horiz-adv-x="413" d="M249 -10Q195 -10 158 10T103 74T84 188V425H6V534L84 544L103 660H247V544H384V425H247V201Q247 161 261 145T307 128Q324 128 343 131T384 140L406 16Q364 2 325 -4T249 -10Z" />
<glyph unicode="u" horiz-adv-x="591" d="M206 -10Q158 -10 122 7T66 62T45 154V544H209V193Q209 159 226 143T273 126Q289 126 303 129T332 138T364 152V544H528V169Q528 154 531 146T540 133T554 129Q565 129 575 134L589 16Q576 9 560 3T525 -6T485 -10Q448
-10 424 4T384 45Q355 28 327 16T270 -3T206 -10Z" />
<glyph unicode="v" horiz-adv-x="583" d="M198 0L6 543L181 545L296 141L405 545L577 543L384 0H198Z" />
<glyph unicode="w" horiz-adv-x="800" d="M132 0L9 543L172 545L235 147L313 544H487L566 146L631 545L792 543L663 0H475L398 360L324 0H132Z" />
<glyph unicode="x" horiz-adv-x="583" d="M5 0L189 276L18 543L209 546L297 367L387 546L569 543L398 277L579 0L388 -2L294 181L200 -2L5 0Z" />
<glyph unicode="y" horiz-adv-x="588" d="M162 -209L229 0H207L7 543L186 546L301 132L410 546L581 544L334 -211L162 -209Z" />
<glyph unicode="z" horiz-adv-x="521" d="M25 0V113L285 418H36V544H484V433L227 127H498V0H25Z" />
<glyph unicode="{" horiz-adv-x="331" d="M65 -45Q65 -1 74 31T92 91T101 146Q101 163 98 177T85 199T60 207H42V323H60Q76 323 85 331T97 353T101 384Q101 410 92 437T74 498T65 574Q65 631 85 667T140 722T221 740H305V628H263Q242 628 229 619T211 593T205
555Q205 528 212 501T228 447T236 389Q236 366 231 344T210 301T167 265Q195 250 210 230T230 186T236 141Q236 110 228 82T213 28T205 -26Q205 -46 210 -63T229 -89T263 -98H305V-210H221Q176 -210 141 -193T85 -138T65 -45Z" />
<glyph unicode="|" horiz-adv-x="228" d="M181 790V-210H47V790H181Z" />
<glyph unicode="}" horiz-adv-x="331" d="M26 -98H61Q83 -98 95 -89T114 -63T120 -26Q120 2 112 28T97 82T89 141Q89 163 94 186T114 229T157 265Q129 281 115 301T95 343T89 389Q89 419 96 446T112 501T120 555Q120 577 114 593T96 618T61 628H26V740H111Q156
740 191 722T246 668T266 574Q266 531 258 498T240 438T230 384Q230 367 233 353T246 331T271 323H289V207H271Q255 207 247 199T234 177T230 146Q230 119 239 92T257 32T266 -45Q266 -101 246 -138T191 -192T111 -210H26V-98Z" />
<glyph unicode="~" horiz-adv-x="529" d="M472 238Q454 220 431 210T380 200Q344 200 316 213T261 242T209 272T151 285Q118 285 95 273T58 249V379Q64 386 76 394T108 408T154 415Q185 415 211 403T262 373T315 344T380 331Q407 331 429 340T472 368V238Z" />
<glyph unicode="&#xa0;" horiz-adv-x="266" />
<glyph unicode="&#xa1;" horiz-adv-x="254" d="M198 283L210 -196H46L58 283H198ZM216 465Q216 420 196 399T127 378Q79 378 59 399T38 465Q38 509 58 530T127 551Q176 551 196 530T216 465Z" />
<glyph unicode="&#xa2;" horiz-adv-x="639" d="M343 -10Q219 -10 156 58T93 262Q93 324 107 377T153 471T234 533T356 555Q393 555 424 552T482 544T535 533L513 397Q490 402 469 405T426 410T381 412Q341 412 314 397T273 349T259 266Q259 197 291 164T383 130Q404
130 426 132T472 137T520 146L545 16Q517 8 483 2T414 -7T343 -10ZM270 -105V13L400 7V-105H270ZM270 529V649H400V539L270 529Z" />
<glyph unicode="&#xa3;" horiz-adv-x="640" d="M79 0V103Q116 132 139 157T172 206T182 258Q182 293 172 322T147 380T123 442T112 517Q112 605 178 657T371 710Q398 710 424 708T474 701T522 690T566 675L543 548Q527 553 510 557T473 563T435 566T395 568Q364
568 338 558T297 527T281 469Q281 443 290 419T310 370T330 320T339 267Q339 238 330 215T304 171T266 130H573V0H79ZM71 304V396H497V304H71Z" />
<glyph unicode="&#xa4;" horiz-adv-x="479" d="M39 415L123 499L187 434Q199 440 212 443T240 446Q255 446 267 443T291 434L356 499L441 415L383 358Q390 345 394 330T398 299Q398 283 394 268T383 239L441 181L356 97L290 163Q279 158 267 156T240 153Q226 153
213 155T189 163L123 97L39 181L97 239Q90 252 86 267T82 299Q82 315 86 330T96 357L39 415ZM240 243Q264 243 280 259T296 299Q296 322 280 338T240 355Q215 355 200 339T184 299Q184 275 200 259T240 243Z" />
<glyph unicode="&#xa5;" horiz-adv-x="640" d="M83 310V388H236L38 699L220 702L322 487L423 702L602 699L408 388H564V310H408V262H564V184H408V0H236V184H83V262H236V310H83Z" />
<glyph unicode="&#xa6;" horiz-adv-x="228" d="M180 391H47V790H180V391ZM47 190H180V-210H47V190Z" />
<glyph unicode="&#xa7;" horiz-adv-x="569" d="M235 -221Q199 -221 166 -216T103 -202T42 -177L71 -41Q86 -50 99 -56T124 -64T149 -67Q169 -67 183 -61T205 -41T213 -10Q213 10 206 32T183 87T143 168Q107 239 87 290T58 385T49 470Q48 557 83 619T186 716T352
750Q390 750 427 744T497 725L471 585Q457 592 445 594T421 596Q393 596 377 580T361 536Q361 524 364 510T376 477T398 430T430 363Q456 316 474 276T502 200T517 133T522 70Q522 -17 486 -82T385 -184T235 -221ZM236 -129Q279 -129 310 -115T363 -75T394 -18T404
51Q404 76 400 101T386 156T358 226T314 320Q285 380 269 419T246 486T239 542Q240 569 251 593T281 634T325 653L349 626Q334 633 322 635T293 638Q258 638 231 621T188 570T172 490Q172 461 176 433T190 374T217 306T257 221Q279 177 294 143T318 82T331 33T335
-9Q335 -47 318 -76T271 -122T201 -138L167 -115Q183 -123 200 -126T236 -129Z" />
<glyph unicode="&#xa8;" horiz-adv-x="449" d="M324 612Q290 612 273 628T255 685Q255 725 272 742T324 760Q359 760 376 743T393 685Q393 645 376 629T324 612ZM126 612Q91 612 74 628T57 685Q57 725 74 742T126 760Q160 760 177 743T195 685Q195 645 178 629T126 612Z" />
<glyph unicode="&#xa9;" horiz-adv-x="746" d="M373 43Q439 43 490 63T575 122T627 218T645 350Q645 425 628 482T575 577T490 636T373 656Q308 656 257 636T172 578T119 482T101 350Q101 275 118 218T171 122T257 63T373 43ZM373 710Q451 710 512 686T616 616T681
502T704 350Q704 265 682 199T617 85T513 14T373 -10Q295 -10 234 14T130 85T65 198T42 350Q42 435 64 502T130 615T234 686T373 710ZM216 346Q216 423 237 468T297 533T385 553Q416 553 446 548T501 532L484 451Q466 456 443 460T400 464Q373 464 355 453T328
416T318 344Q318 287 336 263T393 238Q420 238 444 242T489 252L503 172Q478 161 445 155T377 149Q328 149 292 169T236 233T216 346Z" />
<glyph unicode="&#xaa;" horiz-adv-x="398" d="M42 228V312H370V228H42ZM29 453Q29 490 48 510T110 540T221 553V570Q221 586 207 594T161 603Q137 603 113 600T63 588L45 667Q74 675 109 680T176 685Q236 685 271 671T322 630T338 567V472Q338 459 342 454T352
448Q355 448 359 449T366 451L375 381Q362 373 345 368T307 363Q280 363 263 371T236 397Q212 381 188 372T128 363Q108 363 90 368T59 385T37 413T29 453ZM138 459Q138 441 146 434T170 427Q184 427 198 433T222 448V502Q198 501 182 498T156 489T142 477T138
459Z" />
<glyph unicode="&#xab;" horiz-adv-x="550" d="M23 176V368L259 537L264 367L119 271L264 174L259 5L23 176ZM286 176V368L522 537L527 367L382 271L527 174L522 5L286 176Z" />
<glyph unicode="&#xac;" horiz-adv-x="529" d="M50 314V445H480V171H349V314H50Z" />
<glyph unicode="&#xad;" horiz-adv-x="353" d="M38 240V378H316V240H38Z" />
<glyph unicode="&#xae;" horiz-adv-x="709" d="M350 208Q276 208 219 231T122 299T62 407T42 550Q42 630 62 693T122 801T219 869T350 893Q427 893 485 870T584 802T646 694T667 550Q667 470 646 406T584 298T485 231T350 208ZM350 261Q414 261 462 280T542 336T591
427T607 550Q607 620 591 673T543 764T463 819T350 838Q289 838 243 820T165 764T117 674T101 550Q101 481 117 427T164 336T242 280T350 261ZM507 369Q485 369 465 374T425 393T386 431T347 491Q343 491 341 491T333 491Q327 491 321 491T309 492V373H212V737Q242
739 267 740T315 742T354 743Q409 743 443 731T493 694T510 629Q510 585 492 558T440 521Q451 504 463 491T488 471T514 462Q516 462 517 462T519 462L520 369Q517 369 514 369T507 369ZM345 554Q372 554 385 560T404 580T410 615Q410 633 406 643T390 659T356
665Q347 665 341 665T328 665T309 663V555Q322 554 329 554T345 554Z" />
<glyph unicode="&#xaf;" horiz-adv-x="449" d="M74 627V742H375V627H74Z" />
<glyph unicode="&#xb0;" horiz-adv-x="346" d="M173 400Q124 400 92 421T44 479T28 557Q28 587 36 615T61 666T107 701T173 715Q211 715 238 702T284 667T310 616T318 557Q318 515 302 479T254 422T173 400ZM173 499Q193 499 205 515T217 557Q217 581 206 597T173
613Q151 613 140 597T128 557Q128 532 140 516T173 499Z" />
<glyph unicode="&#xb1;" horiz-adv-x="535" d="M49 21V152H196V277H49V408H196V539H338V408H486V277H338V152H486V21H49Z" />
<glyph unicode="&#xb2;" horiz-adv-x="401" d="M42 370V440Q86 471 118 497T171 545T201 586T211 622Q211 646 197 661T157 676Q136 676 116 671T70 651L37 735Q57 748 81 756T132 769T184 774Q230 774 262 759T313 716T331 646Q331 623 325 602T305 558T266 509T202
448H364V370H42Z" />
<glyph unicode="&#xb3;" horiz-adv-x="404" d="M26 394L54 467Q69 460 85 455T121 448T171 446Q215 446 236 459T257 495Q257 508 251 517T228 531T183 536H109V607H192Q220 607 234 617T248 645Q248 658 237 667T206 682T161 687Q131 687 110 685T77 678T59 672L34
748Q59 760 99 767T190 775Q274 775 316 747T359 672Q359 641 342 617T295 582Q333 570 352 546T371 487Q371 446 348 419T284 377T185 363Q141 363 103 369T26 394Z" />
<glyph unicode="&#xb4;" horiz-adv-x="449" d="M97 595L189 789H350L222 595H97Z" />
<glyph unicode="&#xb5;" horiz-adv-x="592" d="M46 -210V544H210V191Q210 157 227 141T274 124Q289 124 303 127T333 136T365 150V544H528V164Q528 150 531 141T541 129T554 125Q566 125 576 129L589 16Q577 9 561 3T526 -6T486 -10Q446 -10 425 3T389 40Q370
26 350 15T308 -3T262 -9Q243 -9 229 -4T206 10V-210H46Z" />
<glyph unicode="&#xb6;" horiz-adv-x="672" d="M483 -210V740H611V-210H483ZM268 313L252 217Q145 233 94 301T43 478Q43 536 58 584T108 667T198 721T338 740H425V-210H298V609Q259 608 234 592T197 544T184 466Q184 400 207 360T268 313Z" />
<glyph unicode="&#xb7;" horiz-adv-x="236" d="M28 312Q28 357 49 378T118 400Q167 400 187 379T208 312Q208 268 188 247T118 226Q70 226 49 247T28 312Z" />
<glyph unicode="&#xb8;" horiz-adv-x="449" d="M136 -109Q150 -113 161 -115T182 -117Q205 -117 218 -106T232 -72Q232 -61 227 -48T214 -20T193 6H311Q323 -8 332 -27T346 -66T351 -105Q351 -136 339 -162T298 -204T220 -220Q201 -220 179 -217T133 -206L136 -109Z" />
<glyph unicode="&#xb9;" horiz-adv-x="375" d="M42 370V450H145V652L49 616L23 704L205 768H264V450H355V370H42Z" />
<glyph unicode="&#xba;" horiz-adv-x="403" d="M39 228V313H367V228H39ZM30 526Q30 576 45 611T98 666T201 685Q266 685 303 666T355 612T371 526Q371 475 355 438T301 382T201 363Q138 363 100 382T46 438T30 526ZM150 525Q150 492 155 473T171 447T200 439Q219
439 230 446T246 473T251 525Q251 558 247 576T231 602T200 610Q181 610 170 603T155 577T150 525Z" />
<glyph unicode="&#xbb;" horiz-adv-x="550" d="M264 360V184L29 5L24 179L168 271L24 366L29 537L264 360ZM528 360V184L293 5L288 179L432 271L288 366L293 537L528 360Z" />
<glyph unicode="&#xbc;" horiz-adv-x="908" d="M42 561V641H145V843L49 807L23 895L205 959H264V641H355V561H42ZM346 -6L241 -4L614 723L718 721L346 -6ZM498 60L497 129L702 398L821 397V133H874V60H821V0H696V60H498ZM574 133H698V296L574 133Z" />
<glyph unicode="&#xbd;" horiz-adv-x="960" d="M42 561V641H145V843L49 807L23 895L205 959H264V641H355V561H42ZM346 -6L241 -4L614 723L718 721L346 -6ZM601 0V70Q645 101 677 127T730 175T760 216T770 252Q770 276 756 291T716 306Q695 306 675 301T629 281L596
365Q616 378 640 386T691 399T743 404Q789 404 821 389T872 346T890 276Q890 253 884 232T864 188T825 139T761 78H923V0H601Z" />
<glyph unicode="&#xbe;" horiz-adv-x="913" d="M26 585L54 658Q69 651 85 646T121 639T171 637Q215 637 236 650T257 686Q257 699 251 708T228 722T183 727H109V798H192Q220 798 234 808T248 836Q248 849 237 858T206 873T161 878Q131 878 110 876T77 869T59 863L34
939Q59 951 99 958T190 966Q274 966 316 938T359 863Q359 832 342 808T295 773Q333 761 352 737T371 678Q371 637 348 610T284 568T185 554Q141 554 103 560T26 585ZM351 -6L246 -4L619 723L723 721L351 -6ZM503 60L502 129L707 398L826 397V133H879V60H826V0H701V60H503ZM579
133H703V296L579 133Z" />
<glyph unicode="&#xbf;" horiz-adv-x="493" d="M345 279L349 141Q302 125 273 110T229 79T208 47T202 14Q202 -5 209 -19T228 -43T257 -57T295 -62Q329 -62 365 -52T441 -17L489 -146Q461 -165 424 -180T347 -202T269 -210Q220 -210 177 -198T102 -161T51 -98T32
-5Q32 46 49 86T104 158T204 214L205 279H345ZM364 460Q364 416 344 395T275 373Q226 373 206 394T185 460Q185 504 205 525T275 546Q323 546 343 525T364 460Z" />
<glyph unicode="&#xc0;" horiz-adv-x="665" d="M7 0L229 703H433L658 0H472L435 130H221L184 0H7ZM252 269H404L328 572L252 269ZM270 745L145 931H311L400 745H270Z" />
<glyph unicode="&#xc1;" horiz-adv-x="665" d="M7 0L229 703H433L658 0H472L435 130H221L184 0H7ZM252 269H404L328 572L252 269ZM270 745L358 931H518L393 745H270Z" />
<glyph unicode="&#xc2;" horiz-adv-x="665" d="M7 0L229 703H433L658 0H472L435 130H221L184 0H7ZM252 269H404L328 572L252 269ZM143 745L239 931H428L522 745H391L332 861L273 745H143Z" />
<glyph unicode="&#xc3;" horiz-adv-x="665" d="M7 0L229 703H433L658 0H472L435 130H221L184 0H7ZM252 269H404L328 572L252 269ZM150 756Q148 768 148 780T147 802Q147 854 173 887T254 920Q277 920 297 913T336 896T370 878T398 870Q408 870 414 874T423 888T427
909Q427 912 427 917T425 925H513Q515 913 515 901T516 878Q516 824 490 792T409 760Q386 760 366 767T327 784T294 801T265 809Q252 809 245 800T237 772Q237 769 237 765T239 756H150Z" />
<glyph unicode="&#xc4;" horiz-adv-x="665" d="M7 0L229 703H433L658 0H472L435 130H221L184 0H7ZM252 269H404L328 572L252 269ZM432 751Q398 751 381 767T363 824Q363 864 380 881T432 899Q467 899 484 882T501 824Q501 784 484 768T432 751ZM234 751Q199 751
182 767T165 824Q165 864 182 881T234 899Q268 899 285 882T303 824Q303 784 286 768T234 751Z" />
<glyph unicode="&#xc5;" horiz-adv-x="665" d="M7 0L229 703H433L658 0H472L435 130H221L184 0H7ZM252 269H404L328 572L252 269ZM333 743Q276 743 246 768T216 841Q216 889 246 914T333 940Q389 940 419 915T449 841Q449 794 419 769T333 743ZM332 808Q366 808
366 841Q366 875 332 875Q299 875 299 841Q299 808 332 808Z" />
<glyph unicode="&#xc6;" horiz-adv-x="998" d="M4 0L373 700H955V556H626V412H930V276H626V143H973V0H464V179H291L194 -1L4 0ZM351 314H463V578L351 314Z" />
<glyph unicode="&#xc7;" horiz-adv-x="624" d="M30 339Q30 472 68 553T181 672T371 710Q406 710 434 709T488 703T538 694T587 680L553 546Q523 553 495 557T441 564T387 567Q338 567 303 555T246 517T213 448T202 340Q202 282 212 242T245 178T301 143T383 132Q427
132 476 139T568 157L598 24Q574 17 548 11T493 0T429 -7T355 -10Q274 -10 213 9T112 69T51 177T30 339ZM230 -109Q244 -113 255 -115T276 -117Q299 -117 312 -106T326 -72Q326 -61 321 -48T308 -20T287 6H405Q417 -8 426 -27T440 -66T445 -105Q445 -136 433 -162T392
-204T314 -220Q295 -220 273 -217T227 -206L230 -109Z" />
<glyph unicode="&#xc8;" horiz-adv-x="599" d="M55 0V700H557V556H224V424H532V288H224V143H575V0H55ZM254 745L129 931H295L384 745H254Z" />
<glyph unicode="&#xc9;" horiz-adv-x="599" d="M55 0V700H557V556H224V424H532V288H224V143H575V0H55ZM254 745L342 931H502L377 745H254Z" />
<glyph unicode="&#xca;" horiz-adv-x="599" d="M55 0V700H557V556H224V424H532V288H224V143H575V0H55ZM127 745L223 931H412L506 745H375L316 861L257 745H127Z" />
<glyph unicode="&#xcb;" horiz-adv-x="599" d="M55 0V700H557V556H224V424H532V288H224V143H575V0H55ZM415 751Q381 751 364 767T346 824Q346 864 363 881T415 899Q450 899 467 882T484 824Q484 784 467 768T415 751ZM217 751Q182 751 165 767T148 824Q148 864
165 881T217 899Q251 899 268 882T286 824Q286 784 269 768T217 751Z" />
<glyph unicode="&#xcc;" horiz-adv-x="279" d="M55 0V700H224V0H55ZM77 745L-48 931H118L207 745H77Z" />
<glyph unicode="&#xcd;" horiz-adv-x="279" d="M55 0V700H224V0H55ZM77 745L165 931H325L200 745H77Z" />
<glyph unicode="&#xce;" horiz-adv-x="279" d="M55 0V700H224V0H55ZM-50 745L46 931H235L329 745H198L139 861L80 745H-50Z" />
<glyph unicode="&#xcf;" horiz-adv-x="279" d="M55 0V700H224V0H55ZM239 751Q205 751 188 767T170 824Q170 864 187 881T239 899Q274 899 291 882T308 824Q308 784 291 768T239 751ZM41 751Q6 751 -11 767T-28 824Q-28 864 -11 881T41 899Q75 899 92 882T110 824Q110
784 93 768T41 751Z" />
<glyph unicode="&#xd0;" horiz-adv-x="695" d="M6 290V417H338V290H6ZM329 -10Q277 -10 231 -9T143 -6T58 -1V700Q105 704 147 706T232 709T321 710Q444 710 520 673T630 556T665 349Q665 225 628 146T517 28T329 -10ZM342 123Q391 123 423 145T473 217T490 348Q490
435 474 484T424 554T337 576Q319 576 300 576T262 574T228 572V127Q242 127 256 126T284 125T312 124T342 123Z" />
<glyph unicode="&#xd1;" horiz-adv-x="685" d="M55 0V701H215L480 261V700H630V-1H470L206 430V0H55ZM160 756Q158 768 158 780T157 802Q157 854 183 887T264 920Q287 920 307 913T346 896T380 878T408 870Q418 870 424 874T433 888T437 909Q437 912 437 917T435
925H523Q525 913 525 901T526 878Q526 824 500 792T419 760Q396 760 376 767T337 784T304 801T275 809Q262 809 255 800T247 772Q247 769 247 765T249 756H160Z" />
<glyph unicode="&#xd2;" horiz-adv-x="702" d="M351 123Q378 123 401 130T443 152T473 193T492 258T499 351Q499 404 493 443T474 507T443 548T401 570T351 577Q324 577 302 571T261 549T230 508T210 443T203 350Q203 296 210 258T230 193T261 152T302 130T351
123ZM352 -10Q291 -10 241 2T152 40T86 108T45 210T30 350Q30 430 43 489T83 591T149 659T238 698T351 710Q414 710 464 698T553 660T618 593T658 492T672 353Q672 271 659 211T618 108T552 40T463 2T352 -10ZM288 745L163 931H329L418 745H288Z" />
<glyph unicode="&#xd3;" horiz-adv-x="702" d="M351 123Q378 123 401 130T443 152T473 193T492 258T499 351Q499 404 493 443T474 507T443 548T401 570T351 577Q324 577 302 571T261 549T230 508T210 443T203 350Q203 296 210 258T230 193T261 152T302 130T351
123ZM352 -10Q291 -10 241 2T152 40T86 108T45 210T30 350Q30 430 43 489T83 591T149 659T238 698T351 710Q414 710 464 698T553 660T618 593T658 492T672 353Q672 271 659 211T618 108T552 40T463 2T352 -10ZM288 745L376 931H536L411 745H288Z" />
<glyph unicode="&#xd4;" horiz-adv-x="702" d="M351 123Q378 123 401 130T443 152T473 193T492 258T499 351Q499 404 493 443T474 507T443 548T401 570T351 577Q324 577 302 571T261 549T230 508T210 443T203 350Q203 296 210 258T230 193T261 152T302 130T351
123ZM352 -10Q291 -10 241 2T152 40T86 108T45 210T30 350Q30 430 43 489T83 591T149 659T238 698T351 710Q414 710 464 698T553 660T618 593T658 492T672 353Q672 271 659 211T618 108T552 40T463 2T352 -10ZM161 745L257 931H446L540 745H409L350 861L291 745H161Z"
/>
<glyph unicode="&#xd5;" horiz-adv-x="702" d="M351 123Q378 123 401 130T443 152T473 193T492 258T499 351Q499 404 493 443T474 507T443 548T401 570T351 577Q324 577 302 571T261 549T230 508T210 443T203 350Q203 296 210 258T230 193T261 152T302 130T351
123ZM352 -10Q291 -10 241 2T152 40T86 108T45 210T30 350Q30 430 43 489T83 591T149 659T238 698T351 710Q414 710 464 698T553 660T618 593T658 492T672 353Q672 271 659 211T618 108T552 40T463 2T352 -10ZM168 756Q166 768 166 780T165 802Q165 854 191 887T272
920Q295 920 315 913T354 896T388 878T416 870Q426 870 432 874T441 888T445 909Q445 912 445 917T443 925H531Q533 913 533 901T534 878Q534 824 508 792T427 760Q404 760 384 767T345 784T312 801T283 809Q270 809 263 800T255 772Q255 769 255 765T257 756H168Z"
/>
<glyph unicode="&#xd6;" horiz-adv-x="702" d="M351 123Q378 123 401 130T443 152T473 193T492 258T499 351Q499 404 493 443T474 507T443 548T401 570T351 577Q324 577 302 571T261 549T230 508T210 443T203 350Q203 296 210 258T230 193T261 152T302 130T351
123ZM352 -10Q291 -10 241 2T152 40T86 108T45 210T30 350Q30 430 43 489T83 591T149 659T238 698T351 710Q414 710 464 698T553 660T618 593T658 492T672 353Q672 271 659 211T618 108T552 40T463 2T352 -10ZM450 751Q416 751 399 767T381 824Q381 864 398 881T450
899Q485 899 502 882T519 824Q519 784 502 768T450 751ZM252 751Q217 751 200 767T183 824Q183 864 200 881T252 899Q286 899 303 882T321 824Q321 784 304 768T252 751Z" />
<glyph unicode="&#xd7;" horiz-adv-x="498" d="M132 105L43 201L152 319L43 437L132 533L249 409L366 532L454 437L346 319L454 201L366 106L249 229L132 105Z" />
<glyph unicode="&#xd8;" horiz-adv-x="702" d="M150 -13H34L146 146H150L482 625H486L551 717H668L561 568H557L225 88H222L150 -13ZM351 117Q378 117 402 123T445 146T477 188T497 255T505 350Q505 406 498 446T477 512T445 554T403 576T351 583Q323 583 300
577T257 555T225 513T204 446T197 350Q197 295 204 255T224 189T257 146T299 124T351 117ZM351 -10Q288 -10 238 2T148 40T83 108T44 210T30 350Q30 430 42 489T81 591T145 660T235 698T351 710Q415 710 466 698T556 660T620 593T659 492T672 352Q672 271 659 211T619
108T554 40T464 2T351 -10Z" />
<glyph unicode="&#xd9;" horiz-adv-x="686" d="M48 227V700H215V225Q215 203 221 186T239 158T267 140T302 130T343 126Q366 126 385 129T420 140T447 158T465 187T471 225V700H638V227Q638 175 626 136T589 69T528 24T446 -1T343 -10Q287 -10 241 -2T159 24T99
69T61 136T48 227ZM281 745L156 931H322L411 745H281Z" />
<glyph unicode="&#xda;" horiz-adv-x="686" d="M48 227V700H215V225Q215 203 221 186T239 158T267 140T302 130T343 126Q366 126 385 129T420 140T447 158T465 187T471 225V700H638V227Q638 175 626 136T589 69T528 24T446 -1T343 -10Q287 -10 241 -2T159 24T99
69T61 136T48 227ZM281 745L369 931H529L404 745H281Z" />
<glyph unicode="&#xdb;" horiz-adv-x="686" d="M48 227V700H215V225Q215 203 221 186T239 158T267 140T302 130T343 126Q366 126 385 129T420 140T447 158T465 187T471 225V700H638V227Q638 175 626 136T589 69T528 24T446 -1T343 -10Q287 -10 241 -2T159 24T99
69T61 136T48 227ZM154 745L250 931H439L533 745H402L343 861L284 745H154Z" />
<glyph unicode="&#xdc;" horiz-adv-x="686" d="M48 227V700H215V225Q215 203 221 186T239 158T267 140T302 130T343 126Q366 126 385 129T420 140T447 158T465 187T471 225V700H638V227Q638 175 626 136T589 69T528 24T446 -1T343 -10Q287 -10 241 -2T159 24T99
69T61 136T48 227ZM443 751Q409 751 392 767T374 824Q374 864 391 881T443 899Q478 899 495 882T512 824Q512 784 495 768T443 751ZM245 751Q210 751 193 767T176 824Q176 864 193 881T245 899Q279 899 296 882T314 824Q314 784 297 768T245 751Z" />
<glyph unicode="&#xdd;" horiz-adv-x="650" d="M241 0V245L0 699L190 702L326 350L460 702L649 699L410 245V0H241ZM263 745L351 931H511L386 745H263Z" />
<glyph unicode="&#xde;" horiz-adv-x="675" d="M55 0V700H225V633Q249 634 268 634T303 635T329 635Q423 635 485 621T582 577T632 498T647 382Q647 312 633 262T586 180T501 133T373 118Q351 118 337 118T311 118T289 118T263 119T225 121V0H55ZM320 255Q370
255 400 263T447 289T469 330T475 386Q475 417 469 438T449 474T408 495T342 502Q329 502 318 502T295 501T266 500T225 498V258Q241 258 254 257T277 256T297 255T320 255Z" />
<glyph unicode="&#xdf;" horiz-adv-x="720" d="M88 0V384H14V493L88 503V525Q88 601 121 651T222 725T390 750Q523 750 592 709T661 581Q661 521 628 488T524 436Q489 425 475 414T460 385Q460 372 468 363T499 345T561 327Q616 316 650 295T701 242T717 161Q717
124 705 96T672 48T622 15T558 -4T487 -10Q454 -10 420 -7T352 2T288 19L305 135Q332 127 364 121T430 112T490 108Q514 108 530 113T556 128T566 151Q566 164 559 172T532 189T474 208Q413 222 377 242T326 295T310 377Q310 413 322 441T362 490T430 521Q471 536
486 547T502 578Q502 594 493 604T461 620T397 625Q350 625 318 611T268 567T251 494V0H88Z" />
<glyph unicode="&#xe0;" horiz-adv-x="559" d="M21 149Q21 198 39 230T96 281T194 310T334 327V360Q334 390 309 404T237 418Q216 418 189 416T134 409T75 395L49 523Q94 537 148 545T248 554Q336 554 390 533T470 468T496 362V172Q496 147 503 139T521 131Q526
131 532 131T544 134L557 17Q537 5 513 -2T458 -10Q416 -10 390 5T350 53Q324 34 298 20T241 -2T172 -10Q138 -10 111 1T63 32T32 82T21 149ZM186 159Q186 127 200 112T237 97Q253 97 270 102T305 116T334 138V240Q297 237 270 233T223 219T195 196T186 159ZM209
596L82 790H248L340 596H209Z" />
<glyph unicode="&#xe1;" horiz-adv-x="559" d="M21 149Q21 198 39 230T96 281T194 310T334 327V360Q334 390 309 404T237 418Q216 418 189 416T134 409T75 395L49 523Q94 537 148 545T248 554Q336 554 390 533T470 468T496 362V172Q496 147 503 139T521 131Q526
131 532 131T544 134L557 17Q537 5 513 -2T458 -10Q416 -10 390 5T350 53Q324 34 298 20T241 -2T172 -10Q138 -10 111 1T63 32T32 82T21 149ZM186 159Q186 127 200 112T237 97Q253 97 270 102T305 116T334 138V240Q297 237 270 233T223 219T195 196T186 159ZM207
595L299 789H460L332 595H207Z" />
<glyph unicode="&#xe2;" horiz-adv-x="559" d="M21 149Q21 198 39 230T96 281T194 310T334 327V360Q334 390 309 404T237 418Q216 418 189 416T134 409T75 395L49 523Q94 537 148 545T248 554Q336 554 390 533T470 468T496 362V172Q496 147 503 139T521 131Q526
131 532 131T544 134L557 17Q537 5 513 -2T458 -10Q416 -10 390 5T350 53Q324 34 298 20T241 -2T172 -10Q138 -10 111 1T63 32T32 82T21 149ZM186 159Q186 127 200 112T237 97Q253 97 270 102T305 116T334 138V240Q297 237 270 233T223 219T195 196T186 159ZM83
596L184 790H364L462 596H330L272 711L214 596H83Z" />
<glyph unicode="&#xe3;" horiz-adv-x="559" d="M21 149Q21 198 39 230T96 281T194 310T334 327V360Q334 390 309 404T237 418Q216 418 189 416T134 409T75 395L49 523Q94 537 148 545T248 554Q336 554 390 533T470 468T496 362V172Q496 147 503 139T521 131Q526
131 532 131T544 134L557 17Q537 5 513 -2T458 -10Q416 -10 390 5T350 53Q324 34 298 20T241 -2T172 -10Q138 -10 111 1T63 32T32 82T21 149ZM186 159Q186 127 200 112T237 97Q253 97 270 102T305 116T334 138V240Q297 237 270 233T223 219T195 196T186 159ZM91
599Q89 611 89 623T88 645Q88 705 114 734T194 763Q216 763 236 756T275 740T310 723T340 716Q349 716 355 721T365 734T369 751Q369 754 369 759T368 767H454Q456 755 456 744T457 721Q457 661 431 632T351 602Q331 602 311 609T271 625T235 642T205 649Q191 649
184 640T176 616Q176 612 176 607T177 599H91Z" />
<glyph unicode="&#xe4;" horiz-adv-x="559" d="M21 149Q21 198 39 230T96 281T194 310T334 327V360Q334 390 309 404T237 418Q216 418 189 416T134 409T75 395L49 523Q94 537 148 545T248 554Q336 554 390 533T470 468T496 362V172Q496 147 503 139T521 131Q526
131 532 131T544 134L557 17Q537 5 513 -2T458 -10Q416 -10 390 5T350 53Q324 34 298 20T241 -2T172 -10Q138 -10 111 1T63 32T32 82T21 149ZM186 159Q186 127 200 112T237 97Q253 97 270 102T305 116T334 138V240Q297 237 270 233T223 219T195 196T186 159ZM372
612Q338 612 321 628T303 685Q303 725 320 742T372 760Q407 760 424 743T441 685Q441 645 424 629T372 612ZM174 612Q139 612 122 628T105 685Q105 725 122 742T174 760Q208 760 225 743T243 685Q243 645 226 629T174 612Z" />
<glyph unicode="&#xe5;" horiz-adv-x="559" d="M21 149Q21 198 39 230T96 281T194 310T334 327V360Q334 390 309 404T237 418Q216 418 189 416T134 409T75 395L49 523Q94 537 148 545T248 554Q336 554 390 533T470 468T496 362V172Q496 147 503 139T521 131Q526
131 532 131T544 134L557 17Q537 5 513 -2T458 -10Q416 -10 390 5T350 53Q324 34 298 20T241 -2T172 -10Q138 -10 111 1T63 32T32 82T21 149ZM186 159Q186 127 200 112T237 97Q253 97 270 102T305 116T334 138V240Q297 237 270 233T223 219T195 196T186 159ZM273
595Q216 595 187 621T157 693Q157 741 186 766T273 792Q330 792 359 767T389 693Q389 647 360 621T273 595ZM273 660Q306 660 306 694Q306 727 273 727Q239 727 239 694Q239 660 273 660Z" />
<glyph unicode="&#xe6;" horiz-adv-x="854" d="M178 -10Q104 -10 63 31T21 148Q21 196 38 229T92 282T189 314T331 330V360Q331 388 308 403T237 418Q218 418 192 416T136 409T75 395L50 523Q97 537 150 545T249 554Q283 554 309 550T356 538T394 516T426 485H427Q447
509 471 524T524 547T590 554Q671 554 723 528T800 447T826 302Q826 290 826 276T824 249Q793 247 744 243T632 235T499 228Q498 227 498 224T499 217Q500 181 512 160T551 131T621 123Q661 123 710 130T803 147L824 23Q789 12 754 5T681 -6T601 -10Q550 -10 511
-2T442 25T388 72H386Q363 52 339 37T290 12T237 -4T178 -10ZM237 99Q254 99 272 105T307 122T336 145Q333 160 332 177T331 213Q331 221 331 228T331 242Q294 240 267 235T221 220T195 196T186 159Q186 129 200 114T237 99ZM498 320Q531 320 561 321T617 325T659
328Q656 367 647 391T622 427T581 438Q560 438 542 428T512 393T498 320Z" />
<glyph unicode="&#xe7;" horiz-adv-x="518" d="M26 264Q26 361 58 425T154 521T309 554Q341 554 373 552T436 545T490 533L467 397Q443 402 419 405T372 410T327 412Q284 412 255 397T211 350T196 269Q196 222 211 192T257 146T330 130Q354 130 377 132T425 138T475
147L500 17Q457 5 402 -2T294 -10Q160 -10 93 57T26 264ZM184 -109Q198 -113 209 -115T230 -117Q253 -117 266 -106T280 -72Q280 -61 275 -48T262 -20T241 6H359Q371 -8 380 -27T394 -66T399 -105Q399 -136 387 -162T346 -204T268 -220Q249 -220 227 -217T181 -206L184
-109Z" />
<glyph unicode="&#xe8;" horiz-adv-x="559" d="M293 -10Q229 -10 180 5T97 53T44 137T26 260Q26 341 46 397T103 488T190 538T299 554Q419 554 475 495T532 303Q532 293 532 278T530 247Q505 245 469 242T389 236T296 231T196 228Q195 225 195 222T195 215Q195
182 208 161T250 129T323 118Q351 118 382 121T445 129T509 142L528 24Q493 13 456 5T379 -6T293 -10ZM197 325Q223 325 249 326T298 328T339 331T369 332Q368 372 359 395T333 429T290 439Q272 439 257 434T230 417T209 382T197 325ZM227 596L100 790H266L358
596H227Z" />
<glyph unicode="&#xe9;" horiz-adv-x="559" d="M293 -10Q229 -10 180 5T97 53T44 137T26 260Q26 341 46 397T103 488T190 538T299 554Q419 554 475 495T532 303Q532 293 532 278T530 247Q505 245 469 242T389 236T296 231T196 228Q195 225 195 222T195 215Q195
182 208 161T250 129T323 118Q351 118 382 121T445 129T509 142L528 24Q493 13 456 5T379 -6T293 -10ZM197 325Q223 325 249 326T298 328T339 331T369 332Q368 372 359 395T333 429T290 439Q272 439 257 434T230 417T209 382T197 325ZM225 595L317 789H478L350
595H225Z" />
<glyph unicode="&#xea;" horiz-adv-x="559" d="M293 -10Q229 -10 180 5T97 53T44 137T26 260Q26 341 46 397T103 488T190 538T299 554Q419 554 475 495T532 303Q532 293 532 278T530 247Q505 245 469 242T389 236T296 231T196 228Q195 225 195 222T195 215Q195
182 208 161T250 129T323 118Q351 118 382 121T445 129T509 142L528 24Q493 13 456 5T379 -6T293 -10ZM197 325Q223 325 249 326T298 328T339 331T369 332Q368 372 359 395T333 429T290 439Q272 439 257 434T230 417T209 382T197 325ZM101 596L202 790H382L480
596H348L290 711L232 596H101Z" />
<glyph unicode="&#xeb;" horiz-adv-x="559" d="M293 -10Q229 -10 180 5T97 53T44 137T26 260Q26 341 46 397T103 488T190 538T299 554Q419 554 475 495T532 303Q532 293 532 278T530 247Q505 245 469 242T389 236T296 231T196 228Q195 225 195 222T195 215Q195
182 208 161T250 129T323 118Q351 118 382 121T445 129T509 142L528 24Q493 13 456 5T379 -6T293 -10ZM197 325Q223 325 249 326T298 328T339 331T369 332Q368 372 359 395T333 429T290 439Q272 439 257 434T230 417T209 382T197 325ZM390 612Q356 612 339 628T321
685Q321 725 338 742T390 760Q425 760 442 743T459 685Q459 645 442 629T390 612ZM192 612Q157 612 140 628T123 685Q123 725 140 742T192 760Q226 760 243 743T261 685Q261 645 244 629T192 612Z" />
<glyph unicode="&#xec;" horiz-adv-x="257" d="M46 0V544H211V0H46ZM65 596L-62 790H104L196 596H65Z" />
<glyph unicode="&#xed;" horiz-adv-x="257" d="M46 0V544H211V0H46ZM63 595L155 789H316L188 595H63Z" />
<glyph unicode="&#xee;" horiz-adv-x="257" d="M46 0V544H211V0H46ZM-61 596L40 790H220L318 596H186L128 711L70 596H-61Z" />
<glyph unicode="&#xef;" horiz-adv-x="257" d="M46 0V544H211V0H46ZM228 612Q194 612 177 628T159 685Q159 725 176 742T228 760Q263 760 280 743T297 685Q297 645 280 629T228 612ZM30 612Q-5 612 -22 628T-39 685Q-39 725 -22 742T30 760Q64 760 81 743T99 685Q99
645 82 629T30 612Z" />
<glyph unicode="&#xf0;" horiz-adv-x="572" d="M408 398Q384 411 356 416T300 422Q262 422 239 408T205 357T194 255Q194 173 216 140T286 107Q313 107 332 117T362 155T379 231T384 361Q384 443 375 496T342 580T279 623T178 636Q158 636 138 634T96 628T46 617L31
718Q79 730 124 736T214 743Q296 743 358 721T462 652T525 531T546 355Q546 220 519 141T431 26T270 -10Q188 -10 134 18T52 105T25 252Q25 392 82 462T270 533Q298 533 322 531T368 522T413 505L408 398ZM193 548H59L297 679L298 686L403 746L537 745L365 648L360
640L193 548Z" />
<glyph unicode="&#xf1;" horiz-adv-x="579" d="M46 0V544H194V497Q227 517 256 529T314 548T375 554Q428 554 463 535T516 481T534 398V0H370V344Q370 382 353 399T305 417Q289 417 274 414T243 404T210 390V0H46ZM107 599Q105 611 105 623T104 645Q104 705 130
734T210 763Q232 763 252 756T291 740T326 723T356 716Q365 716 371 721T381 734T385 751Q385 754 385 759T384 767H470Q472 755 472 744T473 721Q473 661 447 632T367 602Q347 602 327 609T287 625T251 642T221 649Q207 649 200 640T192 616Q192 612 192 607T193
599H107Z" />
<glyph unicode="&#xf2;" horiz-adv-x="580" d="M26 273Q26 339 39 391T82 479T163 535T290 554Q366 554 417 535T498 480T541 391T554 273Q554 206 540 153T495 64T414 9T290 -10Q217 -10 167 9T85 64T40 153T26 273ZM195 273Q195 213 204 178T235 129T290 114Q325
114 345 128T376 178T386 273Q386 333 377 367T347 415T290 430Q254 430 234 416T204 367T195 273ZM226 596L99 790H265L357 596H226Z" />
<glyph unicode="&#xf3;" horiz-adv-x="580" d="M26 273Q26 339 39 391T82 479T163 535T290 554Q366 554 417 535T498 480T541 391T554 273Q554 206 540 153T495 64T414 9T290 -10Q217 -10 167 9T85 64T40 153T26 273ZM195 273Q195 213 204 178T235 129T290 114Q325
114 345 128T376 178T386 273Q386 333 377 367T347 415T290 430Q254 430 234 416T204 367T195 273ZM224 595L316 789H477L349 595H224Z" />
<glyph unicode="&#xf4;" horiz-adv-x="580" d="M26 273Q26 339 39 391T82 479T163 535T290 554Q366 554 417 535T498 480T541 391T554 273Q554 206 540 153T495 64T414 9T290 -10Q217 -10 167 9T85 64T40 153T26 273ZM195 273Q195 213 204 178T235 129T290 114Q325
114 345 128T376 178T386 273Q386 333 377 367T347 415T290 430Q254 430 234 416T204 367T195 273ZM100 596L201 790H381L479 596H347L289 711L231 596H100Z" />
<glyph unicode="&#xf5;" horiz-adv-x="580" d="M26 273Q26 339 39 391T82 479T163 535T290 554Q366 554 417 535T498 480T541 391T554 273Q554 206 540 153T495 64T414 9T290 -10Q217 -10 167 9T85 64T40 153T26 273ZM195 273Q195 213 204 178T235 129T290 114Q325
114 345 128T376 178T386 273Q386 333 377 367T347 415T290 430Q254 430 234 416T204 367T195 273ZM108 599Q106 611 106 623T105 645Q105 705 131 734T211 763Q233 763 253 756T292 740T327 723T357 716Q366 716 372 721T382 734T386 751Q386 754 386 759T385
767H471Q473 755 473 744T474 721Q474 661 448 632T368 602Q348 602 328 609T288 625T252 642T222 649Q208 649 201 640T193 616Q193 612 193 607T194 599H108Z" />
<glyph unicode="&#xf6;" horiz-adv-x="580" d="M26 273Q26 339 39 391T82 479T163 535T290 554Q366 554 417 535T498 480T541 391T554 273Q554 206 540 153T495 64T414 9T290 -10Q217 -10 167 9T85 64T40 153T26 273ZM195 273Q195 213 204 178T235 129T290 114Q325
114 345 128T376 178T386 273Q386 333 377 367T347 415T290 430Q254 430 234 416T204 367T195 273ZM389 612Q355 612 338 628T320 685Q320 725 337 742T389 760Q424 760 441 743T458 685Q458 645 441 629T389 612ZM191 612Q156 612 139 628T122 685Q122 725 139
742T191 760Q225 760 242 743T260 685Q260 645 243 629T191 612Z" />
<glyph unicode="&#xf7;" horiz-adv-x="530" d="M187 121Q187 155 205 171T265 188Q306 188 324 172T342 121Q342 87 325 71T265 54Q224 54 206 70T187 121ZM187 509Q187 544 205 560T264 577Q306 577 324 561T342 509Q342 475 325 459T265 442Q224 442 206 458T187
509ZM49 250V381H481V250H49Z" />
<glyph unicode="&#xf8;" horiz-adv-x="580" d="M290 -10Q363 -10 413 9T494 64T539 153T553 273Q553 339 540 391T497 479T417 535T290 554Q213 554 162 535T82 480T39 391T26 273Q26 206 40 154T84 65T165 9T290 -10ZM289 107Q253 107 231 121T198 172T188 273Q188
336 197 372T228 423T289 438Q328 438 350 423T381 372T390 273Q390 208 381 172T349 122T289 107ZM25 -6H126L186 72L188 71L453 425H454L554 554H451L392 476L391 477L124 120L123 121L25 -6Z" />
<glyph unicode="&#xf9;" horiz-adv-x="591" d="M206 -10Q158 -10 122 7T66 62T45 154V544H209V193Q209 159 226 143T273 126Q289 126 303 129T332 138T364 152V544H528V169Q528 154 531 146T540 133T554 129Q565 129 575 134L589 16Q576 9 560 3T525 -6T485 -10Q448
-10 424 4T384 45Q355 28 327 16T270 -3T206 -10ZM226 596L99 790H265L357 596H226Z" />
<glyph unicode="&#xfa;" horiz-adv-x="591" d="M206 -10Q158 -10 122 7T66 62T45 154V544H209V193Q209 159 226 143T273 126Q289 126 303 129T332 138T364 152V544H528V169Q528 154 531 146T540 133T554 129Q565 129 575 134L589 16Q576 9 560 3T525 -6T485 -10Q448
-10 424 4T384 45Q355 28 327 16T270 -3T206 -10ZM224 595L316 789H477L349 595H224Z" />
<glyph unicode="&#xfb;" horiz-adv-x="591" d="M206 -10Q158 -10 122 7T66 62T45 154V544H209V193Q209 159 226 143T273 126Q289 126 303 129T332 138T364 152V544H528V169Q528 154 531 146T540 133T554 129Q565 129 575 134L589 16Q576 9 560 3T525 -6T485 -10Q448
-10 424 4T384 45Q355 28 327 16T270 -3T206 -10ZM100 596L201 790H381L479 596H347L289 711L231 596H100Z" />
<glyph unicode="&#xfc;" horiz-adv-x="591" d="M206 -10Q158 -10 122 7T66 62T45 154V544H209V193Q209 159 226 143T273 126Q289 126 303 129T332 138T364 152V544H528V169Q528 154 531 146T540 133T554 129Q565 129 575 134L589 16Q576 9 560 3T525 -6T485 -10Q448
-10 424 4T384 45Q355 28 327 16T270 -3T206 -10ZM389 612Q355 612 338 628T320 685Q320 725 337 742T389 760Q424 760 441 743T458 685Q458 645 441 629T389 612ZM191 612Q156 612 139 628T122 685Q122 725 139 742T191 760Q225 760 242 743T260 685Q260 645 243
629T191 612Z" />
<glyph unicode="&#xfd;" horiz-adv-x="560" d="M162 -209L229 0H207L7 543L186 546L301 132L410 546L581 544L334 -211L162 -209ZM214 595L306 789H467L339 595H214Z" />
<glyph unicode="&#xfe;" horiz-adv-x="584" d="M46 -210V740H210V517Q246 535 284 544T358 554Q457 554 507 486T557 283Q557 178 529 114T441 20T283 -10Q265 -10 247 -9T209 -5V-210H46ZM284 107Q321 107 343 122T377 173T388 270Q388 324 378 356T348 403T296
418Q276 418 255 414T210 400V118Q231 113 249 110T284 107Z" />
<glyph unicode="&#xff;" horiz-adv-x="560" d="M162 -209L229 0H207L7 543L186 546L301 132L410 546L581 544L334 -211L162 -209ZM379 612Q345 612 328 628T310 685Q310 725 327 742T379 760Q414 760 431 743T448 685Q448 645 431 629T379 612ZM181 612Q146 612
129 628T112 685Q112 725 129 742T181 760Q215 760 232 743T250 685Q250 645 233 629T181 612Z" />
<glyph unicode="&#x2013;" horiz-adv-x="432" d="M18 240V364H413V240H18Z" />
<glyph unicode="&#x2014;" horiz-adv-x="784" d="M14 240V364H770V240H14Z" />
<glyph unicode="&#x2018;" horiz-adv-x="223" d="M26 430Q25 439 25 448T25 465Q25 540 39 595T82 700L204 685Q186 632 178 587T169 493Q169 477 170 462T172 430H26Z" />
<glyph unicode="&#x2019;" horiz-adv-x="222" d="M141 430L20 445Q37 498 45 543T54 637Q54 653 53 668T51 700H197Q198 691 198 682T198 665Q198 590 184 535T141 430Z" />
<glyph unicode="&#x201a;" horiz-adv-x="222" d="M136 -220L15 -205Q32 -152 40 -107T49 -13Q49 3 48 18T46 50H192Q193 41 193 32T193 15Q193 -60 179 -115T136 -220Z" />
<glyph unicode="&#x201c;" horiz-adv-x="425" d="M26 430Q25 439 25 448T25 465Q25 540 39 595T82 700L204 685Q186 632 178 587T169 493Q169 477 170 462T172 430H26ZM228 430Q227 439 227 448T227 465Q227 540 241 595T284 700L406 685Q388 632 380 587T371
493Q371 477 372 462T374 430H228Z" />
<glyph unicode="&#x201d;" horiz-adv-x="424" d="M141 430L20 445Q37 498 45 543T54 637Q54 653 53 668T51 700H197Q198 691 198 682T198 665Q198 590 184 535T141 430ZM343 430L222 445Q239 498 247 543T256 637Q256 653 255 668T253 700H399Q400 691 400 682T400
665Q400 590 386 535T343 430Z" />
<glyph unicode="&#x201e;" horiz-adv-x="424" d="M136 -220L15 -205Q32 -152 40 -107T49 -13Q49 3 48 18T46 50H192Q193 41 193 32T193 15Q193 -60 179 -115T136 -220ZM339 -220L218 -205Q235 -152 243 -107T252 -13Q252 3 251 18T249 50H395Q396 41 396 32T396
15Q396 -60 382 -115T339 -220Z" />
<glyph unicode="&#x2022;" horiz-adv-x="386" d="M193 170Q152 170 118 190T64 243T44 318Q44 359 64 393T118 447T193 467Q234 467 267 447T321 393T341 317Q341 277 321 244T268 190T193 170Z" />
<glyph unicode="&#x2039;" horiz-adv-x="287" d="M23 176V368L259 537L264 367L119 271L264 174L259 5L23 176Z" />
<glyph unicode="&#x203a;" horiz-adv-x="287" d="M264 360V184L29 5L24 179L168 271L24 366L29 537L264 360Z" />
</font>
</defs>
</svg>
