<?xml version="1.0" standalone="no"?>
<!DOCTYPE svg PUBLIC "-//W3C//DTD SVG 1.1//EN" "http://www.w3.org/Graphics/SVG/1.1/DTD/svg11.dtd">
<svg xmlns="http://www.w3.org/2000/svg">
<defs >
<font id="Georama" horiz-adv-x="438" ><font-face
    font-family="Georama ExtraCondensed Thin Light"
    units-per-em="1000"
    panose-1="2 11 0 0 3 0 0 2 0 4"
    ascent="968"
    descent="-226"
    alphabetic="0" />
<glyph unicode=" " horiz-adv-x="270" />
<glyph unicode="!" horiz-adv-x="212" d="M79 263L152 740H208L129 263H79ZM32 22Q34 40 37 51T50 67T75 72Q91 72 98 67T104 47Q103 34 101 25T94 10T81 1T61 -2Q45 -2 38 3T32 22Z" />
<glyph unicode="&quot;" horiz-adv-x="287" d="M80 427L119 700H172L124 427H80ZM211 427L250 700H303L255 427H211Z" />
<glyph unicode="#" horiz-adv-x="585" d="M133 465L140 511H237L297 700H349L289 511H422L482 700H534L474 511H553L545 465H461L386 230H476L469 184H373L316 0H264L321 184H188L131 0H78L136 184H56L63 230H149L224 465H133ZM276 465L201 230H334L409 465H276Z" />
<glyph unicode="$" horiz-adv-x="586" d="M542 680L522 630Q493 643 455 651T365 659Q341 659 315 653T265 634T222 605T191 565T180 515Q180 488 193 467T230 429T281 397T339 368T397 336T449 299T485 252T498 191Q498 155 486 126T452 73T400 32T337 5T266
-8L250 -105H204L219 -9Q179 -8 142 -2T75 13T25 29L46 79Q60 73 82 67T130 54T186 45T244 41Q270 41 297 47T349 64T395 93T426 132T438 183Q438 210 425 231T389 269T338 301T280 331T221 362T170 400T134 448T121 509Q121 544 133 573T166 626T216 667T278 694T347
707L363 805H410L394 709Q429 708 457 703T507 691T542 680Z" />
<glyph unicode="%" horiz-adv-x="846" d="M80 700Q80 756 92 804T128 890T183 947T255 968Q299 968 330 952T378 905T394 824Q394 768 382 720T347 634T292 576T219 555Q175 555 144 571T97 619T80 700ZM256 934Q227 934 203 915T161 863T133 786T123 694Q123
640 147 615T219 589Q248 589 272 608T314 661T341 738T351 830Q351 883 327 908T256 934ZM220 -10L180 -3L658 740L699 733L220 -10ZM476 138Q476 194 488 242T524 328T579 385T651 406Q695 406 726 390T774 343T790 262Q790 206 778 158T743 72T688 14T615 -7Q571
-7 540 9T493 57T476 138ZM652 372Q623 372 599 353T557 301T529 224T519 132Q519 78 543 53T615 27Q644 27 668 46T710 99T737 176T747 268Q747 321 723 346T652 372Z" />
<glyph unicode="&amp;" horiz-adv-x="639" d="M244 -10Q173 -10 127 11T57 69T34 156Q34 223 64 274T146 356T265 397Q231 405 205 424T165 473T150 539Q150 585 172 624T237 686T340 710Q372 710 401 703T457 684T502 654L474 616Q457 632 436 642T391 659T344
665Q300 665 270 647T223 599T207 534Q207 495 224 468T274 426T348 411L358 410L351 371H335Q287 371 244 357T166 317T111 251T91 162Q91 125 109 97T162 54T251 38Q295 38 336 57T409 112T461 193T483 294L529 292Q524 226 500 171T438 76T350 13T244 -10ZM363
242L326 254Q329 279 341 297T373 326T418 336Q437 336 453 333T484 324T515 314T549 310Q579 310 596 326T617 371L655 366Q654 340 643 319T611 285T563 272Q542 272 525 276T492 285T460 294T422 298Q399 298 383 284T363 242Z" />
<glyph unicode="&apos;" horiz-adv-x="157" d="M80 427L119 700H172L124 427H80Z" />
<glyph unicode="(" horiz-adv-x="294" d="M62 48Q62 106 69 176T92 320T129 464T183 594T254 695T343 750L340 702Q306 691 276 653T220 560T174 438T139 303T118 169T110 52Q110 -9 121 -56T153 -134T203 -175L190 -220Q157 -210 133 -187T93 -128T70 -49T62 48Z" />
<glyph unicode=")" horiz-adv-x="294" d="M229 482Q229 420 221 349T197 203T157 60T102 -67T32 -165T-52 -220L-50 -173Q-15 -160 15 -122T72 -27T118 96T152 232T173 367T181 483Q181 540 171 584T141 660T89 702L100 750Q145 737 173 700T215 608T229 482Z" />
<glyph unicode="*" horiz-adv-x="309" d="M98 364L75 383L162 503L61 553L75 583L178 541L203 683H235L215 541L330 582L336 552L218 502L266 383L238 364L187 476L98 364Z" />
<glyph unicode="+" horiz-adv-x="433" d="M161 84L191 271H48L57 321H199L229 509H279L250 321H392L384 271H241L212 84H161Z" />
<glyph unicode="," horiz-adv-x="164" d="M20 47L73 54Q75 45 76 36T77 16Q77 -8 70 -37T49 -96T14 -153T-36 -199L-71 -180Q-45 -162 -25 -131T8 -65T21 3Q22 13 22 24T20 47Z" />
<glyph unicode="-" horiz-adv-x="305" d="M37 248L46 301H268L259 248H37Z" />
<glyph unicode="." horiz-adv-x="166" d="M9 23Q10 40 14 51T27 67T51 72Q68 72 74 67T80 48Q80 35 78 26T71 11T58 1T38 -2Q21 -2 15 3T9 23Z" />
<glyph unicode="/" horiz-adv-x="323" d="M-69 -210L339 740H389L-19 -210H-69Z" />
<glyph unicode="0" horiz-adv-x="586" d="M262 -11Q187 -11 138 16T65 95T41 227Q41 281 49 337T75 447T117 549T177 633T253 689T347 710Q422 710 470 684T543 606T567 474Q567 419 559 363T533 252T490 150T430 66T354 10T262 -11ZM265 41Q305 41 338 59T399
111T446 187T480 278T501 377T508 474Q509 536 491 577T437 638T344 659Q303 659 270 641T210 590T162 515T128 424T108 325T101 227Q101 166 118 125T172 62T265 41Z" />
<glyph unicode="1" horiz-adv-x="585" d="M40 0L48 51H263L355 629L123 508L113 559L395 703H425L321 51H507L499 0H40Z" />
<glyph unicode="2" horiz-adv-x="586" d="M45 41Q119 96 180 149T288 253T368 354T418 451T435 543Q435 580 419 605T373 644T307 657Q281 657 254 651T200 634T147 605L130 649Q158 669 189 682T255 702T323 710Q360 710 391 701T446 672T481 624T494 558Q494
507 479 456T433 355T359 255T259 153T135 50H492L484 0H41L45 41Z" />
<glyph unicode="3" horiz-adv-x="586" d="M5 52L32 95Q59 77 89 65T156 47T237 41Q298 41 345 62T418 123T445 218Q445 283 409 313T302 343H183L190 388H302Q336 388 365 398T416 427T451 474T464 538Q464 595 422 627T307 659Q282 659 254 656T199 645T146 624L130
669Q158 685 190 693T256 706T318 710Q417 710 469 667T521 551Q521 502 503 466T456 406T392 371Q425 364 450 346T490 298T504 221Q504 177 491 141T453 76T394 29T319 0T232 -10Q161 -10 105 5T5 52Z" />
<glyph unicode="4" horiz-adv-x="586" d="M30 174L33 217L454 703L500 698L425 222H538L531 174H417L390 -2H330L359 174H30ZM95 222H367L430 613L95 222Z" />
<glyph unicode="5" horiz-adv-x="586" d="M23 53L47 98Q69 83 96 70T157 49T233 41Q291 41 332 59T400 107T439 172T452 240Q452 278 438 303T394 340T314 353H114L106 364L193 700H545L537 647H229L168 402H339Q427 402 469 363T511 251Q511 205 496 159T448
75T361 13T229 -10Q183 -10 146 -3T79 18T23 53Z" />
<glyph unicode="6" horiz-adv-x="586" d="M297 -10Q219 -10 165 18T83 102T55 242Q55 328 71 401T118 531T193 628T294 689T417 710Q465 710 507 701T582 674L560 627Q528 643 493 650T420 658Q358 658 306 636T215 570Q165 517 138 434T111 246Q111 177 132 131T196
63T300 40Q355 40 396 64T461 130T484 229Q484 278 467 310T415 359T326 376Q284 376 243 365T166 332T105 278L109 332Q138 365 176 385T257 415T339 425Q403 425 447 405T516 342T540 237Q540 190 529 152T495 83T444 32T377 1T297 -10Z" />
<glyph unicode="7" horiz-adv-x="586" d="M150 0Q159 56 174 106T213 205T270 309T347 429L494 647H108L116 700H570L563 657L403 414Q357 344 324 289T269 185T233 93T212 0H150Z" />
<glyph unicode="8" horiz-adv-x="586" d="M266 -10Q186 -10 132 12T50 74T23 164Q23 219 47 264T114 341T210 393L253 371Q204 354 165 326T104 259T82 174Q82 112 130 75T271 37Q315 37 351 47T414 76T455 125T470 193Q470 231 455 256T414 299T356 328T289 350T222
374T163 406T122 453T107 524Q107 570 125 604T177 663T254 698T351 710Q425 710 471 690T538 635T560 556Q560 503 540 465T486 398T406 345L365 365Q409 387 440 412T487 471T504 548Q504 597 467 629T348 661Q309 661 276 653T217 627T178 587T164 533Q164 497
179 474T220 434T279 406T346 384T414 359T473 325T514 275T530 200Q530 148 511 109T456 43T373 4T266 -10Z" />
<glyph unicode="9" horiz-adv-x="586" d="M314 710Q432 710 494 647T556 458Q556 372 540 299T493 169T418 72T317 11T194 -10Q146 -10 104 -1T29 26L51 73Q83 57 119 49T192 41Q255 41 306 63T397 128Q448 182 474 266T500 454Q500 524 479 569T415 637T311 660Q256
660 215 636T150 570T127 471Q127 423 144 390T196 341T285 324Q328 324 369 335T445 368T506 422L502 368Q473 335 435 315T355 285T272 275Q209 275 164 295T95 358T71 463Q71 541 102 596T189 680T314 710Z" />
<glyph unicode=":" horiz-adv-x="166" d="M10 23Q11 40 15 51T28 67T52 72Q69 72 75 67T81 48Q81 35 79 26T72 11T59 1T39 -2Q22 -2 16 3T10 23ZM83 487Q84 504 88 515T101 531T125 536Q142 536 148 531T154 512Q154 499 152 490T145 475T132 465T112 462Q95 462
89 467T83 487Z" />
<glyph unicode=";" horiz-adv-x="166" d="M20 47L73 54Q75 45 76 36T77 16Q77 -8 70 -37T49 -96T14 -153T-36 -199L-71 -180Q-45 -162 -25 -131T8 -65T21 3Q22 13 22 24T20 47ZM83 487Q84 504 88 515T101 531T125 536Q142 536 148 531T154 512Q154 499 152 490T145
475T132 465T112 462Q95 462 89 467T83 487Z" />
<glyph unicode="&lt;" horiz-adv-x="433" d="M355 79L46 268L55 323L423 511L415 458L99 294L363 131L355 79Z" />
<glyph unicode="=" horiz-adv-x="428" d="M370 215L362 164H32L40 215H370ZM402 427L394 376H65L73 427H402Z" />
<glyph unicode="&gt;" horiz-adv-x="433" d="M385 267L16 78L25 132L340 295L76 458L84 509L394 320L385 267Z" />
<glyph unicode="?" horiz-adv-x="413" d="M159 262L174 362Q229 385 267 410T328 462T361 521T372 590Q372 627 357 650T317 684T259 696Q219 696 175 682T88 639L75 685Q105 706 138 720T207 742T277 750Q307 750 335 742T386 717T421 671T434 603Q434 533 409
484T335 400T220 333L209 262H159ZM115 21Q116 39 120 50T134 66T158 72Q174 72 180 67T187 48Q186 30 182 19T169 3T144 -2Q128 -2 122 3T115 21Z" />
<glyph unicode="@" horiz-adv-x="702" d="M282 -121Q203 -121 147 -90T61 1T31 146Q31 241 50 327T106 486T192 611T305 694T439 723Q516 723 572 695T658 611T688 474Q688 417 679 360T654 250T614 157T563 92T504 68Q482 68 469 76T447 99T436 133T433 174Q415
141 390 118T335 83T277 70Q228 70 201 98T174 182Q174 233 186 284T220 381T273 464T341 522T420 543Q439 543 459 540T500 532T544 518L480 226Q474 198 473 170T479 124T511 105Q533 105 554 126T593 184T625 268T646 366T654 469Q654 544 628 593T553 666T435
690Q370 690 314 662T211 584T132 466T82 319T64 154Q64 75 90 21T166 -62T285 -90Q334 -90 380 -75T466 -29L479 -53Q451 -75 419 -90T352 -113T282 -121ZM298 116Q324 116 350 132T399 176T436 243L491 488Q470 495 452 498T412 502Q384 502 357 484T307 434T265
364T237 281T226 196Q226 157 244 137T298 116Z" />
<glyph unicode="A" horiz-adv-x="548" d="M-29 0L306 709H375L490 0H426L395 196H128L35 0H-29ZM148 246H391L331 643L148 246Z" />
<glyph unicode="B" horiz-adv-x="569" d="M30 0L140 699Q190 704 227 706T292 709T344 710Q414 710 458 697T523 655T545 579Q545 545 536 512T508 450T464 399T406 368Q441 362 467 345T507 299T522 233Q522 187 508 149T468 81T407 31T331 1T245 -10Q219 -10
195 -10T146 -8T92 -5T30 0ZM149 382H330Q360 382 388 396T438 436T473 494T487 561Q487 599 471 621T421 652T337 661Q313 661 289 660T241 658T191 654L149 382ZM141 335L95 47Q118 46 136 45T173 42T209 40T249 39Q284 39 316 47T375 71T421 109T452 161T463
227Q463 257 452 277T421 310T379 329T333 335H141Z" />
<glyph unicode="C" horiz-adv-x="555" d="M317 -10Q231 -10 171 16T79 95T48 229Q48 337 72 425T142 577T252 675T398 710Q430 710 460 708T518 699T576 683L560 634Q533 642 507 647T454 655T398 658Q331 658 278 627T188 538T130 404T109 236Q109 170 134 127T209
63T327 42Q372 42 412 48T485 64L492 15Q456 2 413 -4T317 -10Z" />
<glyph unicode="D" horiz-adv-x="617" d="M223 -10Q183 -10 152 -9T91 -7T28 -2L140 703Q186 707 227 708T312 710Q359 710 401 701T477 672T536 620T574 542T588 434Q588 330 562 248T486 109T371 21T223 -10ZM226 38Q278 38 324 55T408 105T473 187T514 296T529
431Q529 484 518 522T486 587T438 630T379 653T312 660Q291 660 269 660T226 658T192 655L94 43Q117 41 137 40T179 39T226 38Z" />
<glyph unicode="E" horiz-adv-x="514" d="M29 0L139 700H537L528 647H190L149 392H467L458 340H141L96 53H450L441 0H29Z" />
<glyph unicode="F" horiz-adv-x="488" d="M29 0L140 700H536L527 648H190L144 357H436L428 306H136L87 0H29Z" />
<glyph unicode="G" horiz-adv-x="578" d="M302 -10Q245 -10 198 4T118 48T66 122T47 227Q47 311 62 384T107 518T180 621T278 687T399 710Q447 710 491 703T574 683L556 635Q529 643 504 648T453 656T398 659Q332 659 278 627T186 538T127 402T106 232Q106 181
121 145T163 85T227 50T309 39Q348 39 381 45T438 60L476 299H309L316 346H537L486 23Q454 9 407 0T302 -10Z" />
<glyph unicode="H" horiz-adv-x="631" d="M29 0L140 700H199L140 331H509L568 700H626L514 0H456L501 279H132L88 0H29Z" />
<glyph unicode="I" horiz-adv-x="204" d="M29 0L140 700H199L88 0H29Z" />
<glyph unicode="J" horiz-adv-x="432" d="M-26 18L-11 70Q8 64 28 58T72 48T126 44Q170 44 205 59T263 108T296 198L368 648H110L119 700H435L353 188Q343 123 315 79T240 13T131 -10Q96 -10 68 -6T17 4T-26 18Z" />
<glyph unicode="K" horiz-adv-x="559" d="M28 0L140 700H198L88 0H28ZM490 -9Q467 -9 447 -1T404 28T353 86L133 371L142 444L392 134Q419 101 437 83T472 59T506 52Q509 52 512 52T518 53L514 -5Q512 -6 507 -7T498 -9T490 -9ZM235 304L205 343Q233 362 266 388T337
448T411 522T484 610T548 710L593 684Q566 632 532 584T459 495T381 418T304 353T235 304Z" />
<glyph unicode="L" horiz-adv-x="462" d="M28 0L140 700H198L95 52H415L406 0H28Z" />
<glyph unicode="M" horiz-adv-x="706" d="M28 0L140 700H200L359 323L636 700H701L589 0H534L632 609L364 249H333L179 608L84 0H28Z" />
<glyph unicode="N" horiz-adv-x="626" d="M29 0L141 703H197L471 92L567 700H621L510 -3H455L179 604L84 0H29Z" />
<glyph unicode="O" horiz-adv-x="641" d="M294 -9Q179 -9 118 63T56 274Q56 339 65 396T93 502T139 588T201 654T279 695T371 709Q487 709 548 637T609 426Q609 361 600 304T572 198T527 112T465 46T387 5T294 -9ZM297 42Q338 42 372 55T435 92T484 151T520 229T542
322T550 427Q550 542 502 600T368 658Q328 658 294 645T231 608T181 549T145 471T123 378T116 273Q116 158 164 100T297 42Z" />
<glyph unicode="P" horiz-adv-x="564" d="M29 0L141 702Q178 704 206 705T255 708T291 709T320 710Q407 710 461 689T541 627T566 522Q566 455 548 404T493 319T404 268T279 251Q248 251 225 251T179 252T128 254L88 0H29ZM191 654L136 305Q166 304 189 303T234
302T279 301Q338 301 381 315T452 357T493 423T507 512Q507 564 488 596T428 644T317 660Q305 660 292 660T265 659T232 657T191 654Z" />
<glyph unicode="Q" horiz-adv-x="641" d="M446 -193Q415 -193 386 -183T334 -149T294 -89T271 1L323 5Q330 -47 349 -79T397 -127T458 -143Q499 -143 532 -126L534 -174Q515 -183 493 -188T446 -193ZM294 -9Q179 -9 118 63T56 274Q56 339 65 396T93 502T139 588T201
654T279 695T371 709Q487 709 548 637T609 426Q609 361 600 304T572 198T527 112T465 46T387 5T294 -9ZM297 42Q338 42 372 55T435 92T484 151T520 229T542 322T550 427Q550 542 502 600T368 658Q328 658 294 645T231 608T181 549T145 471T123 378T116 273Q116
158 164 100T297 42Z" />
<glyph unicode="R" horiz-adv-x="586" d="M29 0L140 702Q178 705 208 707T267 709T326 710Q393 710 438 699T510 665T549 608T561 527Q561 451 532 398T448 317T319 288L309 284Q276 285 247 285T189 285T134 287L88 0H29ZM523 -10Q501 -10 480 -1T438 30T394
87T349 175T299 299L357 312Q378 251 398 207T437 132T473 83T506 56T536 47Q539 47 542 47T550 49L547 -6Q543 -7 536 -8T523 -10ZM311 334Q371 334 413 355T478 420T500 525Q500 561 492 586T464 628T410 653T324 661Q304 661 289 661T259 661T228 659T192 656L142
337Q166 336 190 335T243 334T311 334Z" />
<glyph unicode="S" horiz-adv-x="522" d="M514 680L494 629Q456 644 417 651T333 658Q276 658 234 642T169 595T146 525Q146 493 159 470T196 429T248 397T308 368T368 338T420 301T456 251T470 182Q470 125 442 82T357 14T213 -10Q156 -10 98 0T-10 29L11 80Q41
68 76 60T148 47T222 42Q285 42 326 58T388 105T409 175Q409 208 396 231T359 272T308 304T248 332T188 362T136 399T99 450T85 521Q85 578 114 620T201 686T341 710Q373 710 401 707T457 697T514 680Z" />
<glyph unicode="T" horiz-adv-x="478" d="M529 650H327L224 0H165L268 650H67L75 700H537L529 650Z" />
<glyph unicode="U" horiz-adv-x="613" d="M260 -10Q157 -10 103 31T48 150Q48 161 48 170T52 195L131 700H189L110 193Q98 120 140 81T270 41Q453 41 478 201L558 700H616L537 203Q520 95 452 43T260 -10Z" />
<glyph unicode="V" horiz-adv-x="530" d="M248 0H180L73 701L135 703L226 61Q283 169 327 251T402 394T455 499T489 575T506 629T511 673Q511 679 511 685T508 700H568Q570 693 570 685T571 670Q570 648 564 624T544 565T508 482T450 367T365 210T248 0Z" />
<glyph unicode="W" horiz-adv-x="805" d="M571 -1H504L448 562Q392 424 333 283T213 -1H146L74 700H136L195 76Q224 145 253 215T312 357T369 501T426 643H494L547 71Q607 200 648 292T717 448T759 553T780 623T787 674Q787 682 787 687T785 700H844Q846 694 846
688T846 674Q846 653 839 623T814 545T765 425T687 248T571 -1Z" />
<glyph unicode="X" horiz-adv-x="544" d="M440 -5L275 321Q228 281 191 243T128 166T85 86T64 0H-1Q4 51 24 98T78 190T155 280T252 367L81 699L144 706L297 400Q345 443 381 481T442 554T483 626T505 704L569 701Q563 665 549 631T512 563T461 497T396 429T318
356L503 1L440 -5Z" />
<glyph unicode="Y" horiz-adv-x="502" d="M182 0L229 290L70 699L133 705L267 339Q317 387 352 429T412 510T453 587T481 665Q484 675 486 685T492 705L555 701Q552 691 549 681T543 660Q532 625 517 591T482 521T433 450T369 375T288 290L240 0H182Z" />
<glyph unicode="Z" horiz-adv-x="508" d="M-21 0L-13 46L459 649H106L114 700H537L530 653L57 51H457L449 0H-21Z" />
<glyph unicode="[" horiz-adv-x="294" d="M65 -165H208L201 -210H10L161 740H353L345 696H202L65 -165Z" />
<glyph unicode="\" horiz-adv-x="355" d="M130 740L305 -210H258L83 740H130Z" />
<glyph unicode="]" horiz-adv-x="294" d="M-54 -165H88L225 695H82L90 740H280L129 -210H-61L-54 -165Z" />
<glyph unicode="^" horiz-adv-x="432" d="M43 267L258 708H309L387 267H341L274 648L90 267H43Z" />
<glyph unicode="_" horiz-adv-x="734" d="M-58 -151L-50 -102H666L658 -151H-58Z" />
<glyph unicode="`" horiz-adv-x="334" d="M225 596L127 790H184L271 596H225Z" />
<glyph unicode="a" horiz-adv-x="494" d="M402 -10Q386 -10 373 -4T350 14T337 41Q317 26 292 15T239 -3T183 -10Q134 -10 100 10T47 71T29 171Q29 284 64 367T163 497T314 544Q333 544 353 542T393 536T429 527T462 514Q446 414 435 342T415 220T402 140T395
96T393 79Q393 59 401 50T425 40Q433 40 440 41T455 46V1Q444 -4 431 -7T402 -10ZM335 83L397 479Q379 488 356 492T306 497Q243 497 194 457T116 345T87 180Q87 112 118 77T203 41Q225 41 248 46T294 61T335 83Z" />
<glyph unicode="b" horiz-adv-x="493" d="M201 740L160 486Q199 512 238 528T321 544Q369 544 400 524T448 465T464 367Q464 291 444 223T386 102T297 20T182 -10Q137 -10 99 -3T28 13L143 740H201ZM297 493Q264 493 228 480T153 438L92 51Q110 46 134 42T186
37Q234 37 274 63T344 134T390 236T406 354Q406 417 381 455T297 493Z" />
<glyph unicode="c" horiz-adv-x="429" d="M220 -10Q159 -10 117 11T52 72T30 168Q30 250 49 318T104 437T191 516T304 544Q327 544 350 542T395 536T440 524L423 475Q391 485 361 488T301 492Q255 492 216 468T148 401T103 300T87 178Q87 134 105 104T156 57T234
41Q260 41 282 43T324 49T364 59L370 13Q350 7 327 2T276 -7T220 -10Z" />
<glyph unicode="d" horiz-adv-x="497" d="M402 -10Q384 -10 371 -5T348 12T335 40Q316 26 291 15T237 -3T180 -10Q134 -10 100 9T46 66T27 163Q27 247 47 316T104 437T189 516T297 544Q330 544 356 540T404 529L438 740H495Q486 682 477 623T459 506T441 396T425
295T412 208T401 139T394 94T391 75Q391 58 399 49T423 40Q431 40 438 41T453 46L454 1Q442 -4 428 -7T402 -10ZM199 42Q234 42 270 52T333 81L397 483Q377 488 354 492T301 497Q254 497 215 471T147 399T102 293T86 166Q86 127 100 99T140 56T199 42Z" />
<glyph unicode="e" horiz-adv-x="463" d="M81 281Q112 280 146 282T215 290Q302 305 351 339T401 425Q401 461 376 479T301 497Q240 497 192 460T117 355T89 199Q89 148 106 113T155 58T233 39Q257 39 283 43T336 54T391 73L401 26Q362 9 316 0T224 -10Q164 -10
121 14T55 84T32 194Q32 272 51 336T107 446T195 518T311 544Q356 544 389 531T439 493T457 434Q457 362 396 315T226 248Q187 241 148 240T76 240L81 281Z" />
<glyph unicode="f" horiz-adv-x="305" d="M-39 -220Q-56 -220 -71 -218T-103 -209L-90 -162Q-78 -166 -68 -168T-48 -170Q-20 -170 -2 -154T28 -106T48 -23L121 442H41L48 482L129 489Q151 627 199 688T332 750Q362 750 390 745T449 729L433 681Q417 687 401 690T369
696T333 698Q273 698 238 649T186 489H341L334 442H179L105 -25Q95 -92 77 -135T31 -199T-39 -220Z" />
<glyph unicode="g" horiz-adv-x="491" d="M0 -191L16 -144Q48 -157 84 -164T155 -171Q203 -171 236 -154T290 -99T320 -5L326 38Q305 25 279 16T228 1T180 -5Q132 -5 98 15T46 74T28 165Q28 242 46 310T100 431T190 514T316 544Q335 544 354 542T393 537T429 528T460
517L377 -5Q360 -114 307 -167T160 -220Q119 -220 78 -212T0 -191ZM396 480Q379 487 359 492T307 497Q257 497 217 471T147 401T102 300T86 181Q86 114 117 79T203 43Q223 43 246 49T293 65T334 87L396 480Z" />
<glyph unicode="h" horiz-adv-x="506" d="M407 74Q407 57 415 49T439 41Q446 41 453 42T469 47V0Q457 -5 443 -7T416 -10Q396 -10 380 -3T355 19T346 55Q346 65 350 92T359 157T371 234T384 312T393 378T397 418Q397 451 379 472T315 494Q287 494 261 487T208
469T153 442L84 0H26L143 740H201L161 490Q191 505 220 517T280 537T343 544Q383 544 408 531T446 493T458 436Q458 426 454 398T445 331T432 252T420 174T411 110T407 74Z" />
<glyph unicode="i" horiz-adv-x="197" d="M26 0L111 534H168L83 0H26ZM170 726Q186 726 193 721T200 703Q199 685 195 675T181 660T157 655Q143 655 135 660T127 678Q129 696 133 706T146 721T170 726Z" />
<glyph unicode="j" horiz-adv-x="205" d="M178 726Q194 726 201 721T208 703Q207 685 203 675T189 660T165 655Q151 655 144 660T136 678Q138 696 141 706T154 721T178 726ZM176 534L84 -50Q75 -105 59 -143T15 -200T-53 -220Q-66 -220 -85 -218T-119 -210L-107
-161Q-93 -167 -82 -168T-60 -170Q-21 -170 -2 -138T27 -48L119 534H176Z" />
<glyph unicode="k" horiz-adv-x="460" d="M26 0L143 740H201L84 0H26ZM400 -10Q378 -10 357 3T309 46T244 129L117 309L133 369L264 190Q305 134 332 102T378 58T412 45Q417 45 421 45T431 47L428 -5Q422 -7 415 -8T400 -10ZM210 252L176 285Q220 311 255 339T319
398T371 464T416 543L473 534Q447 479 408 427T318 331T210 252Z" />
<glyph unicode="l" horiz-adv-x="231" d="M143 740H201L104 132Q103 120 101 108T99 84Q99 73 103 64T117 48T145 42Q158 42 170 44T198 51V4Q181 -2 161 -6T119 -10Q77 -10 58 11T39 67Q39 78 40 89T43 110L143 740Z" />
<glyph unicode="m" horiz-adv-x="759" d="M668 -10Q649 -10 633 -3T608 19T599 55Q599 66 602 93T612 157T624 234T637 311T646 376T650 416Q650 451 632 472T569 493Q531 493 496 479T427 442Q428 437 428 430T428 417Q427 408 424 388T417 339T408 276T397 205T386
132T375 62T365 0H308Q313 29 318 64T329 138T341 213T352 285T362 347T368 393T371 415Q371 437 364 454T339 482T291 493Q258 493 224 480T153 444L83 0H26L110 534H163L156 488Q198 513 238 528T319 544Q361 544 386 527T421 482Q451 501 479 515T537 536T595
544Q635 544 660 531T698 493T711 437Q711 426 707 398T697 332T685 253T672 175T662 111T658 74Q658 58 666 49T691 40Q698 40 705 41T721 46L722 1Q709 -5 695 -7T668 -10Z" />
<glyph unicode="n" horiz-adv-x="505" d="M110 534H163L156 486Q187 504 217 516T278 536T342 544Q401 544 429 515T458 436Q458 425 454 397T444 331T432 252T420 173T410 110T406 74Q406 58 414 49T438 40Q445 40 452 41T468 46V1Q456 -5 442 -7T415 -10Q395
-10 380 -3T356 19T347 54Q347 65 350 92T360 157T372 234T384 312T393 376T397 416Q397 451 379 472T314 494Q287 494 261 488T208 470T153 443L83 0H26L110 534Z" />
<glyph unicode="o" horiz-adv-x="488" d="M213 -10Q154 -10 114 10T54 71T33 174Q33 223 40 268T60 355T94 430T140 491T200 530T273 544Q329 544 369 524T430 462T451 358Q451 309 445 263T425 175T391 100T345 41T286 3T213 -10ZM211 37Q241 37 266 49T312 84T347
136T373 202T388 277T394 359Q394 429 362 463T273 497Q244 497 219 485T174 449T138 396T111 329T95 255T90 176Q90 104 120 71T211 37Z" />
<glyph unicode="p" horiz-adv-x="493" d="M-7 -210L111 539H162L157 485Q196 511 235 527T321 544Q369 544 400 524T448 465T464 366Q464 290 445 222T390 102T303 20T188 -10Q156 -10 131 -6T84 3L50 -210H-7ZM183 37Q233 37 274 63T345 133T390 235T406 353Q406
423 379 458T298 493Q263 493 226 479T153 438L92 51Q109 46 132 42T183 37Z" />
<glyph unicode="q" horiz-adv-x="490" d="M460 521L344 -210H286L327 46Q291 20 254 5T174 -10Q129 -10 96 9T45 66T27 157Q27 210 38 265T70 369T125 458T204 521T307 544Q335 544 362 541T414 532T460 521ZM397 483Q378 488 353 492T300 497Q258 497 224 478T164
426T120 351T93 262T84 167Q84 129 97 101T136 57T195 41Q229 41 263 53T334 92L397 483Z" />
<glyph unicode="r" horiz-adv-x="350" d="M162 534L152 467Q183 494 211 511T265 536T318 544Q339 544 357 541T389 533L372 478Q356 483 339 485T304 488Q270 488 232 471T148 414L82 0H26L110 534H162Z" />
<glyph unicode="s" horiz-adv-x="425" d="M-8 21L9 69Q29 61 55 54T112 42T172 37Q222 37 255 49T304 84T320 134Q320 163 306 182T270 215T220 240T165 265T115 295T78 337T64 398Q64 430 76 456T113 503T177 533T268 544Q306 544 344 537T409 519L394 472Q375
479 354 484T309 493T261 497Q212 497 181 485T135 452T120 403Q120 376 133 357T170 325T220 300T275 276T325 246T362 204T376 142Q376 114 368 90T342 48T300 17T241 -3T166 -10Q114 -10 70 -1T-8 21Z" />
<glyph unicode="t" horiz-adv-x="334" d="M288 59L290 12Q257 0 227 -5T171 -10Q136 -10 112 1T76 34T63 93Q63 104 64 119T68 150L121 487H34L41 527L129 534L160 664H207L186 534H361L353 487H179L125 153Q124 142 123 133T122 114Q122 80 139 61T197 42Q219
42 242 47T288 59Z" />
<glyph unicode="u" horiz-adv-x="497" d="M155 -10Q100 -10 71 17T42 91Q42 101 44 118T50 166T62 245T81 364T108 534H165Q148 425 137 353T118 236T108 167T103 131T101 111Q101 79 120 60T180 40Q207 40 232 45T282 62T336 89L405 534H462Q442 407 429 325T408
194T398 122T393 90T392 78Q392 58 399 49T424 40Q428 40 436 41T454 46L455 5Q443 -2 427 -6T401 -10Q374 -10 357 4T336 49Q305 30 276 17T217 -3T155 -10Z" />
<glyph unicode="v" horiz-adv-x="429" d="M201 -2H134L46 535L105 537L177 55Q228 153 263 221T322 336T358 416T378 476T386 534H445Q444 505 439 478T421 420T390 351T345 264T283 149T201 -2Z" />
<glyph unicode="w" horiz-adv-x="662" d="M464 0H399L352 429Q331 377 309 324T265 216T220 107T176 0H107L46 535L101 537L152 57Q182 132 212 206T271 354T331 506H394L440 57Q485 153 516 221T568 336T599 416T615 477T622 534H676Q675 503 669 472T648 401T610
309T550 180T464 0Z" />
<glyph unicode="x" horiz-adv-x="436" d="M401 534H458Q452 506 439 475T403 410T345 341T258 268L385 1L325 -4L217 238Q184 214 159 192T114 147T82 102T59 54T44 0H-14Q-8 38 7 73T47 143T108 212T196 283L75 534L136 541L239 310Q282 343 310 371T355 426T383
478T401 534Z" />
<glyph unicode="y" horiz-adv-x="434" d="M394 539L452 537Q447 495 433 444T396 337T346 222T286 103T221 -13T155 -122T91 -218L33 -208Q65 -165 99 -113T166 -3H149L41 539L101 542L197 44Q224 92 250 142T299 244T342 346T374 446T394 539Z" />
<glyph unicode="z" horiz-adv-x="445" d="M-1 0L5 44L371 486H82L90 534H449L440 488L77 48H394L387 0H-1Z" />
<glyph unicode="{" horiz-adv-x="305" d="M51 -108Q51 -64 62 -26T87 48T113 121T124 198Q124 219 116 233T87 247H73L80 293H95Q121 293 134 312T153 361T158 421Q158 449 156 477T154 541Q154 577 161 612T185 676T230 722T302 740H348L341 694H307Q276 694
256 681T225 645T210 598T205 547Q205 522 206 502T208 462T209 421Q209 388 202 356T179 300T136 269Q158 258 165 239T173 197Q173 159 162 123T138 51T114 -21T103 -95Q103 -114 109 -130T129 -155T168 -164H205L197 -210H149Q115 -210 94 -198T62 -162T51 -108Z"
/>
<glyph unicode="|" horiz-adv-x="194" d="M203 790L44 -210H-4L155 790H203Z" />
<glyph unicode="}" horiz-adv-x="305" d="M251 638Q251 594 240 556T214 483T188 412T177 336Q177 316 185 302T214 288H228L221 241H206Q181 241 168 222T149 174T143 114Q143 87 145 56T147 -14Q147 -48 140 -82T116 -146T71 -192T-1 -210H-47L-39 -163H-6Q24
-163 44 -150T75 -115T90 -67T95 -16Q95 9 94 30T92 71T91 113Q91 147 98 179T122 235T164 265Q143 276 135 295T127 337Q127 376 138 412T162 482T187 552T198 625Q198 645 192 660T171 685T132 694H97L104 740H152Q186 740 208 728T240 692T251 638Z" />
<glyph unicode="~" horiz-adv-x="437" d="M372 253Q356 237 339 227T299 217Q272 217 252 233T215 269T180 306T137 322Q122 322 109 317T85 303T63 283L72 338Q81 348 92 356T117 368T146 373Q171 373 190 357T225 321T261 284T306 268Q327 268 345 279T381 308L372
253Z" />
<glyph unicode="&#xa0;" horiz-adv-x="270" />
<glyph unicode="&#xa1;" horiz-adv-x="212" d="M135 274L62 -203H6L85 274H135ZM182 515Q180 497 177 486T164 470T139 465Q123 465 116 470T110 490Q111 503 113 512T120 527T133 536T153 539Q169 539 176 534T182 515Z" />
<glyph unicode="&#xa2;" horiz-adv-x="585" d="M243 -105L257 -6Q214 -3 180 15T127 70T108 166Q108 241 124 306T171 421T247 502T348 539L364 639H411L395 543Q419 543 439 540T479 533T516 524L499 471Q482 476 463 480T424 487T379 490Q331 490 292 467T226
401T183 302T167 180Q167 114 201 79T307 43Q329 43 353 45T401 53T441 62L444 13Q422 6 386 0T305 -9L289 -105H243Z" />
<glyph unicode="&#xa3;" horiz-adv-x="586" d="M57 0L62 43Q101 79 131 113T178 188T196 276Q196 312 188 341T172 400T164 470Q164 517 176 555T211 622T263 670T329 700T406 710Q431 710 458 707T514 698T569 681L550 632Q512 646 476 651T402 657Q355 657 314
637T246 574T220 461Q220 431 227 401T243 342T251 283Q251 235 238 197T199 123T134 51H481L473 0H57ZM90 343L97 389H467L460 343H90Z" />
<glyph unicode="&#xa4;" horiz-adv-x="406" d="M45 108L20 143L94 212Q80 237 80 271Q80 300 90 325T118 371L68 441L103 475L156 403Q172 415 191 422T229 429Q249 429 265 422T294 403L371 475L396 441L322 371Q328 359 332 345T335 314Q335 285 325 259T296
212L349 143L313 108L258 181Q242 169 224 163T186 156Q166 156 150 162T122 181L45 108ZM193 196Q219 196 242 211T281 252T296 309Q296 343 276 365T223 388Q197 388 174 373T135 333T120 276Q120 242 140 219T193 196Z" />
<glyph unicode="&#xa5;" horiz-adv-x="586" d="M116 345L124 385H283L144 698L204 703L320 426L518 706L576 698L343 385H506L499 345H336L318 231H481L476 192H312L281 0H222L252 192H92L99 231H259L277 345H116Z" />
<glyph unicode="&#xa6;" horiz-adv-x="196" d="M140 391H92L156 790H204L140 391ZM60 190H108L45 -210H-4L60 190Z" />
<glyph unicode="&#xa7;" horiz-adv-x="468" d="M6 -115Q24 -133 46 -146T93 -159Q116 -159 135 -145T167 -107T179 -50Q179 -11 168 28T140 109T107 196T79 292T68 399Q68 477 90 541T150 652T241 724T352 749Q371 749 390 747T428 741T463 730L442 675Q428 681
414 685T383 690Q340 690 317 656T293 570Q293 526 304 485T333 402T366 317T394 227T406 128Q406 68 392 15T351 -82T289 -156T213 -203T126 -220Q98 -220 73 -214T25 -196T-19 -167L6 -115ZM321 708Q256 697 211 655T141 548T116 400Q116 351 126 305T153 215T185
129T212 46T223 -37Q223 -67 214 -95T185 -146T138 -182Q183 -181 222 -158T293 -93T342 0T360 113Q360 163 349 209T322 298T289 385T261 472T250 566Q250 610 267 649T321 708Z" />
<glyph unicode="&#xa8;" horiz-adv-x="350" d="M334 658Q322 658 317 664T311 683Q312 703 320 714T344 725Q357 725 362 719T367 699Q366 679 358 669T334 658ZM152 658Q140 658 135 664T130 682Q131 702 138 713T163 725Q175 725 180 719T185 699Q184 678 176
668T152 658Z" />
<glyph unicode="&#xa9;" horiz-adv-x="636" d="M291 -10Q236 -10 193 7T119 57T73 138T57 248Q57 322 69 390T106 516T168 618T256 686T368 710Q423 710 467 693T541 644T587 563T603 452Q603 379 591 311T553 184T491 82T403 14T291 -10ZM317 167Q262 167 232
198T201 287Q201 357 223 411T283 496T370 527Q393 527 414 524T454 514L442 478Q424 483 406 485T368 488Q340 488 317 472T276 428T250 364T240 288Q240 263 250 244T280 214T326 203Q347 203 368 206T406 215L408 182Q390 176 367 172T317 167ZM294 19Q351 19
396 42T474 106T529 201T562 319T573 448Q573 507 559 550T518 623T453 667T365 682Q308 682 263 659T185 594T130 499T97 381T86 252Q86 194 100 151T141 78T206 34T294 19Z" />
<glyph unicode="&#xaa;" horiz-adv-x="345" d="M43 275L48 310H304L298 275H43ZM330 661Q323 616 317 579T306 512T298 462T292 429T290 415Q290 398 307 398Q309 398 313 399T325 402L326 371Q319 368 309 366T290 364Q275 364 265 371T250 391Q233 380 212 372T164
364Q125 364 98 387T71 466Q71 514 83 553T118 620T172 664T241 679Q257 679 273 677T304 670T330 661ZM111 470Q111 440 128 420T176 399Q194 399 214 405T249 422L283 638Q274 643 262 645T233 647Q210 647 188 633T149 595T121 538T111 470Z" />
<glyph unicode="&#xab;" horiz-adv-x="437" d="M163 30L23 239L34 303L240 511L242 453L66 270L182 83L163 30ZM359 30L219 239L230 303L436 511L438 453L262 270L378 83L359 30Z" />
<glyph unicode="&#xac;" horiz-adv-x="433" d="M65 366L73 415H404L366 175H318L347 366H65Z" />
<glyph unicode="&#xad;" horiz-adv-x="305" d="M37 248L46 301H268L259 248H37Z" />
<glyph unicode="&#xae;" horiz-adv-x="581" d="M293 210Q224 210 178 236T109 313T86 436Q86 513 99 582T136 708T196 806T276 870T375 893Q444 893 490 867T559 790T583 667Q583 589 570 520T532 395T472 297T391 233T293 210ZM294 236Q343 236 383 257T455 317T509
410T543 529T555 665Q555 730 535 775T474 843T373 866Q325 866 285 845T213 785T159 692T125 573T114 437Q114 373 134 328T194 260T294 236ZM214 396L265 717Q290 720 309 721T352 722Q404 722 429 704T454 642Q454 611 444 588T413 550T359 530L343 524Q327
524 315 524T293 525T270 527L249 396H214ZM330 554Q362 554 382 563T410 592T419 640Q419 668 403 679T350 690Q338 690 331 690T316 689T295 687L275 556Q291 555 303 555T330 554ZM434 393Q422 393 409 400T384 423T360 466T335 534L370 542Q382 504 394 479T420
441T444 429Q445 429 446 429T449 430L445 395Q442 394 439 394T434 393Z" />
<glyph unicode="&#xaf;" horiz-adv-x="350" d="M123 669L130 714H376L369 669H123Z" />
<glyph unicode="&#xb0;" horiz-adv-x="250" d="M159 486Q133 486 116 498T89 530T80 576Q80 605 88 631T111 679T148 712T195 724Q221 724 239 712T265 679T274 631Q274 602 266 576T242 530T205 498T159 486ZM165 528Q195 528 214 557T234 623Q234 648 223 664T188
681Q169 681 154 668T129 632T120 584Q120 560 131 544T165 528Z" />
<glyph unicode="&#xb1;" horiz-adv-x="434" d="M350 59H15L23 110H165L194 293H52L60 343H203L232 519H283L253 343H395L387 293H245L216 110H358L350 59Z" />
<glyph unicode="&#xb2;" horiz-adv-x="358" d="M62 368L64 396Q111 433 151 469T222 541T269 609T286 675Q286 703 271 718T226 734Q203 734 180 727T133 704L122 736Q139 748 158 756T198 768T239 772Q260 772 277 767T306 752T324 725T331 689Q331 650 314 614T268
542T203 471T127 401H328L324 368H62Z" />
<glyph unicode="&#xb3;" horiz-adv-x="341" d="M39 401L58 430Q80 414 105 406T160 398Q203 398 233 409T279 440T295 489Q295 515 286 531T257 554T209 562H142L147 591H218Q242 591 262 598T293 622T305 663Q305 699 282 718T217 737Q192 737 167 733T118 719L110
749Q128 757 146 762T185 770T226 773Q284 773 315 745T347 673Q347 635 327 612T279 577Q304 570 319 547T335 490Q335 461 323 438T288 398T234 373T162 364Q130 364 97 373T39 401Z" />
<glyph unicode="&#xb4;" horiz-adv-x="337" d="M151 596L298 790H359L198 596H151Z" />
<glyph unicode="&#xb5;" horiz-adv-x="499" d="M-6 -210L110 534H167Q153 444 143 378T125 264T114 185T107 136T103 109Q103 77 122 59T181 40Q207 40 232 45T284 62T338 89L407 534H464Q444 407 431 325T411 194T400 122T396 90T395 78Q395 58 402 49T426 40Q431
40 439 41T456 46L457 5Q445 -2 430 -6T403 -10Q377 -10 360 4T340 48Q310 29 282 16T227 -3T169 -10Q138 -10 118 2T89 36L50 -210H-6Z" />
<glyph unicode="&#xb6;" horiz-adv-x="531" d="M336 -210L487 740H533L382 -210H336ZM215 231L203 190Q158 198 126 223T77 288T60 380Q60 456 79 521T137 635T231 712T359 740H390L240 -210H194L336 691Q280 689 238 664T167 596T124 498T110 384Q110 341 122
309T159 257T215 231Z" />
<glyph unicode="&#xb7;" horiz-adv-x="166" d="M51 286Q52 300 56 310T69 326T92 332Q109 332 115 326T121 303Q120 292 118 284T111 269T99 260T79 257Q62 257 56 263T51 286Z" />
<glyph unicode="&#xb8;" horiz-adv-x="350" d="M30 -200L42 -161Q57 -170 70 -174T99 -178Q129 -178 147 -156T166 -92Q166 -65 157 -43T124 2H172Q191 -15 201 -41T211 -98Q211 -131 199 -159T163 -204T106 -220Q85 -220 67 -216T30 -200Z" />
<glyph unicode="&#xb9;" horiz-adv-x="332" d="M45 370L50 403H178L230 718L98 652L92 687L256 769H280L221 403H330L325 370H45Z" />
<glyph unicode="&#xba;" horiz-adv-x="325" d="M39 275L45 310H286L281 275H39ZM220 679Q256 679 281 669T319 637T333 581Q333 516 315 467T264 391T184 364Q148 364 123 375T84 407T71 462Q71 528 89 577T140 652T220 679ZM218 647Q195 647 176 634T142 596T119
539T111 466Q111 432 130 415T185 397Q208 397 227 410T261 447T284 505T292 578Q292 612 273 629T218 647Z" />
<glyph unicode="&#xbb;" horiz-adv-x="437" d="M-2 87L174 274L58 458L77 511L218 303L207 239L1 30L-2 87ZM194 87L370 274L254 458L273 511L414 303L403 239L197 30L194 87Z" />
<glyph unicode="&#xbc;" horiz-adv-x="771" d="M291 562L296 595H424L476 910L344 844L338 879L502 961H526L467 595H576L571 562H291ZM209 -10L169 -3L647 740L688 733L209 -10ZM408 98L410 125L650 401L686 395L643 130H704L700 98H638L622 0H578L594 98H408ZM452
130H599L635 344L452 130Z" />
<glyph unicode="&#xbd;" horiz-adv-x="828" d="M291 562L296 595H424L476 910L344 844L338 879L502 961H526L467 595H576L571 562H291ZM209 -10L169 -3L647 740L688 733L209 -10ZM459 -2L461 26Q508 63 548 99T619 171T666 239T683 305Q683 333 668 348T623 364Q600
364 577 357T530 334L519 366Q536 378 555 386T595 398T636 402Q657 402 674 397T703 382T721 355T728 319Q728 280 711 244T665 172T600 101T524 31H725L721 -2H459Z" />
<glyph unicode="&#xbe;" horiz-adv-x="774" d="M284 593L303 622Q325 606 350 598T405 590Q448 590 478 601T524 632T540 681Q540 707 531 723T502 746T454 754H387L392 783H463Q487 783 507 790T538 814T550 855Q550 891 527 910T462 929Q437 929 412 925T363
911L355 941Q373 949 391 954T430 962T471 965Q529 965 560 937T592 865Q592 827 572 804T524 769Q549 762 564 739T580 682Q580 653 568 630T533 590T479 565T407 556Q375 556 342 565T284 593ZM213 -10L173 -3L651 740L692 733L213 -10ZM411 98L413 125L653 401L689
395L646 130H707L703 98H641L625 0H581L597 98H411ZM455 130H602L638 344L455 130Z" />
<glyph unicode="&#xbf;" horiz-adv-x="398" d="M251 272L236 172Q181 149 143 124T82 72T49 13T38 -56Q38 -93 53 -116T93 -150T151 -162Q191 -162 235 -148T322 -105L335 -151Q305 -172 272 -186T203 -208T133 -216Q103 -216 75 -208T24 -183T-11 -137T-24 -69Q-24
1 1 50T75 134T190 201L201 272H251ZM295 513Q294 495 290 484T276 468T252 462Q236 462 230 467T223 486Q224 504 228 515T241 531T266 536Q282 536 288 531T295 513Z" />
<glyph unicode="&#xc0;" horiz-adv-x="548" d="M-29 0L306 709H375L490 0H426L395 196H128L35 0H-29ZM148 246H391L331 643L148 246ZM328 744L235 917H292L375 744H328Z" />
<glyph unicode="&#xc1;" horiz-adv-x="548" d="M-29 0L306 709H375L490 0H426L395 196H128L35 0H-29ZM148 246H391L331 643L148 246ZM312 744L447 917H509L360 744H312Z" />
<glyph unicode="&#xc2;" horiz-adv-x="548" d="M-29 0L306 709H375L490 0H426L395 196H128L35 0H-29ZM148 246H391L331 643L148 246ZM208 744L340 917H406L482 744H435L367 883L256 744H208Z" />
<glyph unicode="&#xc3;" horiz-adv-x="548" d="M-29 0L306 709H375L490 0H426L395 196H128L35 0H-29ZM148 246H391L331 643L148 246ZM211 774Q211 780 211 791T215 819Q222 852 242 877T301 903Q324 903 339 891T367 861T393 832T427 819Q443 819 453 831T470
859T477 886Q479 896 479 900T480 907H514Q514 902 514 896T512 879Q506 833 484 804T423 774Q399 774 384 787T355 816T329 846T296 859Q277 859 265 843T249 808Q246 794 246 787T245 774H211Z" />
<glyph unicode="&#xc4;" horiz-adv-x="548" d="M-29 0L306 709H375L490 0H426L395 196H128L35 0H-29ZM148 246H391L331 643L148 246ZM446 799Q434 799 429 805T423 824Q424 844 432 855T456 866Q469 866 474 860T479 840Q478 820 470 810T446 799ZM264 799Q252
799 247 805T242 823Q243 843 250 854T275 866Q287 866 292 860T297 840Q296 819 288 809T264 799Z" />
<glyph unicode="&#xc5;" horiz-adv-x="548" d="M-29 0L306 709H375L490 0H426L395 196H128L35 0H-29ZM148 246H391L331 643L148 246ZM350 755Q315 755 296 772T277 821Q277 869 302 895T372 922Q407 922 425 905T444 854Q444 807 419 781T350 755ZM353 785Q379
785 394 803T409 854Q409 892 368 892Q342 892 327 874T312 822Q312 785 353 785Z" />
<glyph unicode="&#xc6;" horiz-adv-x="825" d="M343 0L388 294H220L30 0H-39L416 700H848L839 647H501L458 377H767L758 324H450L407 53H761L753 0H343ZM250 343H396L443 647L250 343Z" />
<glyph unicode="&#xc7;" horiz-adv-x="555" d="M317 -10Q231 -10 171 16T79 95T48 229Q48 337 72 425T142 577T252 675T398 710Q430 710 460 708T518 699T576 683L560 634Q533 642 507 647T454 655T398 658Q331 658 278 627T188 538T130 404T109 236Q109 170 134
127T209 63T327 42Q372 42 412 48T485 64L492 15Q456 2 413 -4T317 -10ZM183 -200L195 -161Q210 -170 223 -174T252 -178Q282 -178 300 -156T319 -92Q319 -65 310 -43T277 2H325Q344 -15 354 -41T364 -98Q364 -131 352 -159T316 -204T259 -220Q238 -220 220 -216T183
-200Z" />
<glyph unicode="&#xc8;" horiz-adv-x="514" d="M29 0L139 700H537L528 647H190L149 392H467L458 340H141L96 53H450L441 0H29ZM328 744L235 917H292L375 744H328Z" />
<glyph unicode="&#xc9;" horiz-adv-x="514" d="M29 0L139 700H537L528 647H190L149 392H467L458 340H141L96 53H450L441 0H29ZM312 744L447 917H509L360 744H312Z" />
<glyph unicode="&#xca;" horiz-adv-x="514" d="M29 0L139 700H537L528 647H190L149 392H467L458 340H141L96 53H450L441 0H29ZM208 744L340 917H406L482 744H435L367 883L256 744H208Z" />
<glyph unicode="&#xcb;" horiz-adv-x="514" d="M29 0L139 700H537L528 647H190L149 392H467L458 340H141L96 53H450L441 0H29ZM446 799Q434 799 429 805T423 824Q424 844 432 855T456 866Q469 866 474 860T479 840Q478 820 470 810T446 799ZM264 799Q252 799 247
805T242 823Q243 843 250 854T275 866Q287 866 292 860T297 840Q296 819 288 809T264 799Z" />
<glyph unicode="&#xcc;" horiz-adv-x="204" d="M29 0L140 700H199L88 0H29ZM159 744L66 917H123L206 744H159Z" />
<glyph unicode="&#xcd;" horiz-adv-x="204" d="M29 0L140 700H199L88 0H29ZM143 744L278 917H340L191 744H143Z" />
<glyph unicode="&#xce;" horiz-adv-x="204" d="M29 0L140 700H199L88 0H29ZM39 744L171 917H237L313 744H266L198 883L87 744H39Z" />
<glyph unicode="&#xcf;" horiz-adv-x="204" d="M29 0L140 700H199L88 0H29ZM276 799Q264 799 259 805T253 824Q254 844 262 855T286 866Q299 866 304 860T309 840Q308 820 300 810T276 799ZM94 799Q82 799 77 805T72 823Q73 843 80 854T105 866Q117 866 122 860T127
840Q126 819 118 809T94 799Z" />
<glyph unicode="&#xd0;" horiz-adv-x="621" d="M20 335L29 384H291L283 335H20ZM229 -10Q189 -10 157 -9T96 -7T34 -2L146 703Q192 707 232 708T317 710Q365 710 406 701T482 672T541 620T580 542T594 434Q594 330 567 248T492 109T376 21T229 -10ZM231 38Q284
38 330 55T413 105T478 187T519 296T534 431Q534 484 523 522T492 587T444 630T385 653T318 660Q296 660 274 660T232 658T197 655L100 43Q123 41 143 40T185 39T231 38Z" />
<glyph unicode="&#xd1;" horiz-adv-x="626" d="M29 0L141 703H197L471 92L567 700H621L510 -3H455L179 604L84 0H29ZM253 774Q253 780 253 791T257 819Q264 852 284 877T343 903Q366 903 381 891T409 861T435 832T469 819Q485 819 495 831T512 859T519 886Q521
896 521 900T522 907H556Q556 902 556 896T554 879Q548 833 526 804T465 774Q441 774 426 787T397 816T371 846T338 859Q319 859 307 843T291 808Q288 794 288 787T287 774H253Z" />
<glyph unicode="&#xd2;" horiz-adv-x="644" d="M294 -9Q179 -9 118 63T56 274Q56 339 65 396T93 502T139 588T201 654T279 695T371 709Q487 709 548 637T609 426Q609 361 600 304T572 198T527 112T465 46T387 5T294 -9ZM297 42Q338 42 372 55T435 92T484 151T520
229T542 322T550 427Q550 542 502 600T368 658Q328 658 294 645T231 608T181 549T145 471T123 378T116 273Q116 158 164 100T297 42ZM374 744L281 917H338L421 744H374Z" />
<glyph unicode="&#xd3;" horiz-adv-x="644" d="M294 -9Q179 -9 118 63T56 274Q56 339 65 396T93 502T139 588T201 654T279 695T371 709Q487 709 548 637T609 426Q609 361 600 304T572 198T527 112T465 46T387 5T294 -9ZM297 42Q338 42 372 55T435 92T484 151T520
229T542 322T550 427Q550 542 502 600T368 658Q328 658 294 645T231 608T181 549T145 471T123 378T116 273Q116 158 164 100T297 42ZM358 744L493 917H555L406 744H358Z" />
<glyph unicode="&#xd4;" horiz-adv-x="644" d="M294 -9Q179 -9 118 63T56 274Q56 339 65 396T93 502T139 588T201 654T279 695T371 709Q487 709 548 637T609 426Q609 361 600 304T572 198T527 112T465 46T387 5T294 -9ZM297 42Q338 42 372 55T435 92T484 151T520
229T542 322T550 427Q550 542 502 600T368 658Q328 658 294 645T231 608T181 549T145 471T123 378T116 273Q116 158 164 100T297 42ZM254 744L386 917H452L528 744H481L413 883L302 744H254Z" />
<glyph unicode="&#xd5;" horiz-adv-x="644" d="M294 -9Q179 -9 118 63T56 274Q56 339 65 396T93 502T139 588T201 654T279 695T371 709Q487 709 548 637T609 426Q609 361 600 304T572 198T527 112T465 46T387 5T294 -9ZM297 42Q338 42 372 55T435 92T484 151T520
229T542 322T550 427Q550 542 502 600T368 658Q328 658 294 645T231 608T181 549T145 471T123 378T116 273Q116 158 164 100T297 42ZM256 774Q256 780 256 791T260 819Q267 852 287 877T346 903Q369 903 384 891T412 861T438 832T472 819Q488 819 498 831T515 859T522
886Q524 896 524 900T525 907H559Q559 902 559 896T557 879Q551 833 529 804T468 774Q444 774 429 787T400 816T374 846T341 859Q322 859 310 843T294 808Q291 794 291 787T290 774H256Z" />
<glyph unicode="&#xd6;" horiz-adv-x="644" d="M294 -9Q179 -9 118 63T56 274Q56 339 65 396T93 502T139 588T201 654T279 695T371 709Q487 709 548 637T609 426Q609 361 600 304T572 198T527 112T465 46T387 5T294 -9ZM297 42Q338 42 372 55T435 92T484 151T520
229T542 322T550 427Q550 542 502 600T368 658Q328 658 294 645T231 608T181 549T145 471T123 378T116 273Q116 158 164 100T297 42ZM491 799Q479 799 474 805T468 824Q469 844 477 855T501 866Q514 866 519 860T524 840Q523 820 515 810T491 799ZM309 799Q297
799 292 805T287 823Q288 843 295 854T320 866Q332 866 337 860T342 840Q341 819 333 809T309 799Z" />
<glyph unicode="&#xd7;" horiz-adv-x="413" d="M60 88L30 122L178 298L87 473L126 507L216 337L361 507L391 472L242 296L331 124L292 89L205 258L60 88Z" />
<glyph unicode="&#xd8;" horiz-adv-x="641" d="M671 710L556 575L555 576L138 92H136L51 -8H-5L112 129L114 128L528 610H530L616 710H671ZM294 -9Q179 -9 118 64T56 275Q56 340 66 398T94 504T140 590T202 654T280 695T372 709Q488 709 549 636T610 425Q610 360
601 302T572 196T526 110T464 46T387 5T294 -9ZM298 42Q337 42 370 54T432 91T482 149T519 226T542 321T550 429Q550 542 502 600T370 658Q331 658 297 646T235 611T184 554T147 477T124 382T116 271Q116 158 165 100T298 42Z" />
<glyph unicode="&#xd9;" horiz-adv-x="613" d="M260 -10Q157 -10 103 31T48 150Q48 161 48 170T52 195L131 700H189L110 193Q98 120 140 81T270 41Q453 41 478 201L558 700H616L537 203Q520 95 452 43T260 -10ZM361 744L268 917H325L408 744H361Z" />
<glyph unicode="&#xda;" horiz-adv-x="613" d="M260 -10Q157 -10 103 31T48 150Q48 161 48 170T52 195L131 700H189L110 193Q98 120 140 81T270 41Q453 41 478 201L558 700H616L537 203Q520 95 452 43T260 -10ZM345 744L480 917H542L393 744H345Z" />
<glyph unicode="&#xdb;" horiz-adv-x="613" d="M260 -10Q157 -10 103 31T48 150Q48 161 48 170T52 195L131 700H189L110 193Q98 120 140 81T270 41Q453 41 478 201L558 700H616L537 203Q520 95 452 43T260 -10ZM241 744L373 917H439L515 744H468L400 883L289 744H241Z" />
<glyph unicode="&#xdc;" horiz-adv-x="613" d="M260 -10Q157 -10 103 31T48 150Q48 161 48 170T52 195L131 700H189L110 193Q98 120 140 81T270 41Q453 41 478 201L558 700H616L537 203Q520 95 452 43T260 -10ZM478 799Q466 799 461 805T455 824Q456 844 464 855T488
866Q501 866 506 860T511 840Q510 820 502 810T478 799ZM296 799Q284 799 279 805T274 823Q275 843 282 854T307 866Q319 866 324 860T329 840Q328 819 320 809T296 799Z" />
<glyph unicode="&#xdd;" horiz-adv-x="502" d="M182 0L229 290L70 699L133 705L267 339Q317 387 352 429T412 510T453 587T481 665Q484 675 486 685T492 705L555 701Q552 691 549 681T543 660Q532 625 517 591T482 521T433 450T369 375T288 290L240 0H182ZM293
744L428 917H490L341 744H293Z" />
<glyph unicode="&#xde;" horiz-adv-x="565" d="M29 0L140 700H199L184 612Q220 614 245 615T288 616T319 617Q381 617 425 605T497 568T539 510T552 433Q552 363 533 311T478 225T389 175T268 158Q240 158 217 158T169 159T114 161L88 0H29ZM264 208Q321 208 364
221T435 260T478 328T492 424Q492 469 475 501T418 550T315 567Q303 567 291 567T262 566T226 564T177 561L122 212Q149 211 170 210T213 209T264 208Z" />
<glyph unicode="&#xdf;" horiz-adv-x="562" d="M42 -49L119 441H33L41 481L128 490L133 525Q146 602 174 651T250 725T370 750Q444 750 484 721T524 636Q524 601 513 577T476 533T406 494Q366 476 342 462T308 430T297 390Q297 368 308 352T344 321T412 288Q457
270 484 250T525 205T539 147Q539 99 514 64T443 10T329 -10Q302 -10 273 -6T216 5T164 22L180 67Q203 58 228 52T281 41T333 37Q400 37 441 67T483 140Q483 165 473 182T439 213T376 244Q330 264 301 283T257 326T243 383Q243 438 273 469T369 529Q407 546 428
560T459 592T469 631Q469 654 458 669T425 693T368 701Q315 701 279 681T221 620T188 516L97 -57Q85 -136 54 -178T-34 -220Q-51 -220 -69 -217T-103 -208L-90 -162Q-77 -166 -66 -168T-43 -170Q-5 -170 14 -138T42 -49Z" />
<glyph unicode="&#xe0;" horiz-adv-x="494" d="M402 -10Q386 -10 373 -4T350 14T337 41Q317 26 292 15T239 -3T183 -10Q134 -10 100 10T47 71T29 171Q29 284 64 367T163 497T314 544Q333 544 353 542T393 536T429 527T462 514Q446 414 435 342T415 220T402 140T395
96T393 79Q393 59 401 50T425 40Q433 40 440 41T455 46V1Q444 -4 431 -7T402 -10ZM335 83L397 479Q379 488 356 492T306 497Q243 497 194 457T116 345T87 180Q87 112 118 77T203 41Q225 41 248 46T294 61T335 83ZM290 596L192 790H249L336 596H290Z" />
<glyph unicode="&#xe1;" horiz-adv-x="494" d="M402 -10Q386 -10 373 -4T350 14T337 41Q317 26 292 15T239 -3T183 -10Q134 -10 100 10T47 71T29 171Q29 284 64 367T163 497T314 544Q333 544 353 542T393 536T429 527T462 514Q446 414 435 342T415 220T402 140T395
96T393 79Q393 59 401 50T425 40Q433 40 440 41T455 46V1Q444 -4 431 -7T402 -10ZM335 83L397 479Q379 488 356 492T306 497Q243 497 194 457T116 345T87 180Q87 112 118 77T203 41Q225 41 248 46T294 61T335 83ZM272 596L419 790H480L319 596H272Z" />
<glyph unicode="&#xe2;" horiz-adv-x="494" d="M402 -10Q386 -10 373 -4T350 14T337 41Q317 26 292 15T239 -3T183 -10Q134 -10 100 10T47 71T29 171Q29 284 64 367T163 497T314 544Q333 544 353 542T393 536T429 527T462 514Q446 414 435 342T415 220T402 140T395
96T393 79Q393 59 401 50T425 40Q433 40 440 41T455 46V1Q444 -4 431 -7T402 -10ZM335 83L397 479Q379 488 356 492T306 497Q243 497 194 457T116 345T87 180Q87 112 118 77T203 41Q225 41 248 46T294 61T335 83ZM161 596L303 790H369L448 596H400L330 754L210
596H161Z" />
<glyph unicode="&#xe3;" horiz-adv-x="494" d="M402 -10Q386 -10 373 -4T350 14T337 41Q317 26 292 15T239 -3T183 -10Q134 -10 100 10T47 71T29 171Q29 284 64 367T163 497T314 544Q333 544 353 542T393 536T429 527T462 514Q446 414 435 342T415 220T402 140T395
96T393 79Q393 59 401 50T425 40Q433 40 440 41T455 46V1Q444 -4 431 -7T402 -10ZM335 83L397 479Q379 488 356 492T306 497Q243 497 194 457T116 345T87 180Q87 112 118 77T203 41Q225 41 248 46T294 61T335 83ZM164 605Q164 611 164 622T168 650Q175 683 195
708T254 734Q277 734 292 722T320 692T346 663T380 650Q396 650 406 662T423 690T430 717Q432 727 432 731T433 738H467Q467 733 467 727T465 710Q459 664 437 635T376 605Q352 605 337 618T308 647T282 677T249 690Q230 690 218 674T202 639Q199 625 199 618T198
605H164Z" />
<glyph unicode="&#xe4;" horiz-adv-x="494" d="M402 -10Q386 -10 373 -4T350 14T337 41Q317 26 292 15T239 -3T183 -10Q134 -10 100 10T47 71T29 171Q29 284 64 367T163 497T314 544Q333 544 353 542T393 536T429 527T462 514Q446 414 435 342T415 220T402 140T395
96T393 79Q393 59 401 50T425 40Q433 40 440 41T455 46V1Q444 -4 431 -7T402 -10ZM335 83L397 479Q379 488 356 492T306 497Q243 497 194 457T116 345T87 180Q87 112 118 77T203 41Q225 41 248 46T294 61T335 83ZM404 658Q392 658 387 664T381 683Q382 703 390
714T414 725Q427 725 432 719T437 699Q436 679 428 669T404 658ZM222 658Q210 658 205 664T200 682Q201 702 208 713T233 725Q245 725 250 719T255 699Q254 678 246 668T222 658Z" />
<glyph unicode="&#xe5;" horiz-adv-x="494" d="M402 -10Q386 -10 373 -4T350 14T337 41Q317 26 292 15T239 -3T183 -10Q134 -10 100 10T47 71T29 171Q29 284 64 367T163 497T314 544Q333 544 353 542T393 536T429 527T462 514Q446 414 435 342T415 220T402 140T395
96T393 79Q393 59 401 50T425 40Q433 40 440 41T455 46V1Q444 -4 431 -7T402 -10ZM335 83L397 479Q379 488 356 492T306 497Q243 497 194 457T116 345T87 180Q87 112 118 77T203 41Q225 41 248 46T294 61T335 83ZM309 612Q274 612 255 629T236 678Q236 726 261
752T331 779Q366 779 384 762T403 711Q403 664 378 638T309 612ZM312 642Q338 642 353 660T368 711Q368 749 327 749Q301 749 286 731T271 679Q271 642 312 642Z" />
<glyph unicode="&#xe6;" horiz-adv-x="795" d="M181 -10Q109 -10 69 36T28 169Q28 254 48 322T105 441T189 517T293 544Q322 544 350 536T403 513L407 540H459L440 419Q471 480 525 512T645 544Q712 544 748 515T785 433Q785 363 725 315T555 249Q515 241 473
239T396 240L400 281Q434 280 471 281T544 291Q631 307 679 341T728 426Q728 460 703 478T627 497Q579 497 540 475T472 411T428 314T412 194Q412 146 430 111T482 58T565 39Q591 39 618 43T672 54T724 73L734 27Q709 15 679 7T618 -5T558 -10Q489 -10 448 22T393
113L374 -4H321L328 37Q309 24 286 13T236 -4T181 -10ZM203 37Q236 37 271 49T334 80L396 469Q375 485 351 491T299 498Q258 498 220 475T152 410T105 308T87 176Q87 130 101 99T141 53T203 37Z" />
<glyph unicode="&#xe7;" horiz-adv-x="429" d="M220 -10Q159 -10 117 11T52 72T30 168Q30 250 49 318T104 437T191 516T304 544Q327 544 350 542T395 536T440 524L423 475Q391 485 361 488T301 492Q255 492 216 468T148 401T103 300T87 178Q87 134 105 104T156
57T234 41Q260 41 282 43T324 49T364 59L370 13Q350 7 327 2T276 -7T220 -10ZM101 -200L113 -161Q128 -170 141 -174T170 -178Q200 -178 218 -156T237 -92Q237 -65 228 -43T195 2H243Q262 -15 272 -41T282 -98Q282 -131 270 -159T234 -204T177 -220Q156 -220 138
-216T101 -200Z" />
<glyph unicode="&#xe8;" horiz-adv-x="462" d="M81 281Q112 280 146 282T215 290Q302 305 351 339T401 425Q401 461 376 479T301 497Q240 497 192 460T117 355T89 199Q89 148 106 113T155 58T233 39Q257 39 283 43T336 54T391 73L401 26Q362 9 316 0T224 -10Q164
-10 121 14T55 84T32 194Q32 272 51 336T107 446T195 518T311 544Q356 544 389 531T439 493T457 434Q457 362 396 315T226 248Q187 241 148 240T76 240L81 281ZM300 597L202 791H259L346 597H300Z" />
<glyph unicode="&#xe9;" horiz-adv-x="462" d="M81 281Q112 280 146 282T215 290Q302 305 351 339T401 425Q401 461 376 479T301 497Q240 497 192 460T117 355T89 199Q89 148 106 113T155 58T233 39Q257 39 283 43T336 54T391 73L401 26Q362 9 316 0T224 -10Q164
-10 121 14T55 84T32 194Q32 272 51 336T107 446T195 518T311 544Q356 544 389 531T439 493T457 434Q457 362 396 315T226 248Q187 241 148 240T76 240L81 281ZM282 597L429 791H490L329 597H282Z" />
<glyph unicode="&#xea;" horiz-adv-x="462" d="M81 281Q112 280 146 282T215 290Q302 305 351 339T401 425Q401 461 376 479T301 497Q240 497 192 460T117 355T89 199Q89 148 106 113T155 58T233 39Q257 39 283 43T336 54T391 73L401 26Q362 9 316 0T224 -10Q164
-10 121 14T55 84T32 194Q32 272 51 336T107 446T195 518T311 544Q356 544 389 531T439 493T457 434Q457 362 396 315T226 248Q187 241 148 240T76 240L81 281ZM171 597L313 791H379L458 597H410L340 755L220 597H171Z" />
<glyph unicode="&#xeb;" horiz-adv-x="462" d="M81 281Q112 280 146 282T215 290Q302 305 351 339T401 425Q401 461 376 479T301 497Q240 497 192 460T117 355T89 199Q89 148 106 113T155 58T233 39Q257 39 283 43T336 54T391 73L401 26Q362 9 316 0T224 -10Q164
-10 121 14T55 84T32 194Q32 272 51 336T107 446T195 518T311 544Q356 544 389 531T439 493T457 434Q457 362 396 315T226 248Q187 241 148 240T76 240L81 281ZM414 659Q402 659 397 665T391 684Q392 704 400 715T424 726Q437 726 442 720T447 700Q446 680 438
670T414 659ZM232 659Q220 659 215 665T210 683Q211 703 218 714T243 726Q255 726 260 720T265 700Q264 679 256 669T232 659Z" />
<glyph unicode="&#xec;" horiz-adv-x="196" d="M83 0H26L110 534H167L83 0ZM134 596L36 790H93L180 596H134Z" />
<glyph unicode="&#xed;" horiz-adv-x="196" d="M83 0H26L110 534H167L83 0ZM116 596L263 790H324L163 596H116Z" />
<glyph unicode="&#xee;" horiz-adv-x="196" d="M83 0H26L110 534H167L83 0ZM5 596L147 790H213L292 596H244L174 754L54 596H5Z" />
<glyph unicode="&#xef;" horiz-adv-x="196" d="M83 0H26L110 534H167L83 0ZM248 658Q236 658 231 664T225 683Q226 703 234 714T258 725Q271 725 276 719T281 699Q280 679 272 669T248 658ZM66 658Q54 658 49 664T44 682Q45 702 52 713T77 725Q89 725 94 719T99
699Q98 678 90 668T66 658Z" />
<glyph unicode="&#xf0;" horiz-adv-x="520" d="M451 433Q422 462 387 475T309 489Q271 489 238 474T178 431T132 365T102 280T92 180Q92 146 100 119T124 74T164 46T217 36Q256 36 288 51T345 99T389 183T422 308Q431 352 434 390T438 468Q438 536 414 582T341
653T219 677Q197 677 180 676T145 672T104 665L103 706Q136 712 166 716T227 720Q289 720 339 704T424 654T477 573T496 460Q496 425 493 387T480 300Q466 219 443 161T386 65T309 9T214 -10Q174 -10 141 2T85 39T48 99T35 184Q35 243 47 295T83 391T138 466T212
515T302 533Q332 533 360 527T414 509T460 478L451 433ZM209 568H137L358 672L355 673L471 727H545L385 652L389 651L209 568Z" />
<glyph unicode="&#xf1;" horiz-adv-x="505" d="M110 534H163L156 486Q187 504 217 516T278 536T342 544Q401 544 429 515T458 436Q458 425 454 397T444 331T432 252T420 173T410 110T406 74Q406 58 414 49T438 40Q445 40 452 41T468 46V1Q456 -5 442 -7T415 -10Q395
-10 380 -3T356 19T347 54Q347 65 350 92T360 157T372 234T384 312T393 376T397 416Q397 451 379 472T314 494Q287 494 261 488T208 470T153 443L83 0H26L110 534ZM157 605Q157 611 157 622T161 650Q168 683 188 708T247 734Q270 734 285 722T313 692T339 663T373
650Q389 650 399 662T416 690T423 717Q425 727 425 731T426 738H460Q460 733 460 727T458 710Q452 664 430 635T369 605Q345 605 330 618T301 647T275 677T242 690Q223 690 211 674T195 639Q192 625 192 618T191 605H157Z" />
<glyph unicode="&#xf2;" horiz-adv-x="499" d="M213 -10Q154 -10 114 10T54 71T33 174Q33 223 40 268T60 355T94 430T140 491T200 530T273 544Q329 544 369 524T430 462T451 358Q451 309 445 263T425 175T391 100T345 41T286 3T213 -10ZM211 37Q241 37 266 49T312
84T347 136T373 202T388 277T394 359Q394 429 362 463T273 497Q244 497 219 485T174 449T138 396T111 329T95 255T90 176Q90 104 120 71T211 37ZM280 596L182 790H239L326 596H280Z" />
<glyph unicode="&#xf3;" horiz-adv-x="499" d="M213 -10Q154 -10 114 10T54 71T33 174Q33 223 40 268T60 355T94 430T140 491T200 530T273 544Q329 544 369 524T430 462T451 358Q451 309 445 263T425 175T391 100T345 41T286 3T213 -10ZM211 37Q241 37 266 49T312
84T347 136T373 202T388 277T394 359Q394 429 362 463T273 497Q244 497 219 485T174 449T138 396T111 329T95 255T90 176Q90 104 120 71T211 37ZM262 596L409 790H470L309 596H262Z" />
<glyph unicode="&#xf4;" horiz-adv-x="499" d="M213 -10Q154 -10 114 10T54 71T33 174Q33 223 40 268T60 355T94 430T140 491T200 530T273 544Q329 544 369 524T430 462T451 358Q451 309 445 263T425 175T391 100T345 41T286 3T213 -10ZM211 37Q241 37 266 49T312
84T347 136T373 202T388 277T394 359Q394 429 362 463T273 497Q244 497 219 485T174 449T138 396T111 329T95 255T90 176Q90 104 120 71T211 37ZM151 596L293 790H359L438 596H390L320 754L200 596H151Z" />
<glyph unicode="&#xf5;" horiz-adv-x="499" d="M213 -10Q154 -10 114 10T54 71T33 174Q33 223 40 268T60 355T94 430T140 491T200 530T273 544Q329 544 369 524T430 462T451 358Q451 309 445 263T425 175T391 100T345 41T286 3T213 -10ZM211 37Q241 37 266 49T312
84T347 136T373 202T388 277T394 359Q394 429 362 463T273 497Q244 497 219 485T174 449T138 396T111 329T95 255T90 176Q90 104 120 71T211 37ZM154 605Q154 611 154 622T158 650Q165 683 185 708T244 734Q267 734 282 722T310 692T336 663T370 650Q386 650 396
662T413 690T420 717Q422 727 422 731T423 738H457Q457 733 457 727T455 710Q449 664 427 635T366 605Q342 605 327 618T298 647T272 677T239 690Q220 690 208 674T192 639Q189 625 189 618T188 605H154Z" />
<glyph unicode="&#xf6;" horiz-adv-x="499" d="M213 -10Q154 -10 114 10T54 71T33 174Q33 223 40 268T60 355T94 430T140 491T200 530T273 544Q329 544 369 524T430 462T451 358Q451 309 445 263T425 175T391 100T345 41T286 3T213 -10ZM211 37Q241 37 266 49T312
84T347 136T373 202T388 277T394 359Q394 429 362 463T273 497Q244 497 219 485T174 449T138 396T111 329T95 255T90 176Q90 104 120 71T211 37ZM394 658Q382 658 377 664T371 683Q372 703 380 714T404 725Q417 725 422 719T427 699Q426 679 418 669T394 658ZM212
658Q200 658 195 664T190 682Q191 702 198 713T223 725Q235 725 240 719T245 699Q244 678 236 668T212 658Z" />
<glyph unicode="&#xf7;" horiz-adv-x="434" d="M157 95Q159 111 163 120T175 132T196 136Q210 136 217 132T223 115Q221 90 213 82T183 74Q169 74 163 78T157 95ZM219 478Q221 494 224 503T236 516T257 520Q273 520 279 515T284 498Q282 473 274 465T245 456Q230
456 224 461T219 478ZM49 271L57 323H393L384 271H49Z" />
<glyph unicode="&#xf8;" horiz-adv-x="488" d="M448 544H497L415 444L414 445L106 63L104 64L44 -10H-4L79 93L81 91L392 477L393 476L448 544ZM217 -10Q158 -10 119 10T58 71T37 174Q37 223 44 268T64 355T98 430T144 491T204 530T277 544Q334 544 373 524T434
462T455 358Q455 309 449 263T429 175T396 100T350 41T290 3T217 -10ZM217 37Q246 38 271 50T317 84T352 137T378 203T393 278T398 359Q398 429 366 463T276 497Q247 497 222 484T177 448T141 393T115 326T99 251T94 173Q94 102 125 70T217 37Z" />
<glyph unicode="&#xf9;" horiz-adv-x="497" d="M155 -10Q100 -10 71 17T42 91Q42 101 44 118T50 166T62 245T81 364T108 534H165Q148 425 137 353T118 236T108 167T103 131T101 111Q101 79 120 60T180 40Q207 40 232 45T282 62T336 89L405 534H462Q442 407 429
325T408 194T398 122T393 90T392 78Q392 58 399 49T424 40Q428 40 436 41T454 46L455 5Q443 -2 427 -6T401 -10Q374 -10 357 4T336 49Q305 30 276 17T217 -3T155 -10ZM278 596L180 790H237L324 596H278Z" />
<glyph unicode="&#xfa;" horiz-adv-x="497" d="M155 -10Q100 -10 71 17T42 91Q42 101 44 118T50 166T62 245T81 364T108 534H165Q148 425 137 353T118 236T108 167T103 131T101 111Q101 79 120 60T180 40Q207 40 232 45T282 62T336 89L405 534H462Q442 407 429
325T408 194T398 122T393 90T392 78Q392 58 399 49T424 40Q428 40 436 41T454 46L455 5Q443 -2 427 -6T401 -10Q374 -10 357 4T336 49Q305 30 276 17T217 -3T155 -10ZM260 596L407 790H468L307 596H260Z" />
<glyph unicode="&#xfb;" horiz-adv-x="497" d="M155 -10Q100 -10 71 17T42 91Q42 101 44 118T50 166T62 245T81 364T108 534H165Q148 425 137 353T118 236T108 167T103 131T101 111Q101 79 120 60T180 40Q207 40 232 45T282 62T336 89L405 534H462Q442 407 429
325T408 194T398 122T393 90T392 78Q392 58 399 49T424 40Q428 40 436 41T454 46L455 5Q443 -2 427 -6T401 -10Q374 -10 357 4T336 49Q305 30 276 17T217 -3T155 -10ZM149 596L291 790H357L436 596H388L318 754L198 596H149Z" />
<glyph unicode="&#xfc;" horiz-adv-x="497" d="M155 -10Q100 -10 71 17T42 91Q42 101 44 118T50 166T62 245T81 364T108 534H165Q148 425 137 353T118 236T108 167T103 131T101 111Q101 79 120 60T180 40Q207 40 232 45T282 62T336 89L405 534H462Q442 407 429
325T408 194T398 122T393 90T392 78Q392 58 399 49T424 40Q428 40 436 41T454 46L455 5Q443 -2 427 -6T401 -10Q374 -10 357 4T336 49Q305 30 276 17T217 -3T155 -10ZM392 658Q380 658 375 664T369 683Q370 703 378 714T402 725Q415 725 420 719T425 699Q424 679
416 669T392 658ZM210 658Q198 658 193 664T188 682Q189 702 196 713T221 725Q233 725 238 719T243 699Q242 678 234 668T210 658Z" />
<glyph unicode="&#xfd;" horiz-adv-x="432" d="M394 539L452 537Q447 495 433 444T396 337T346 222T286 103T221 -13T155 -122T91 -218L33 -208Q65 -165 99 -113T166 -3H149L41 539L101 542L197 44Q224 92 250 142T299 244T342 346T374 446T394 539ZM226 596L373
790H434L273 596H226Z" />
<glyph unicode="&#xfe;" horiz-adv-x="493" d="M-7 -210L143 740H200L160 485Q198 510 237 527T323 544Q392 544 428 499T464 366Q464 290 445 222T390 102T303 20T187 -10Q156 -10 131 -6T84 3L50 -210H-7ZM184 37Q233 37 274 63T345 133T390 234T406 352Q406
423 379 457T298 492Q263 492 226 478T153 437L92 52Q109 46 132 42T184 37Z" />
<glyph unicode="&#xff;" horiz-adv-x="432" d="M394 539L452 537Q447 495 433 444T396 337T346 222T286 103T221 -13T155 -122T91 -218L33 -208Q65 -165 99 -113T166 -3H149L41 539L101 542L197 44Q224 92 250 142T299 244T342 346T374 446T394 539ZM358 658Q346
658 341 664T335 683Q336 703 344 714T368 725Q381 725 386 719T391 699Q390 679 382 669T358 658ZM176 658Q164 658 159 664T154 682Q155 702 162 713T187 725Q199 725 204 719T209 699Q208 678 200 668T176 658Z" />
<glyph unicode="&#x2013;" horiz-adv-x="380" d="M14 251L23 300H366L358 251H14Z" />
<glyph unicode="&#x2014;" horiz-adv-x="732" d="M4 251L12 300H728L720 251H4Z" />
<glyph unicode="&#x2018;" horiz-adv-x="163" d="M64 430Q70 484 83 531T116 621T165 700L209 696Q182 654 164 614T134 529T116 430H64Z" />
<glyph unicode="&#x2019;" horiz-adv-x="163" d="M191 700Q185 647 172 599T139 509T90 430L46 434Q73 476 91 516T122 601T139 700H191Z" />
<glyph unicode="&#x201a;" horiz-adv-x="163" d="M85 50Q79 -3 66 -51T33 -141T-16 -220L-60 -216Q-33 -174 -15 -134T16 -49T33 50H85Z" />
<glyph unicode="&#x201c;" horiz-adv-x="307" d="M64 430Q70 484 83 531T116 621T165 700L209 696Q182 654 164 614T134 529T116 430H64ZM208 430Q214 484 227 531T260 621T309 700L353 696Q326 654 308 614T278 529T260 430H208Z" />
<glyph unicode="&#x201d;" horiz-adv-x="307" d="M191 700Q185 647 172 599T139 509T90 430L46 434Q73 476 91 516T122 601T139 700H191ZM335 700Q329 647 316 599T283 509T234 430L190 434Q217 476 235 516T266 601T283 700H335Z" />
<glyph unicode="&#x201e;" horiz-adv-x="307" d="M85 50Q79 -3 66 -51T33 -141T-16 -220L-60 -216Q-33 -174 -15 -134T16 -49T33 50H85ZM229 50Q223 -3 210 -51T177 -141T128 -220L84 -216Q111 -174 129 -134T160 -49T177 50H229Z" />
<glyph unicode="&#x2022;" horiz-adv-x="293" d="M133 209Q109 209 90 221T59 253T48 298Q48 331 64 359T108 406T167 424Q193 424 212 412T242 380T253 334Q253 301 236 273T192 227T133 209Z" />
<glyph unicode="&#x2039;" horiz-adv-x="242" d="M163 30L23 239L34 303L240 511L242 453L66 270L182 83L163 30Z" />
<glyph unicode="&#x203a;" horiz-adv-x="242" d="M-2 87L174 274L58 458L77 511L218 303L207 239L1 30L-2 87Z" />
</font>
</defs>
</svg>
